<svg width="74" height="66" viewBox="0 0 74 66" fill="none" xmlns="http://www.w3.org/2000/svg">
<path d="M4.5 0H69V0.850392H71.2593V1.70078H72.1728V2.97637H73.0864V4.67716H74V6.78161V8.66539H73.0864V9.79566H72.1728V11.3027H71.2593V12.0562V12.8097H70.3457V14.3167H69.4321V15.8238H68.5185V17.3308H67.6049V18.8378H66.6914V20.3448H65.7778V21.8518H64.8642V23.3589H63.9506V24.8659H63.037V26.3729H62.1235V27.8799H61.2099V29.387H60.2963V30.894H59.3827V32.401H58.4691V33.908H57.5556V35.4151H56.642V36.9221H55.7284V38.4291H54.8148V39.9361H53.9012V41.4431H52.9877V42.9502H52.0741V44.4572H51.1605V45.9642H50.2469V47.4712H49.3333V48.9783H48.4198V50.4853H47.5062V51.9923H46.5926V53.4993H45.679V55.1392H44.7654V56.8101H43.8519V58.481H42.9383V60.1519H42.0247V61.8228H41.1111V63.076H40.1975V64.3291H39.284V65.1646H38.3704V66H36.5432V53.5756L41.1111 47.4713L42.0247 47.4712V45.9642H42.9383V44.4572H43.8519V42.9502H44.7654V41.4431H45.679V39.9361H46.5926V38.4291H47.5062V36.9221H48.4198V35.4151H49.3333V33.908H50.2469V32.401H51.1605V30.894H52.0741V29.387H52.9877V27.8799H53.9012V26.3729H54.8148V24.8659H55.7284V23.3589H56.642V21.8518H57.5556V20.3448H58.4691V18.8378H59.3827V17.3308H60.2963V15.8238H61.2099V14.3167H62.1235V12.8097H63.037V11.3027H63.9506V9.79566H64.8642V8.28863H65.7778V6.78161H37.4568H3.65432H0.91358H0V6.80314V6.0281V4.67716H0.91358V2.97637H1.82716V1.70078H2.74074V0.850392L4.5 0.891892V0Z" fill="#0098EA"/>
<path d="M69 0H4.5V0.850392H2.74074V1.70078H1.82716V2.97637H0.913582V4.67716H0V6.78161V8.66539H0.913582V9.79566H1.82716V11.3027H2.74074V12.0562V12.8097H3.65432V14.3167H4.5679V15.8238H5.48148V17.3308H6.39507V18.8378H7.30864V20.3448H8.22222V21.8518H9.1358V23.3589H10.0494V24.8659H10.963V26.3729H11.8765V27.8799H12.7901V29.387H13.7037V30.894H14.6173V32.401H15.5309V33.908H16.4444V35.4151H17.358V36.9221H18.2716V38.4291H19.1852V39.9361H20.0988V41.4431H21.0123V42.9502H21.9259V44.4572H22.8395V45.9642H23.7531V47.4712H24.6667V48.9783H25.5802V50.4853H26.4938V51.9923H27.4074V53.4993H28.321V55.1392H29.2346V56.8101H30.1481V58.481H31.0617V60.1519H31.9753V61.8228H32.8889V63.076H33.8025V64.3291H34.716V65.1646H35.6296V66H36.5432L37.4568 52.7402L32.8889 47.4713L31.9753 47.4712V45.9642H31.0617V44.4572H30.1481V42.9502H29.2346V41.4431H28.321V39.9361H27.4074V38.4291H26.4938V36.9221H25.5802V35.4151H24.6667V33.908H23.7531V32.401H22.8395V30.894H21.9259V29.387H21.0123V27.8799H20.0988V26.3729H19.1852V24.8659H18.2716V23.3589H17.358V21.8518H16.4444V20.3448H15.5309V18.8378H14.6173V17.3308H13.7037V15.8238H12.7901V14.3167H11.8765V12.8097H10.963V11.3027H10.0494V9.79566H9.1358V8.28863H8.22222V6.78161H36.5432H70.3457H73.0864H74V6.80314V6.0281V4.67716H73.0864V2.97637H72.1728V1.70078H71.2593V0.850392L69 0.891892V0Z" fill="#0098EA"/>
<path d="M33 59.7568L33 7.77245e-05H41V59.7568H33Z" fill="#0098EA"/>
</svg>
