<svg width="20" height="20" viewBox="0 0 20 20" fill="none" xmlns="http://www.w3.org/2000/svg">
<path d="M19.05 5.7125H18.0938V3.80625H17.1437V2.85625H16.1937V1.90625H14.2875V0.95H12.3812V0H7.61875V0.95H5.7125V1.90625H3.8125V2.85625H2.85625V3.80625H1.90625V5.7125H0.95V7.61875H0V12.3812H0.95V14.2875H1.90625V16.1875H2.85625V17.1437H3.8125V18.0938H5.7125V19.05H7.61875V20H12.3812V19.05H14.2875V18.0938H16.1937V17.1437H17.1437V16.1875H18.0938V14.2875H19.05V12.3812H20V7.61875H19.05V5.7125Z" fill="#37EE26" fill-opacity="0.3"/>
<path d="M4.16675 11.1378H5.22482V12.1959H6.2829V13.2539H7.34793V14.319H9.46408V13.2539H10.5291V12.1959H11.5872V11.1378H12.6522V10.0728H13.7103V9.01468H14.7684V7.95661H15.8334V6.89157H14.7684V5.8335H13.7103V6.89157H12.6522V7.95661H11.5872V9.01468H10.5291V10.0728H9.46408V11.1378H7.34793V10.0728H6.2829V9.01468H5.22482V10.0728H4.16675V11.1378Z" fill="#37EE26"/>
<path d="M19.9999 7.61865H19.0499V12.3812H19.9999V7.61865Z" fill="#37EE26"/>
<path d="M19.0501 12.3813H18.0939V14.2876H19.0501V12.3813Z" fill="#37EE26"/>
<path d="M19.0501 5.7124H18.0939V7.61865H19.0501V5.7124Z" fill="#37EE26"/>
<path d="M18.0938 14.2876H17.1438V16.1876H18.0938V14.2876Z" fill="#37EE26"/>
<path d="M18.0938 3.80615H17.1438V5.7124H18.0938V3.80615Z" fill="#37EE26"/>
<path d="M17.1438 16.1877H16.1875V17.144H17.1438V16.1877Z" fill="#37EE26"/>
<path d="M17.1438 2.8562H16.1875V3.8062H17.1438V2.8562Z" fill="#37EE26"/>
<path d="M16.1876 17.1438H14.2876V18.0938H16.1876V17.1438Z" fill="#37EE26"/>
<path d="M16.1876 1.90625H14.2876V2.85625H16.1876V1.90625Z" fill="#37EE26"/>
<path d="M14.2875 18.0938H12.3812V19.05H14.2875V18.0938Z" fill="#37EE26"/>
<path d="M14.2875 0.949951H12.3812V1.9062H14.2875V0.949951Z" fill="#37EE26"/>
<path d="M12.3813 19.05H7.61877V20H12.3813V19.05Z" fill="#37EE26"/>
<path d="M12.3813 0H7.61877V0.95H12.3813V0Z" fill="#37EE26"/>
<path d="M7.61865 18.0938H5.7124V19.05H7.61865V18.0938Z" fill="#37EE26"/>
<path d="M7.61865 0.949951H5.7124V1.9062H7.61865V0.949951Z" fill="#37EE26"/>
<path d="M5.71252 17.1438H3.80627V18.0938H5.71252V17.1438Z" fill="#37EE26"/>
<path d="M5.71252 1.90625H3.80627V2.85625H5.71252V1.90625Z" fill="#37EE26"/>
<path d="M3.8062 16.1877H2.8562V17.144H3.8062V16.1877Z" fill="#37EE26"/>
<path d="M3.8062 2.8562H2.8562V3.8062H3.8062V2.8562Z" fill="#37EE26"/>
<path d="M2.85613 14.2876H1.90613V16.1876H2.85613V14.2876Z" fill="#37EE26"/>
<path d="M2.85613 3.80615H1.90613V5.7124H2.85613V3.80615Z" fill="#37EE26"/>
<path d="M1.90632 12.3813H0.950073V14.2876H1.90632V12.3813Z" fill="#37EE26"/>
<path d="M1.90632 5.7124H0.950073V7.61865H1.90632V5.7124Z" fill="#37EE26"/>
<path d="M0.95 7.61865H0V12.3812H0.95V7.61865Z" fill="#37EE26"/>
</svg>
