<svg width="26" height="17" viewBox="0 0 26 17" fill="none" xmlns="http://www.w3.org/2000/svg">
<path d="M26 1.24341H24.7568V14.861H26V1.24341Z" fill="#000001"/>
<path d="M24.757 14.8608H1.23499V16.0958H24.757V14.8608Z" fill="#000001"/>
<path d="M23.5221 12.3828H22.287V13.6178H23.5221V12.3828Z" fill="#000001"/>
<path d="M23.5221 2.47827H22.287V3.71328H23.5221V2.47827Z" fill="#000001"/>
<path d="M21.0438 6.19131H22.2869V9.90445H21.0438V11.1476H23.5219V4.9563H21.0438V6.19131Z" fill="#000001"/>
<path d="M19.8089 12.3825H16.0958V13.6175H21.0439V11.1475H19.8089V12.3825Z" fill="#000001"/>
<path d="M16.0958 2.47827V3.71328H19.8089V4.95641H21.0439V2.47827H16.0958Z" fill="#000001"/>
<path d="M6.1915 12.3825V11.1475H4.94836V13.6175H9.90464V12.3825H6.1915Z" fill="#000001"/>
<path d="M6.1915 3.71328H9.90464V2.47827H4.94836V4.95641H6.1915V3.71328Z" fill="#000001"/>
<path d="M3.71329 9.90445V6.19131H4.94829V4.9563H2.47015V11.1476H4.94829V9.90445H3.71329Z" fill="#000001"/>
<path d="M3.71329 12.3828H2.47015V13.6178H3.71329V12.3828Z" fill="#000001"/>
<path d="M3.71329 2.47827H2.47015V3.71328H3.71329V2.47827Z" fill="#000001"/>
<path d="M24.757 0H1.23499V1.24313H24.757V0Z" fill="#000001"/>
<path d="M1.23501 1.24341H0V14.861H1.23501V1.24341Z" fill="#000001"/>
<path d="M11.6637 4.03223H10.6593V5.75398H8.93756V6.75835V7.76271H12.668L12.6805 4.03223H11.6637Z" fill="#000001"/>
<path d="M8.93756 9.43769V10.4421H10.6593V12.1638H11.6637H12.668V8.43333L8.93756 8.42085V9.43769Z" fill="#000001"/>
<path d="M14.3365 12.1575H15.3409V10.4357H17.0626V9.43134V8.42699H13.3321L13.3196 12.1575H14.3365Z" fill="#000001"/>
<path d="M17.0626 6.752V5.74765H15.3409V4.02588L14.3365 4.02588H13.3321V7.75636L17.0626 7.76885V6.752Z" fill="#000001"/>
</svg>
