<svg width="50" height="50" viewBox="0 0 50 50" fill="none" xmlns="http://www.w3.org/2000/svg">
<path d="M2.375 19.0469H0V30.9531H2.375V19.0469Z" fill="#FFC107"/>
<path d="M4.76562 30.9531H2.375V35.7188H4.76562V30.9531Z" fill="#FFC107"/>
<path d="M4.76562 14.281H2.375V19.0466H4.76562V14.281Z" fill="#FFC107"/>
<path d="M7.14063 35.719H4.76562V40.469H7.14063V35.719Z" fill="#FFC107"/>
<path d="M7.14063 9.51587H4.76562V14.2815H7.14063V9.51587Z" fill="#FFC107"/>
<path d="M9.53125 40.4685H7.14062V42.8591H9.53125V40.4685Z" fill="#FFC107"/>
<path d="M9.53125 7.14062H7.14062V9.51562H9.53125V7.14062Z" fill="#FFC107"/>
<path d="M14.2812 42.8594H9.53119V45.2344H14.2812V42.8594Z" fill="#FFC107"/>
<path d="M14.2812 4.76562H9.53119V7.14063H14.2812V4.76562Z" fill="#FFC107"/>
<path d="M19.0469 45.2344H14.2812V47.625H19.0469V45.2344Z" fill="#FFC107"/>
<path d="M19.0469 2.375H14.2812V4.76562H19.0469V2.375Z" fill="#FFC107"/>
<path d="M30.9531 47.625H19.0469V50H30.9531V47.625Z" fill="#FFC107"/>
<path d="M30.9531 0H19.0469V2.375H30.9531V0Z" fill="#FFC107"/>
<path d="M35.7188 45.2344H30.9531V47.625H35.7188V45.2344Z" fill="#FFC107"/>
<path d="M35.7188 2.375H30.9531V4.76562H35.7188V2.375Z" fill="#FFC107"/>
<path d="M40.4844 42.8594H35.7188V45.2344H40.4844V42.8594Z" fill="#FFC107"/>
<path d="M40.4844 4.76562H35.7188V7.14063H40.4844V4.76562Z" fill="#FFC107"/>
<path d="M42.8593 40.4685H40.4843V42.8591H42.8593V40.4685Z" fill="#FFC107"/>
<path d="M42.8593 7.14062H40.4843V9.51562H42.8593V7.14062Z" fill="#FFC107"/>
<path d="M45.2344 35.719H42.8594V40.469H45.2344V35.719Z" fill="#FFC107"/>
<path d="M45.2344 9.51587H42.8594V14.2815H45.2344V9.51587Z" fill="#FFC107"/>
<path d="M47.625 30.9531H45.2344V35.7188H47.625V30.9531Z" fill="#FFC107"/>
<path d="M47.625 14.281H45.2344V19.0466H47.625V14.281Z" fill="#FFC107"/>
<path d="M50 19.0469H47.625V30.9531H50V19.0469Z" fill="#FFC107"/>
</svg>
