<svg width="110" height="110" viewBox="0 0 110 110" fill="none" xmlns="http://www.w3.org/2000/svg">
<path d="M104.775 31.4188H99.5156V20.9344H94.2906V15.7094H89.0312V10.4844H78.5813V5.225H68.0969V0H41.9031V5.225H31.4188V10.4844H20.9344V15.7094H15.7094V20.9344H10.4844V31.4188H5.225V41.9031H0V68.0969H5.225V78.5813H10.4844V89.0312H15.7094V94.2906H20.9344V99.5156H31.4188V104.775H41.9031V110H68.0969V104.775H78.5813V99.5156H89.0312V94.2906H94.2906V89.0312H99.5156V78.5813H104.775V68.0969H110V41.9031H104.775V31.4188Z" fill="#E54C34"/>
<path d="M37.2108 78.0343H42.4559V72.7892H47.6667V67.5784H52.8775V62.3676H58.1225V67.5784H63.3333V72.7892H68.5784V78.0343H73.7892V72.7892H79V67.5784H73.7892V62.3676H68.5784V57.1225H63.3333V51.9117H68.5784V46.701H73.7892V41.4559H79V36.2451H73.7892V31H68.5784V36.2451H63.3333V41.4559H58.1225V46.701H52.8775V41.4559H47.6667V36.2451H42.4559V31H37.2108V36.2451H32V41.4559H37.2108V46.701H42.4559V51.9117H47.6667V57.1225H42.4559V62.3676H37.2108V67.5784H32V72.7892H37.2108V78.0343Z" fill="white"/>
<path d="M110 41.9023H104.775V68.0961H110V41.9023Z" fill="#B63824"/>
<path d="M104.775 68.0977H99.5156V78.582H104.775V68.0977Z" fill="#B63824"/>
<path d="M104.775 31.4199H99.5156V41.9043H104.775V31.4199Z" fill="#B63824"/>
<path d="M99.516 78.5801H94.291V89.0301H99.516V78.5801Z" fill="#B63824"/>
<path d="M99.516 20.9336H94.291V31.418H99.516V20.9336Z" fill="#B63824"/>
<path d="M94.2906 89.0312H89.0312V94.2906H94.2906V89.0312Z" fill="#B63824"/>
<path d="M94.2906 15.709H89.0312V20.934H94.2906V15.709Z" fill="#B63824"/>
<path d="M89.0301 94.291H78.5801V99.516H89.0301V94.291Z" fill="#B63824"/>
<path d="M89.0301 10.4844H78.5801V15.7094H89.0301V10.4844Z" fill="#B63824"/>
<path d="M78.582 99.5156H68.0977V104.775H78.582V99.5156Z" fill="#B63824"/>
<path d="M78.582 5.22461H68.0977V10.484H78.582V5.22461Z" fill="#B63824"/>
<path d="M68.0961 104.775H41.9023V110H68.0961V104.775Z" fill="#B63824"/>
<path d="M68.0961 0H41.9023V5.225H68.0961V0Z" fill="#B63824"/>
<path d="M41.9043 99.5156H31.4199V104.775H41.9043V99.5156Z" fill="#B63824"/>
<path d="M41.9043 5.22461H31.4199V10.484H41.9043V5.22461Z" fill="#B63824"/>
<path d="M31.418 94.291H20.9336V99.516H31.418V94.291Z" fill="#B63824"/>
<path d="M31.418 10.4844H20.9336V15.7094H31.418V10.4844Z" fill="#B63824"/>
<path d="M20.934 89.0312H15.709V94.2906H20.934V89.0312Z" fill="#B63824"/>
<path d="M20.934 15.709H15.709V20.934H20.934V15.709Z" fill="#B63824"/>
<path d="M15.7094 78.5801H10.4844V89.0301H15.7094V78.5801Z" fill="#B63824"/>
<path d="M15.7094 20.9336H10.4844V31.418H15.7094V20.9336Z" fill="#B63824"/>
<path d="M10.484 68.0977H5.22461V78.582H10.484V68.0977Z" fill="#B63824"/>
<path d="M10.484 31.4199H5.22461V41.9043H10.484V31.4199Z" fill="#B63824"/>
<path d="M5.225 41.9023H0V68.0961H5.225V41.9023Z" fill="#B63824"/>
</svg>
