<svg width="100" height="112" viewBox="0 0 100 112" fill="none" xmlns="http://www.w3.org/2000/svg">
<path d="M83.3398 49.9863V66.6838H100.001V49.9863H83.3398ZM94.4593 61.1058H88.8813V55.5643H94.4775L94.4593 61.1058Z" fill="white"/>
<path d="M88.881 83.3398H72.2383V100.001H88.8993L88.881 83.3398ZM83.3395 94.4228H77.798V88.8813H83.3395V94.4228Z" fill="white"/>
<path d="M94.4777 38.9035V11.123H66.6973V38.9035H94.4777ZM72.2388 16.6646H88.8997V33.3255H72.2388V16.6646Z" fill="white"/>
<path d="M61.1034 0L33.3594 0V27.7804H61.1034V0ZM55.5618 22.2025H38.9009V5.5415L55.5618 5.5415V22.2025Z" fill="white"/>
<path d="M55.5614 94.4258H38.9004V111.123H55.5614V94.4258Z" fill="white"/>
<path d="M22.2371 83.3398H5.57617L5.57617 100.001H22.2371V83.3398Z" fill="white"/>
<path d="M16.6646 22.2012H11.123V27.7791H16.6646V22.2012Z" fill="white"/>
<path d="M5.57796 55.5625H0L0 61.104H5.57796V55.5625Z" fill="white"/>
</svg>
