<svg width="128" height="128" viewBox="0 0 128 128" fill="none" xmlns="http://www.w3.org/2000/svg">
<path d="M121.91 36.557H115.79V24.358H109.711V18.2785H103.591V12.199H91.4325V6.0795H79.2335V0H48.756V6.0795H36.557V12.199H24.358V18.2785H18.2785V24.358H12.199V36.557H6.0795V48.756H0V79.2335H6.0795V91.4325H12.199V103.591H18.2785V109.711H24.358V115.79H36.557V121.91H48.756V127.989H79.2335V121.91H91.4325V115.79H103.591V109.711H109.711V103.591H115.79V91.4325H121.91V79.2335H127.989V48.756H121.91V36.557Z" fill="#FFCC34"/>
<path d="M128.003 48.7598H121.924V79.2373H128.003V48.7598Z" fill="#41210A"/>
<path d="M121.912 79.2344H115.793V91.4334H121.912V79.2344Z" fill="#41210A"/>
<path d="M121.912 36.5586H115.793V48.7576H121.912V36.5586Z" fill="#41210A"/>
<path d="M115.788 91.4355H109.709V103.595H115.788V91.4355Z" fill="#41210A"/>
<path d="M115.788 24.3555H109.709V36.5545H115.788V24.3555Z" fill="#41210A"/>
<path d="M109.709 103.59H103.59V109.709H109.709V103.59Z" fill="#41210A"/>
<path d="M109.709 18.2734H103.59V24.3529H109.709V18.2734Z" fill="#41210A"/>
<path d="M103.595 109.709H91.4355V115.788H103.595V109.709Z" fill="#41210A"/>
<path d="M103.595 12.1895H91.4355V18.269H103.595V12.1895Z" fill="#41210A"/>
<path d="M91.4334 115.793H79.2344V121.912H91.4334V115.793Z" fill="#41210A"/>
<path d="M91.4334 6.07031H79.2344V12.1898H91.4334V6.07031Z" fill="#41210A"/>
<path d="M79.2341 6.0957H60.9492V12.1907H79.2341V6.0957Z" fill="#FFB400"/>
<path d="M91.4251 18.2852H85.3301V24.3801H91.4251V18.2852Z" fill="#FFB400"/>
<path d="M79.2356 12.1895H73.1406V18.2844H79.2356V12.1895Z" fill="#FFB400"/>
<path d="M103.615 24.3809H97.5195V30.4758H103.615V24.3809Z" fill="#FFB400"/>
<path d="M109.71 36.5703H103.615V42.6653H109.71V36.5703Z" fill="#FFB400"/>
<path d="M115.804 48.7598H109.709V54.8547H115.804V48.7598Z" fill="#FFB400"/>
<path d="M91.4243 12.1895H79.2344V18.2844H91.4243V12.1895Z" fill="#FFB400"/>
<path d="M103.614 18.2852H91.4238V24.3801H103.614V18.2852Z" fill="#FFB400"/>
<path d="M109.71 24.3809H103.615V36.5708H109.71V24.3809Z" fill="#FFB400"/>
<path d="M115.804 36.5703H109.709V48.7603H115.804V36.5703Z" fill="#FFB400"/>
<path d="M115.804 79.2344H109.709V91.4243H115.804V79.2344Z" fill="#FFB400"/>
<path d="M109.71 97.5195H103.615V103.615H109.71V97.5195Z" fill="#FFB400"/>
<path d="M103.614 103.615H91.4238V109.71H103.614V103.615Z" fill="#FFB400"/>
<path d="M91.4251 109.709H85.3301V115.804H91.4251V109.709Z" fill="#FFB400"/>
<path d="M121.9 48.7598H115.805V79.2346H121.9V48.7598Z" fill="#FFB400"/>
<path d="M79.2373 121.924H48.7598V128.003H79.2373V121.924Z" fill="#41210A"/>
<path d="M79.2373 0H48.7598V6.0795H79.2373V0Z" fill="#41210A"/>
<path d="M48.7576 115.793H36.5586V121.912H48.7576V115.793Z" fill="#41210A"/>
<path d="M48.7576 6.07031H36.5586V12.1898H48.7576V6.07031Z" fill="#41210A"/>
<path d="M36.5545 109.709H24.3555V115.788H36.5545V109.709Z" fill="#41210A"/>
<path d="M36.5545 12.1895H24.3555V18.269H36.5545V12.1895Z" fill="#41210A"/>
<path d="M24.3529 103.59H18.2734V109.709H24.3529V103.59Z" fill="#41210A"/>
<path d="M24.3529 18.2734H18.2734V24.3529H24.3529V18.2734Z" fill="#41210A"/>
<path d="M18.269 91.4355H12.1895V103.595H18.269V91.4355Z" fill="#41210A"/>
<path d="M18.269 24.3555H12.1895V36.5545H18.269V24.3555Z" fill="#41210A"/>
<path d="M12.1898 79.2344H6.07031V91.4334H12.1898V79.2344Z" fill="#41210A"/>
<path d="M12.1898 36.5586H6.07031V48.7576H12.1898V36.5586Z" fill="#41210A"/>
<path d="M6.0795 48.7598H0V79.2373H6.0795V48.7598Z" fill="#41210A"/>
<rect x="42.6641" y="36.5703" width="12.1899" height="24.3799" fill="#41210A"/>
<rect x="48.7598" y="73.1406" width="30.4749" height="6.09497" fill="#41210A"/>
<rect x="36.5703" y="79.2344" width="12.1899" height="6.09497" fill="#41210A"/>
<rect x="79.2344" y="79.2344" width="12.1899" height="6.09497" fill="#41210A"/>
<rect x="91.4238" y="85.3301" width="6.09497" height="6.09497" fill="#41210A"/>
<rect x="30.4746" y="85.3301" width="6.09497" height="6.09497" fill="#41210A"/>
<rect x="73.1406" y="36.5703" width="12.1899" height="24.3799" fill="#41210A"/>
<rect x="24.3809" y="18.2852" width="6.09497" height="12.1899" fill="#FED674"/>
<rect x="18.2852" y="24.3809" width="6.09497" height="18.2849" fill="#FED674"/>
<rect x="12.1895" y="36.5703" width="6.09497" height="18.2849" fill="#FED674"/>
<rect x="6.0957" y="48.7598" width="6.09497" height="18.2849" fill="#FED674"/>
</svg>
