<svg width="20" height="13" viewBox="0 0 20 13" fill="none" xmlns="http://www.w3.org/2000/svg">
<path d="M19.9998 0.956299H19.0436V11.4313H19.9998V0.956299Z" fill="#FFD700"/>
<path d="M19.0437 11.4314H0.949951V12.3814H19.0437V11.4314Z" fill="#FFD700"/>
<path d="M18.0938 9.52515H17.1438V10.4751H18.0938V9.52515Z" fill="#FFD700"/>
<path d="M18.0938 1.90625H17.1438V2.85625H18.0938V1.90625Z" fill="#FFD700"/>
<path d="M16.1874 4.7625H17.1436V7.61875H16.1874V8.575H18.0936V3.8125H16.1874V4.7625Z" fill="#FFD700"/>
<path d="M15.2375 9.52495H12.3812V10.475H16.1875V8.57495H15.2375V9.52495Z" fill="#FFD700"/>
<path d="M12.3812 1.90625V2.85625H15.2375V3.8125H16.1875V1.90625H12.3812Z" fill="#FFD700"/>
<path d="M4.76265 9.52495V8.57495H3.8064V10.475H7.6189V9.52495H4.76265Z" fill="#FFD700"/>
<path d="M4.76265 2.85625H7.6189V1.90625H3.8064V3.8125H4.76265V2.85625Z" fill="#FFD700"/>
<path d="M2.85627 7.61875V4.7625H3.80627V3.8125H1.90002V8.575H3.80627V7.61875H2.85627Z" fill="#FFD700"/>
<path d="M2.85627 9.52515H1.90002V10.4751H2.85627V9.52515Z" fill="#FFD700"/>
<path d="M2.85627 1.90625H1.90002V2.85625H2.85627V1.90625Z" fill="#FFD700"/>
<path d="M19.0437 0H0.949951V0.95625H19.0437V0Z" fill="#FFD700"/>
<path d="M0.95 0.956299H0V11.4313H0.95V0.956299Z" fill="#FFD700"/>
<path d="M8.97201 3.10181H8.19943V4.42622H6.875V5.19882V5.97139H9.74459L9.75419 3.10181H8.97201Z" fill="#FFD700"/>
<path d="M6.875 7.25968V8.03226H8.19942V9.35669H8.97201H9.74459V6.4871L6.875 6.4775V7.25968Z" fill="#FFD700"/>
<path d="M11.028 9.35181H11.8006V8.02739H13.125V7.2548V6.48222H10.2554L10.2458 9.35181H11.028Z" fill="#FFD700"/>
<path d="M13.125 5.19393V4.42135H11.8006V3.09692H11.028H10.2554V5.96651L13.125 5.97612V5.19393Z" fill="#FFD700"/>
</svg>
