<svg width="16" height="16" viewBox="0 0 16 16" fill="none" xmlns="http://www.w3.org/2000/svg">
<path d="M16 9.90497V6.09497H14.5V4.75L12.5 1.75L9 1.5H4.75L0.75 6.5V9.90497V10L7.61209 9.90497H16Z" fill="#0098EA"/>
<path d="M15.235 9.90503H14.475V11.43H15.235V9.90503Z" fill="#0098EA"/>
<path d="M15.235 4.57007H14.3231L14.475 6.09507H15.235V4.57007Z" fill="#0098EA"/>
<path d="M14.475 11.43L9.5 11L7.75 12.75L13.715 12.95H14.475V11.43Z" fill="#0098EA"/>
<path d="M14.475 3.04999H13.715L13 2.75L13.715 4.56999H14.475V3.04999Z" fill="#0098EA"/>
<path d="M13.715 12.95H12.95V13.715H13.715V12.95Z" fill="#0098EA"/>
<path d="M13.715 2.28497H12.95L11.25 2V1.25H9.25L12.95 3.04997H13.715V2.28497Z" fill="#0098EA"/>
<path d="M12.95 13.3571L9.5 13.5V14.5L12.95 14.475V13.3571Z" fill="#0098EA"/>
<path d="M12.95 1.52502H11.425L11 1.5L11.425 2.28502H12.95V1.52502Z" fill="#0098EA"/>
<path d="M11.425 14.475H9.90497V15.24H11.425V14.475Z" fill="#0098EA"/>
<path d="M11.425 0.76001H9.90497V1.52501H11.425V0.76001Z" fill="#0098EA"/>
<path d="M9.90503 15.24H6.09503V16H9.90503V15.24Z" fill="#0098EA"/>
<path d="M9.90503 0H6.09503V15.25H9.90503V0Z" fill="#0098EA"/>
<path d="M6.09501 14.475H4.57001V15.24H6.09501V14.475Z" fill="#0098EA"/>
<path d="M6.09501 0.76001H4.57001V1.52501H6.09501V0.76001Z" fill="#0098EA"/>
<path d="M11.5 13.7499L3.04504 13.5275V14.475H4.57004H11.5V13.7499Z" fill="#0098EA"/>
<path d="M4.57001 1.52502H3.04501V2.28502L3 4.75L4.57001 2.28502L5.5 1.25L4.57001 1.52502Z" fill="#0098EA"/>
<path d="M13.5 12.75L2.28503 12.95V13.715L13.5 13.5V12.75Z" fill="#0098EA"/>
<path d="M3.04503 2.28491H2.28503V3.04991H3.04503V2.28491Z" fill="#0098EA"/>
<path d="M13.75 11.4999L1.52502 11.4299V12.9499H13.75V11.4999Z" fill="#0098EA"/>
<path d="M2.28502 3.04999H1.52502V4.56999V6.75L2.28502 4.56999L4.00003 3L2.28502 3.04999Z" fill="#0098EA"/>
<path d="M14.75 9.25L0.76001 9.90503V11.43H2.25L3.25 12.25L14.5 11.43L14.75 9.25Z" fill="#0098EA"/>
<path d="M1.52501 4.57007H0.76001V6.09507H1.52501V4.57007Z" fill="#0098EA"/>
<path d="M0.76 6.09497H0V9.90497H0.76L3 6L0.76 6.09497Z" fill="#0098EA"/>
<path d="M3.7838 4.80005H12.1514V4.91037H12.4445V5.02069H12.563V5.18617H12.6815V5.40681H12.8V5.67982V5.92421H12.6815V6.07084H12.563V6.26634H12.4445V6.3641V6.46185H12.3259V6.65735H12.2074V6.85286H12.0889V7.04837H11.9704V7.24387H11.8519V7.43938H11.7333V7.63488H11.6148V7.83039H11.4963V8.02589H11.3778V8.2214H11.2593V8.41691H11.1408V8.61241H11.0222V8.80792H10.9037V9.00342H10.7852V9.19893H10.6667V9.39443H10.5482V9.58994H10.4296V9.78545H10.3111V9.98095H10.1926V10.1765H10.0741V10.372H9.95557V10.5675H9.83705V10.763H9.71853V10.9585H9.60001V11.154H9.48149V11.3495H9.36298V11.545H9.24446V11.7405H9.12594V11.9532H9.00742V12.17H8.8889V12.3868H8.77038V12.6035H8.65186V12.8203H8.53335V12.9829H8.41483V13.1454H8.29631V13.2538H8.17779V13.3622H7.94075V11.7504L8.53335 10.9585L8.65186 10.9585V10.763H8.77038V10.5675H8.8889V10.372H9.00742V10.1765H9.12594V9.98095H9.24446V9.78545H9.36298V9.58994H9.48149V9.39443H9.60001V9.19893H9.71853V9.00342H9.83705V8.80792H9.95557V8.61241H10.0741V8.41691H10.1926V8.2214H10.3111V8.02589H10.4296V7.83039H10.5482V7.63488H10.6667V7.43938H10.7852V7.24387H10.9037V7.04837H11.0222V6.85286H11.1408V6.65735H11.2593V6.46185H11.3778V6.26634H11.4963V6.07084H11.6148V5.87533H11.7333V5.67982H8.05927H3.67409H3.31853H3.20001V5.68262V5.58207V5.40681H3.31853V5.18617H3.43705V5.02069H3.55557V4.91037L3.7838 4.91575V4.80005Z" fill="white"/>
<path d="M12.1513 4.80005H3.78377V4.91037H3.55554V5.02069H3.43703V5.18617H3.31851V5.40681H3.19999V5.67982V5.92421H3.31851V6.07084H3.43703V6.26634H3.55554V6.3641V6.46185H3.67406V6.65735H3.79258V6.85286H3.9111V7.04837H4.02962V7.24387H4.14814V7.43938H4.26665V7.63488H4.38517V7.83039H4.50369V8.02589H4.62221V8.2214H4.74073V8.41691H4.85925V8.61241H4.97777V8.80792H5.09628V9.00342H5.2148V9.19893H5.33332V9.39443H5.45184V9.58994H5.57036V9.78545H5.68888V9.98095H5.80739V10.1765H5.92591V10.372H6.04443V10.5675H6.16295V10.763H6.28147V10.9585H6.39999V11.154H6.51851V11.3495H6.63702V11.545H6.75554V11.7405H6.87406V11.9532H6.99258V12.17H7.1111V12.3868H7.22962V12.6035H7.34814V12.8203H7.46665V12.9829H7.58517V13.1454H7.70369V13.2538H7.82221V13.3622H7.94073L8.05925 11.642L7.46665 10.9585L7.34814 10.9585V10.763H7.22962V10.5675H7.1111V10.372H6.99258V10.1765H6.87406V9.98095H6.75554V9.78545H6.63702V9.58994H6.51851V9.39443H6.39999V9.19893H6.28147V9.00342H6.16295V8.80792H6.04443V8.61241H5.92591V8.41691H5.80739V8.2214H5.68888V8.02589H5.57036V7.83039H5.45184V7.63488H5.33332V7.43938H5.2148V7.24387H5.09628V7.04837H4.97777V6.85286H4.85925V6.65735H4.74073V6.46185H4.62221V6.26634H4.50369V6.07084H4.38517V5.87533H4.26665V5.67982H7.94073H12.3259H12.6815H12.8V5.68262V5.58207V5.40681H12.6815V5.18617H12.563V5.02069H12.4444V4.91037L12.1513 4.91575V4.80005Z" fill="white"/>
<path d="M7.48108 12.5522L7.48108 4.80002H8.51892V12.5522H7.48108Z" fill="white"/>
</svg>
