<svg width="102" height="102" viewBox="0 0 102 102" fill="none" xmlns="http://www.w3.org/2000/svg">
<path d="M96.75 77.1875V76.6875H96.25H91.9688V67.6562V67.1562H91.4688H87.2188V58.1563V57.6563H86.7188H82.4375V48.625V48.125H81.9375H77.6875V39.0938V38.5938H77.1875H72.9375V29.5625V29.0625H72.4375H68.1562V20.0312V19.5312H67.6562H63.4062V10.5312V10.0312H62.9062H58.6563V5.75V5.25H58.1563H53.875V1V0.5H53.375H48.625H48.125V1V5.25H43.8438H43.3438V5.75V10.0312H39.0938H38.5938V10.5312V19.5312H34.3438H33.8438V20.0312V29.0625H29.5625H29.0625V29.5625V38.5938H24.8125H24.3125V39.0938V48.125H20.0312H19.5312V48.625V57.6563H15.2813H14.7813V58.1563V67.1562H10.5312H10.0312V67.6562V76.6875H5.75H5.25V77.1875V86.2188H1H0.5V86.7188V96.25V96.75H1H5.25V101V101.5H5.75H96.25H96.75V101V96.75H101H101.5V96.25V86.7188V86.2188H101H96.75V77.1875ZM62.4062 72.9375V86.2188H58.1563H57.6563V86.7188V90.9688H44.3438V86.7188V86.2188H43.8438H39.5938V72.9375H43.8438H44.3438V72.4375V68.1562H57.6563V72.4375V72.9375H58.1563H62.4062ZM58.1563 34.8438H62.4062V52.875H58.1563H57.6563V53.375V62.4062H44.3438V53.375V52.875H43.8438H39.5938V34.8438H43.8438H44.3438V34.3438V30.0625H57.6563V34.3438V34.8438H58.1563Z" fill="#FFCC34" stroke="#AA8000"/>
<path d="M58.1563 67.6875H43.8438V72.4688H39.0938V86.75H43.8438V91.5H58.1563V86.75H62.9062V72.4688H58.1563V67.6875Z" fill="#41210A"/>
<path d="M58.1563 29.5957H43.8438V34.377H39.0938V53.4082H43.8438V62.9394H58.1563V53.4082H62.9062V34.377H58.1563V29.5957ZM58.1563 48.6582H53.375V39.127H48.625V34.377H53.375V39.127H58.1563V48.6582Z" fill="#41210A"/>
<path d="M58.1543 39.0938H53.373V48.625H58.1543V39.0938Z" fill="#FFE057"/>
<path d="M53.377 34.3418H48.627V39.0918H53.377V34.3418Z" fill="#FFE057"/>
</svg>
