<svg width="200" height="92" viewBox="0 0 200 92" fill="none" xmlns="http://www.w3.org/2000/svg">
<path d="M33.3333 55.5556H44.4444V62.963H51.8519V66.6667V70.3704H70.3704V66.6667V59.2593H62.963V48.1481H55.5556V40.7407H62.963V33.3333H70.3704H74.0741H77.7778V29.6296V25.9259H51.8519V14.8148H44.4444V7.40741V3.7037H40.7407H37.037H33.3333V14.8148H25.9259V22.2222V25.9259H3.7037H0V33.3333H3.7037H7.40741H11.1111H14.8148V40.7407H22.2222V48.1481H14.8148V55.5556V59.2593H7.40741V66.6667H11.1111V62.963V59.2593V55.5556H18.5185V51.8519V48.1481V44.4444V40.7407V37.037H14.8148H7.40741V29.6296H3.7037V22.2222H29.6296V18.5185V14.8148V7.40741H33.3333H37.037V0H40.7407V7.40741H48.1481V14.8148V22.2222H51.8519H74.0741V25.9259V29.6296H70.3704V37.037H66.6667H62.963H59.2593V40.7407V44.4444V48.1481V55.5556H62.963H66.6667V59.2593V66.6667H55.5556H48.1481V62.963V59.2593H44.4444H33.3333H29.6296V62.963V66.6667H7.40741V70.3704H25.9259V66.6667V62.963H33.3333V55.5556Z" fill="black"/>
<rect x="37.037" y="51.8518" width="3.7037" height="3.7037" fill="#DE3E24"/>
<path d="M40.7407 51.8519V48.1482H37.037V55.5556H33.3333H29.6296V62.963H25.9259H22.2222V66.6667H25.9259V59.2593H29.6296H33.3333V51.8519H37.037H44.4445V59.2593H48.1482H51.8519V66.6667H55.5556V62.963H51.8519H48.1482V55.5556H44.4445H40.7407V51.8519Z" fill="#F66905"/>
<path d="M40.7408 48.1483V44.4446H37.0371V51.852H33.3334H29.6297V59.2594H25.926H22.2223V66.6668H18.5186V62.9631H22.2223H25.926V55.5557H29.6297H33.3334V48.1483H37.0371H44.4445V55.5557H48.1482H51.8519V62.9631H55.5556H59.2593V66.6668H55.5556V59.2594H51.8519H48.1482V51.852H44.4445H40.7408V48.1483Z" fill="#F6A11C"/>
<path d="M62.9629 59.2592H66.6667V66.6666H62.9629H59.2592V62.9629V59.2592H51.8518V55.5555V51.8518H48.1481V55.5555H55.5555V59.2592V62.9629H62.9629V59.2592Z" fill="#FFD444"/>
<path d="M14.8148 59.2592H11.1111V66.6666H14.8148H18.5185V62.9629V59.2592H25.9259V55.5555V51.8518H29.6296V55.5555H22.2222V59.2592V62.9629H14.8148V59.2592Z" fill="#FFD444"/>
<path d="M59.2593 55.5553H62.963V62.9627H59.2593V59.259H55.5556V55.5553H51.8519V51.8516H44.4445V48.1479H40.7408V44.4442V40.7405H37.0371V48.1479H33.3334V51.8516H25.926V55.5553H22.2223V59.259H18.5186V62.9627H14.8149V55.5553H18.5186V51.8516H22.2223V48.1479H29.6297V44.4442H33.3334H37.0371H48.1482V48.1479H51.8519H55.5556V51.8516H59.2593V55.5553Z" fill="#FEFC41"/>
<rect x="55.5556" y="48.1482" width="3.7037" height="3.7037" fill="#FC9F1A"/>
<rect x="18.5186" y="48.1482" width="3.7037" height="3.7037" fill="#FC9F1A"/>
<rect x="22.2222" y="44.4446" width="3.7037" height="3.7037" fill="#FC9F1A"/>
<path d="M22.2223 37.037V33.3333H11.1111V29.6296H14.8148V33.3333V37.037H25.926V40.7407H22.2223V37.037Z" fill="#FC9F1A"/>
<path d="M55.5556 37.037V33.3333H66.6667V29.6296H62.963V33.3333V37.037H51.8519V40.7407H55.5556V37.037Z" fill="#FC9F1A"/>
<rect x="51.8519" y="44.4446" width="3.7037" height="3.7037" fill="#FC9F1A"/>
<path d="M48.1482 44.4444V40.7407H44.4445V33.3333H33.3333L44.4445 29.6296V25.9259H40.7407V11.1111H37.037V25.9259H35.1852H33.3333V29.6296H55.5556H59.2593V25.9259H55.5556V33.3333H44.4445H33.3333H22.2222V29.6296H33.3333H44.4445L33.3333 33.3333V40.7407H29.6296V44.4444H25.9259V48.1481H29.6296V44.4444H37.037V40.7407H40.7407V44.4444H51.8519V48.1481H48.1482V44.4444Z" fill="white"/>
<path d="M48.1481 40.7407H44.4444V37.037H55.5555V33.3333H51.8518V37.037V40.7407V44.4444H48.1481V40.7407Z" fill="#FFD444"/>
<path d="M25.9259 40.7407V37.037V33.3333H22.2222V37.037H33.3333V40.7407H29.6296V44.4444H25.9259V40.7407Z" fill="#FFD444"/>
<path d="M51.8519 40.7408H59.2593V37.0371H55.5556V40.7408V44.4445H51.8519V40.7408Z" fill="#F66905"/>
<rect x="7.40741" y="29.6296" width="3.7037" height="3.7037" fill="#F66905"/>
<rect x="66.6667" y="29.6296" width="3.7037" height="3.7037" fill="#F66905"/>
<rect x="3.7037" y="25.9258" width="3.7037" height="3.7037" fill="#FC9F1A"/>
<rect x="70.3704" y="25.9258" width="3.7037" height="3.7037" fill="#FC9F1A"/>
<path d="M22.2223 40.7408V37.0371H18.5186V40.7408H25.926V44.4445H22.2223V40.7408Z" fill="#F66905"/>
<rect x="14.8149" y="29.6296" width="3.7037" height="3.7037" fill="#FFD444"/>
<path d="M22.2222 25.9261H29.6296H33.3333V22.2224H29.6296V29.6298H22.2222V25.9261Z" fill="#FFD444"/>
<path d="M55.5556 25.9261H48.1482H44.4445V22.2224H48.1482V29.6298H55.5556V25.9261Z" fill="#FFD444"/>
<rect x="59.2593" y="29.6296" width="3.7037" height="3.7037" fill="#FFD444"/>
<rect x="7.40741" y="25.9258" width="3.7037" height="3.7037" fill="#FFD444"/>
<rect x="66.6667" y="25.9258" width="3.7037" height="3.7037" fill="#FFD444"/>
<path d="M18.5186 25.9258V29.6295H22.2223V33.3332H18.5186V29.6295H11.1111V25.9258H18.5186Z" fill="#FEFC41"/>
<path d="M59.2593 25.9258V29.6295H55.5556V33.3332H59.2593V29.6295H66.6667V25.9258H59.2593Z" fill="#FEFC41"/>
<rect x="18.5186" y="25.9258" width="3.7037" height="3.7037" fill="white"/>
<rect x="25.9258" y="33.3333" width="7.40741" height="3.7037" fill="#FEFC41"/>
<rect x="44.4444" y="33.3333" width="7.40741" height="3.7037" fill="#FEFC41"/>
<path d="M25.9258 22.222H29.6295H33.3332V18.5183H29.6295V25.9257H25.9258V22.222Z" fill="#FC9F1A"/>
<path d="M51.8519 22.222H48.1482H44.4445V18.5183H48.1482V25.9257H51.8519V22.222Z" fill="#FC9F1A"/>
<rect x="29.6296" y="14.8147" width="3.7037" height="3.7037" fill="#F66905"/>
<rect x="44.4444" y="14.8147" width="3.7037" height="3.7037" fill="#F66905"/>
<path d="M37.037 3.70337H40.7407V7.40707V11.1108H44.4444V7.40707H37.037H33.3333V11.1108H37.037V7.40707V3.70337Z" fill="#FC9F1A"/>
<rect x="40.7407" y="11.1111" width="3.7037" height="3.7037" fill="#FFD444"/>
<rect x="33.3333" y="11.1111" width="3.7037" height="3.7037" fill="#FFD444"/>
<rect x="37.037" y="7.40747" width="3.7037" height="3.7037" fill="#FEFC41"/>
<path d="M40.7407 14.8147H44.4444V22.2221V25.9258V29.6295H48.1481V25.9258H40.7407V22.2221V14.8147Z" fill="#FEFC41"/>
<path d="M33.3333 14.8147H37.037V22.2221V25.9258H29.6296V29.6295H33.3333V25.9258V22.2221V14.8147Z" fill="#FEFC41"/>
<path d="M155.556 55.5556H166.667V62.963H174.074V66.6667V70.3704H192.593V66.6667V59.2593H185.185V48.1481H177.778V40.7407H185.185V33.3333H192.593H196.296H200V29.6296V25.9259H174.074V14.8148H166.667V7.40741V3.7037H162.963H159.259H155.556V14.8148H148.148V22.2222V25.9259H125.926H122.222V33.3333H125.926H129.63H133.333H137.037V40.7407H144.444V48.1481H137.037V55.5556V59.2593H129.63V66.6667H133.333V62.963V59.2593V55.5556H140.741V51.8519V48.1481V44.4444V40.7407V37.037H137.037H129.63V29.6296H125.926V22.2222H151.852V18.5185V14.8148V7.40741H155.556H159.259V0H162.963V7.40741H170.37V14.8148V22.2222H174.074H196.296V25.9259V29.6296H192.593V37.037H188.889H185.185H181.481V40.7407V44.4444V48.1481V55.5556H185.185H188.889V59.2593V66.6667H177.778H170.37V62.963V59.2593H166.667H155.556H151.852V62.963V66.6667H129.63V70.3704H148.148V66.6667V62.963H155.556V55.5556Z" fill="black"/>
<rect x="159.259" y="51.8518" width="3.7037" height="3.7037" fill="#121212"/>
<path d="M162.963 51.8519V48.1482H159.259V55.5556H155.556H151.852V62.963H148.148H144.444V66.6667H148.148V59.2593H151.852H155.556V51.8519H159.259H166.667V59.2593H170.37H174.074V66.6667H177.778V62.963H174.074H170.37V55.5556H166.667H162.963V51.8519Z" fill="#1E1E1E"/>
<path d="M162.963 48.1483V44.4446H159.259V51.852H155.556H151.852V59.2594H148.148H144.444V66.6668H140.741V62.9631H144.444H148.148V55.5557H151.852H155.556V48.1483H159.259H166.667V55.5557H170.37H174.074V62.9631H177.778H181.481V66.6668H177.778V59.2594H174.074H170.37V51.852H166.667H162.963V48.1483Z" fill="#1E1E1E"/>
<path d="M185.185 59.2592H188.889V66.6666H185.185H181.482V62.9629V59.2592H174.074V55.5555V51.8518H170.37V55.5555H177.778V59.2592V62.9629H185.185V59.2592Z" fill="#282828"/>
<path d="M137.037 59.2592H133.333V66.6666H137.037H140.741V62.9629V59.2592H148.148V55.5555V51.8518H151.852V55.5555H144.444V59.2592V62.9629H137.037V59.2592Z" fill="#282828"/>
<path d="M181.481 55.5553H185.185V62.9627H181.481V59.259H177.778V55.5553H174.074V51.8516H166.667V48.1479H162.963V44.4442V40.7405H159.259V48.1479H155.556V51.8516H148.148V55.5553H144.444V59.259H140.741V62.9627H137.037V55.5553H140.741V51.8516H144.444V48.1479H151.852V44.4442H155.556H159.259H170.37V48.1479H174.074H177.778V51.8516H181.481V55.5553Z" fill="#393939"/>
<rect x="177.778" y="48.1482" width="3.7037" height="3.7037" fill="#282828"/>
<rect x="140.741" y="48.1482" width="3.7037" height="3.7037" fill="#282828"/>
<rect x="144.444" y="44.4446" width="3.7037" height="3.7037" fill="#282828"/>
<path d="M144.444 37.037V33.3333H133.333V29.6296H137.037V33.3333V37.037H148.148V40.7407H144.444V37.037Z" fill="#282828"/>
<path d="M177.778 37.037V33.3333H188.889V29.6296H185.185V33.3333V37.037H174.074V40.7407H177.778V37.037Z" fill="#282828"/>
<rect x="174.074" y="44.4446" width="3.7037" height="3.7037" fill="#282828"/>
<path d="M170.37 44.4444V40.7407H166.667V33.3333H155.556L166.667 29.6296V25.9259H162.963V11.1111H159.259V25.9259H157.407H155.556V29.6296H177.778H181.481V25.9259H177.778V33.3333H166.667H155.556H144.444V29.6296H155.556H166.667L155.556 33.3333V40.7407H151.852V44.4444H148.148V48.1481H151.852V44.4444H159.259V40.7407H162.963V44.4444H174.074V48.1481H170.37V44.4444Z" fill="#565656"/>
<path d="M170.37 40.7407H166.667V37.037H177.778V33.3333H174.074V37.037V40.7407V44.4444H170.37V40.7407Z" fill="#282828"/>
<path d="M148.148 40.7407V37.037V33.3333H144.444V37.037H155.556V40.7407H151.852V44.4444H148.148V40.7407Z" fill="#282828"/>
<path d="M174.074 40.7408H181.481V37.0371H177.778V40.7408V44.4445H174.074V40.7408Z" fill="#1E1E1E"/>
<rect x="129.63" y="29.6296" width="3.7037" height="3.7037" fill="#1E1E1E"/>
<rect x="188.889" y="29.6296" width="3.7037" height="3.7037" fill="#1E1E1E"/>
<rect x="125.926" y="25.9258" width="3.7037" height="3.7037" fill="#282828"/>
<rect x="192.593" y="25.9258" width="3.7037" height="3.7037" fill="#282828"/>
<path d="M144.444 40.7408V37.0371H140.741V40.7408H148.148V44.4445H144.444V40.7408Z" fill="#1E1E1E"/>
<rect x="137.037" y="29.6296" width="3.7037" height="3.7037" fill="#282828"/>
<path d="M144.444 25.9261H151.852H155.556V22.2224H151.852V29.6298H144.444V25.9261Z" fill="#282828"/>
<path d="M177.778 25.9261H170.37H166.667V22.2224H170.37V29.6298H177.778V25.9261Z" fill="#282828"/>
<rect x="181.481" y="29.6296" width="3.7037" height="3.7037" fill="#282828"/>
<rect x="129.63" y="25.9258" width="3.7037" height="3.7037" fill="#282828"/>
<rect x="188.889" y="25.9258" width="3.7037" height="3.7037" fill="#282828"/>
<path d="M140.741 25.9258V29.6295H144.444V33.3332H140.741V29.6295H133.333V25.9258H140.741Z" fill="#393939"/>
<path d="M181.481 25.9258V29.6295H177.778V33.3332H181.481V29.6295H188.889V25.9258H181.481Z" fill="#393939"/>
<rect x="140.741" y="25.9258" width="3.7037" height="3.7037" fill="#565656"/>
<rect x="148.148" y="33.3333" width="7.40741" height="3.7037" fill="#393939"/>
<rect x="166.667" y="33.3333" width="7.40741" height="3.7037" fill="#393939"/>
<path d="M148.148 22.222H151.852H155.556V18.5183H151.852V25.9257H148.148V22.222Z" fill="#282828"/>
<path d="M174.074 22.222H170.37H166.667V18.5183H170.37V25.9257H174.074V22.222Z" fill="#282828"/>
<rect x="151.852" y="14.8147" width="3.7037" height="3.7037" fill="#1E1E1E"/>
<rect x="166.667" y="14.8147" width="3.7037" height="3.7037" fill="#1E1E1E"/>
<path d="M159.259 3.70337H162.963V7.40707V11.1108H166.667V7.40707H159.259H155.556V11.1108H159.259V7.40707V3.70337Z" fill="#282828"/>
<rect x="162.963" y="11.1111" width="3.7037" height="3.7037" fill="#282828"/>
<rect x="155.556" y="11.1111" width="3.7037" height="3.7037" fill="#282828"/>
<rect x="159.259" y="7.40747" width="3.7037" height="3.7037" fill="#393939"/>
<path d="M162.963 14.8147H166.667V22.2221V25.9258V29.6295H170.37V25.9258H162.963V22.2221V14.8147Z" fill="#393939"/>
<path d="M155.556 14.8147H159.259V22.2221V25.9258H151.852V29.6295H155.556V25.9258V22.2221V14.8147Z" fill="#393939"/>
<path d="M93.6508 74.6031H106.349V83.0688H114.815V87.3016V91.5344H135.979V87.3016V78.836H127.513V66.1375H119.048V57.6719H127.513V49.2063H135.979H140.212H144.444V44.9735V40.7407H114.815V28.0423H106.349V19.5767V15.3439H102.116H97.8836H93.6508V28.0423H85.1852V36.5079V40.7407H59.7884H55.5556V49.2063H59.7884H64.0212H68.254H72.4868V57.6719H80.9524V66.1375H72.4868V74.6031V78.836H64.0212V87.3016H68.254V83.0688V78.836V74.6031H76.7196V70.3703V66.1375V61.9047V57.6719V53.4391H72.4868H64.0212V44.9735H59.7884V36.5079H89.418V32.2751V28.0423V19.5767H93.6508H97.8836V11.1111H102.116V19.5767H110.582V28.0423V36.5079H114.815H140.212V40.7407V44.9735H135.979V53.4391H131.746H127.513H123.28V57.6719V61.9047V66.1375V74.6031H127.513H131.746V78.836V87.3016H119.048H110.582V83.0688V78.836H106.349H93.6508H89.418V83.0688V87.3016H64.0212V91.5344H85.1852V87.3016V83.0688H93.6508V74.6031Z" fill="black"/>
<rect x="97.8837" y="70.3704" width="4.2328" height="4.2328" fill="#DE3E24"/>
<path d="M102.116 70.3703V66.1375H97.8834V74.6031H93.6506H89.4178V83.0687H85.185H80.9522V87.3015H85.185V78.8359H89.4178H93.6506V70.3703H97.8834H106.349V78.8359H110.582H114.815V87.3015H119.047V83.0687H114.815H110.582V74.6031H106.349H102.116V70.3703Z" fill="#F66905"/>
<path d="M102.116 66.1378V61.905H97.8837V70.3706H93.6509H89.4181V78.8362H85.1853H80.9525V87.3019H76.7197V83.069H80.9525H85.1853V74.6034H89.4181H93.6509V66.1378H97.8837H106.349V74.6034H110.582H114.815V83.069H119.048H123.281V87.3019H119.048V78.8362H114.815H110.582V70.3706H106.349H102.116V66.1378Z" fill="#F6A11C"/>
<path d="M127.513 78.836H131.746V87.3016H127.513H123.28V83.0688V78.836H114.815V74.6032V70.3704H110.582V74.6032H119.048V78.836V83.0688H127.513V78.836Z" fill="#FFD444"/>
<path d="M72.4868 78.836H68.254V87.3016H72.4868H76.7196V83.0688V78.836H85.1852V74.6032V70.3704H89.418V74.6032H80.9524V78.836V83.0688H72.4868V78.836Z" fill="#FFD444"/>
<path d="M123.28 74.6033H127.513V83.0689H123.28V78.8361H119.048V74.6033H114.815V70.3705H106.349V66.1377H102.116V61.9049V57.6721H97.8836V66.1377H93.6508V70.3705H85.1852V74.6033H80.9524V78.8361H76.7196V83.0689H72.4868V74.6033H76.7196V70.3705H80.9524V66.1377H89.418V61.9049H93.6508H97.8836H110.582V66.1377H114.815H119.048V70.3705H123.28V74.6033Z" fill="#FEFC41"/>
<rect x="119.048" y="66.1375" width="4.2328" height="4.2328" fill="#FC9F1A"/>
<rect x="76.7197" y="66.1375" width="4.2328" height="4.2328" fill="#FC9F1A"/>
<rect x="80.9522" y="61.905" width="4.2328" height="4.2328" fill="#FC9F1A"/>
<path d="M80.9524 53.439V49.2062H68.254V44.9734H72.4868V49.2062V53.439H85.1852V57.6718H80.9524V53.439Z" fill="#FC9F1A"/>
<path d="M119.048 53.439V49.2062H131.746V44.9734H127.513V49.2062V53.439H114.815V57.6718H119.048V53.439Z" fill="#FC9F1A"/>
<rect x="114.815" y="61.905" width="4.2328" height="4.2328" fill="#FC9F1A"/>
<path d="M110.582 61.9041V57.6713H106.349V49.2057H93.6506L106.349 44.9729V40.7401H102.116V23.8088H97.8834V40.7401H95.767H93.6506V44.9729H119.047H123.28V40.7401H119.047V49.2057H106.349H93.6506H80.9522V44.9729H93.6506H106.349L93.6506 49.2057V57.6713H89.4178V61.9041H85.185V66.1369H89.4178V61.9041H97.8834V57.6713H102.116V61.9041H114.815V66.1369H110.582V61.9041Z" fill="white"/>
<path d="M110.582 57.6719H106.349V53.4391H119.048V49.2063H114.815V53.4391V57.6719V61.9047H110.582V57.6719Z" fill="#FFD444"/>
<path d="M85.185 57.6719V53.4391V49.2063H80.9522V53.4391H93.6506V57.6719H89.4178V61.9047H85.185V57.6719Z" fill="#FFD444"/>
<path d="M114.815 57.6715H123.28V53.4387H119.048V57.6715V61.9043H114.815V57.6715Z" fill="#F66905"/>
<rect x="64.0211" y="44.9734" width="4.2328" height="4.2328" fill="#F66905"/>
<rect x="131.746" y="44.9734" width="4.2328" height="4.2328" fill="#F66905"/>
<rect x="59.7885" y="40.7405" width="4.2328" height="4.2328" fill="#FC9F1A"/>
<rect x="135.979" y="40.7405" width="4.2328" height="4.2328" fill="#FC9F1A"/>
<path d="M80.9525 57.6715V53.4387H76.7197V57.6715H85.1853V61.9043H80.9525V57.6715Z" fill="#F66905"/>
<rect x="72.4868" y="44.9734" width="4.2328" height="4.2328" fill="#FFD444"/>
<path d="M80.9522 40.7409H89.4178H93.6506V36.5081H89.4178V44.9737H80.9522V40.7409Z" fill="#FFD444"/>
<path d="M119.048 40.7409H110.582H106.349V36.5081H110.582V44.9737H119.048V40.7409Z" fill="#FFD444"/>
<rect x="123.28" y="44.9734" width="4.2328" height="4.2328" fill="#FFD444"/>
<rect x="64.0211" y="40.7405" width="4.2328" height="4.2328" fill="#FFD444"/>
<rect x="131.746" y="40.7405" width="4.2328" height="4.2328" fill="#FFD444"/>
<path d="M76.7196 40.7405V44.9733H80.9524V49.2061H76.7196V44.9733H68.254V40.7405H76.7196Z" fill="#FEFC41"/>
<path d="M123.28 40.7405V44.9733H119.048V49.2061H123.28V44.9733H131.746V40.7405H123.28Z" fill="#FEFC41"/>
<rect x="76.7197" y="40.7405" width="4.2328" height="4.2328" fill="white"/>
<rect x="85.1851" y="49.2063" width="8.46561" height="4.2328" fill="#FEFC41"/>
<rect x="106.349" y="49.2063" width="8.46561" height="4.2328" fill="#FEFC41"/>
<path d="M85.1851 36.5082H89.4179H93.6507V32.2754H89.4179V40.741H85.1851V36.5082Z" fill="#FC9F1A"/>
<path d="M114.815 36.5082H110.582H106.349V32.2754H110.582V40.741H114.815V36.5082Z" fill="#FC9F1A"/>
<rect x="89.418" y="28.0427" width="4.2328" height="4.2328" fill="#F66905"/>
<rect x="106.349" y="28.0427" width="4.2328" height="4.2328" fill="#F66905"/>
<path d="M97.8836 15.3438H102.116V19.5766V23.8094H106.349V19.5766H97.8836H93.6508V23.8094H97.8836V19.5766V15.3438Z" fill="#FC9F1A"/>
<rect x="102.116" y="23.8088" width="4.2328" height="4.2328" fill="#FFD444"/>
<rect x="93.6508" y="23.8088" width="4.2328" height="4.2328" fill="#FFD444"/>
<rect x="97.8837" y="19.5764" width="4.2328" height="4.2328" fill="#FEFC41"/>
<path d="M102.116 28.0427H106.349V36.5083V40.7411V44.9739H110.582V40.7411H102.116V36.5083V28.0427Z" fill="#FEFC41"/>
<path d="M93.6508 28.0427H97.8836V36.5083V40.7411H89.418V44.9739H93.6508V40.7411V36.5083V28.0427Z" fill="#FEFC41"/>
</svg>
