<svg width="200" height="92" viewBox="0 0 200 92" fill="none" xmlns="http://www.w3.org/2000/svg">
<path d="M33.3333 55.5556H44.4444V62.963H51.8519V66.6667V70.3704H70.3704V66.6667V59.2593H62.963V48.1481H55.5556V40.7407H62.963V33.3333H70.3704H74.0741H77.7778V29.6296V25.9259H51.8519V14.8148H44.4444V7.40741V3.7037H40.7407H37.037H33.3333V14.8148H25.9259V22.2222V25.9259H3.7037H0V33.3333H3.7037H7.40741H11.1111H14.8148V40.7407H22.2222V48.1481H14.8148V55.5556V59.2593H7.40741V66.6667H11.1111V62.963V59.2593V55.5556H18.5185V51.8519V48.1481V44.4444V40.7407V37.037H14.8148H7.40741V29.6296H3.7037V22.2222H29.6296V18.5185V14.8148V7.40741H33.3333H37.037V0H40.7407V7.40741H48.1481V14.8148V22.2222H51.8519H74.0741V25.9259V29.6296H70.3704V37.037H66.6667H62.963H59.2593V40.7407V44.4444V48.1481V55.5556H62.963H66.6667V59.2593V66.6667H55.5556H48.1481V62.963V59.2593H44.4444H33.3333H29.6296V62.963V66.6667H7.40741V70.3704H25.9259V66.6667V62.963H33.3333V55.5556Z" fill="black"/>
<rect x="37.037" y="51.8518" width="3.7037" height="3.7037" fill="#DE3E24"/>
<path d="M40.7407 51.8519V48.1482H37.037V55.5556H33.3333H29.6296V62.963H25.9259H22.2222V66.6667H25.9259V59.2593H29.6296H33.3333V51.8519H37.037H44.4444V59.2593H48.1481H51.8518V66.6667H55.5555V62.963H51.8518H48.1481V55.5556H44.4444H40.7407V51.8519Z" fill="#F66905"/>
<path d="M40.7408 48.148V44.4443H37.0371V51.8517H33.3334H29.6297V59.2592H25.926H22.2223V66.6666H18.5186V62.9629H22.2223H25.926V55.5554H29.6297H33.3334V48.148H37.0371H44.4445V55.5554H48.1482H51.8519V62.9629H55.5556H59.2593V66.6666H55.5556V59.2592H51.8519H48.1482V51.8517H44.4445H40.7408V48.148Z" fill="#F6A11C"/>
<path d="M62.963 59.2592H66.6667V66.6666H62.963H59.2593V62.9629V59.2592H51.8519V55.5555V51.8518H48.1482V55.5555H55.5556V59.2592V62.9629H62.963V59.2592Z" fill="#FFD444"/>
<path d="M14.8148 59.2592H11.1111V66.6666H14.8148H18.5185V62.9629V59.2592H25.9259V55.5555V51.8518H29.6296V55.5555H22.2222V59.2592V62.9629H14.8148V59.2592Z" fill="#FFD444"/>
<path d="M59.2593 55.5555H62.963V62.9629H59.2593V59.2592H55.5556V55.5555H51.8519V51.8518H44.4444V48.1481H40.7407V44.4444V40.7407H37.037V48.1481H33.3333V51.8518H25.9259V55.5555H22.2222V59.2592H18.5185V62.9629H14.8148V55.5555H18.5185V51.8518H22.2222V48.1481H29.6296V44.4444H33.3333H37.037H48.1482V48.1481H51.8519H55.5556V51.8518H59.2593V55.5555Z" fill="#FEFC41"/>
<rect x="55.5555" y="48.1482" width="3.7037" height="3.7037" fill="#FC9F1A"/>
<rect x="18.5186" y="48.1482" width="3.7037" height="3.7037" fill="#FC9F1A"/>
<rect x="22.2222" y="44.4443" width="3.7037" height="3.7037" fill="#FC9F1A"/>
<path d="M22.2222 37.037V33.3333H11.1111V29.6296H14.8148V33.3333V37.037H25.9259V40.7407H22.2222V37.037Z" fill="#FC9F1A"/>
<path d="M55.5555 37.037V33.3333H66.6666V29.6296H62.9629V33.3333V37.037H51.8518V40.7407H55.5555V37.037Z" fill="#FC9F1A"/>
<rect x="51.8518" y="44.4443" width="3.7037" height="3.7037" fill="#FC9F1A"/>
<path d="M48.1481 44.4444V40.7407H44.4444V33.3333H33.3333L44.4444 29.6296V25.9259H40.7407V11.1111H37.037V25.9259H35.1851H33.3333V29.6296H55.5555H59.2592V25.9259H55.5555V33.3333H44.4444H33.3333H22.2222V29.6296H33.3333H44.4444L33.3333 33.3333V40.7407H29.6296V44.4444H25.9259V48.1481H29.6296V44.4444H37.037V40.7407H40.7407V44.4444H51.8518V48.1481H48.1481V44.4444Z" fill="white"/>
<path d="M48.1482 40.7407H44.4445V37.037H55.5556V33.3333H51.8519V37.037V40.7407V44.4444H48.1482V40.7407Z" fill="#FFD444"/>
<path d="M25.9259 40.7407V37.037V33.3333H22.2222V37.037H33.3333V40.7407H29.6296V44.4444H25.9259V40.7407Z" fill="#FFD444"/>
<path d="M51.8518 40.7408H59.2592V37.0371H55.5555V40.7408V44.4445H51.8518V40.7408Z" fill="#F66905"/>
<rect x="7.40735" y="29.6296" width="3.7037" height="3.7037" fill="#F66905"/>
<rect x="66.6666" y="29.6296" width="3.7037" height="3.7037" fill="#F66905"/>
<rect x="3.70374" y="25.926" width="3.7037" height="3.7037" fill="#FC9F1A"/>
<rect x="70.3704" y="25.926" width="3.7037" height="3.7037" fill="#FC9F1A"/>
<path d="M22.2223 40.7408V37.0371H18.5186V40.7408H25.926V44.4445H22.2223V40.7408Z" fill="#F66905"/>
<rect x="14.8148" y="29.6296" width="3.7037" height="3.7037" fill="#FFD444"/>
<path d="M22.2222 25.9259H29.6296H33.3333V22.2222H29.6296V29.6296H22.2222V25.9259Z" fill="#FFD444"/>
<path d="M55.5555 25.9259H48.1481H44.4444V22.2222H48.1481V29.6296H55.5555V25.9259Z" fill="#FFD444"/>
<rect x="59.2593" y="29.6296" width="3.7037" height="3.7037" fill="#FFD444"/>
<rect x="7.40735" y="25.926" width="3.7037" height="3.7037" fill="#FFD444"/>
<rect x="66.6666" y="25.926" width="3.7037" height="3.7037" fill="#FFD444"/>
<path d="M18.5185 25.926V29.6297H22.2222V33.3334H18.5185V29.6297H11.1111V25.926H18.5185Z" fill="#FEFC41"/>
<path d="M59.2592 25.926V29.6297H55.5555V33.3334H59.2592V29.6297H66.6666V25.926H59.2592Z" fill="#FEFC41"/>
<rect x="18.5186" y="25.926" width="3.7037" height="3.7037" fill="white"/>
<rect x="25.9259" y="33.3333" width="7.40741" height="3.7037" fill="#FEFC41"/>
<rect x="44.4445" y="33.3333" width="7.40741" height="3.7037" fill="#FEFC41"/>
<path d="M25.9259 22.2223H29.6296H33.3333V18.5186H29.6296V25.926H25.9259V22.2223Z" fill="#FC9F1A"/>
<path d="M51.8518 22.2223H48.1481H44.4444V18.5186H48.1481V25.926H51.8518V22.2223Z" fill="#FC9F1A"/>
<rect x="29.6296" y="14.8147" width="3.7037" height="3.7037" fill="#F66905"/>
<rect x="44.4445" y="14.8147" width="3.7037" height="3.7037" fill="#F66905"/>
<path d="M37.0371 3.70361H40.7408V7.40732V11.111H44.4445V7.40732H37.0371H33.3334V11.111H37.0371V7.40732V3.70361Z" fill="#FC9F1A"/>
<rect x="40.7407" y="11.1111" width="3.7037" height="3.7037" fill="#FFD444"/>
<rect x="33.3334" y="11.1111" width="3.7037" height="3.7037" fill="#FFD444"/>
<rect x="37.037" y="7.40747" width="3.7037" height="3.7037" fill="#FEFC41"/>
<path d="M40.7407 14.8147H44.4444V22.2221V25.9258V29.6295H48.1481V25.9258H40.7407V22.2221V14.8147Z" fill="#FEFC41"/>
<path d="M33.3333 14.8147H37.037V22.2221V25.9258H29.6296V29.6295H33.3333V25.9258V22.2221V14.8147Z" fill="#FEFC41"/>
<path d="M155.556 55.5556H166.667V62.963H174.074V66.6667V70.3704H192.593V66.6667V59.2593H185.185V48.1481H177.778V40.7407H185.185V33.3333H192.593H196.296H200V29.6296V25.9259H174.074V14.8148H166.667V7.40741V3.7037H162.963H159.259H155.556V14.8148H148.148V22.2222V25.9259H125.926H122.222V33.3333H125.926H129.63H133.333H137.037V40.7407H144.444V48.1481H137.037V55.5556V59.2593H129.63V66.6667H133.333V62.963V59.2593V55.5556H140.741V51.8519V48.1481V44.4444V40.7407V37.037H137.037H129.63V29.6296H125.926V22.2222H151.852V18.5185V14.8148V7.40741H155.556H159.259V0H162.963V7.40741H170.37V14.8148V22.2222H174.074H196.296V25.9259V29.6296H192.593V37.037H188.889H185.185H181.481V40.7407V44.4444V48.1481V55.5556H185.185H188.889V59.2593V66.6667H177.778H170.37V62.963V59.2593H166.667H155.556H151.852V62.963V66.6667H129.63V70.3704H148.148V66.6667V62.963H155.556V55.5556Z" fill="black"/>
<rect x="159.259" y="51.8518" width="3.7037" height="3.7037" fill="#DE3E24"/>
<path d="M162.963 51.8519V48.1482H159.259V55.5556H155.556H151.852V62.963H148.148H144.444V66.6667H148.148V59.2593H151.852H155.556V51.8519H159.259H166.667V59.2593H170.37H174.074V66.6667H177.778V62.963H174.074H170.37V55.5556H166.667H162.963V51.8519Z" fill="#F66905"/>
<path d="M162.963 48.148V44.4443H159.259V51.8517H155.556H151.852V59.2592H148.148H144.444V66.6666H140.741V62.9629H144.444H148.148V55.5554H151.852H155.556V48.148H159.259H166.667V55.5554H170.37H174.074V62.9629H177.778H181.481V66.6666H177.778V59.2592H174.074H170.37V51.8517H166.667H162.963V48.148Z" fill="#F6A11C"/>
<path d="M185.185 59.2592H188.889V66.6666H185.185H181.481V62.9629V59.2592H174.074V55.5555V51.8518H170.37V55.5555H177.778V59.2592V62.9629H185.185V59.2592Z" fill="#FFD444"/>
<path d="M137.037 59.2592H133.333V66.6666H137.037H140.741V62.9629V59.2592H148.148V55.5555V51.8518H151.852V55.5555H144.444V59.2592V62.9629H137.037V59.2592Z" fill="#FFD444"/>
<path d="M181.481 55.5555H185.185V62.9629H181.481V59.2592H177.778V55.5555H174.074V51.8518H166.667V48.1481H162.963V44.4444V40.7407H159.259V48.1481H155.556V51.8518H148.148V55.5555H144.444V59.2592H140.741V62.9629H137.037V55.5555H140.741V51.8518H144.444V48.1481H151.852V44.4444H155.556H159.259H170.37V48.1481H174.074H177.778V51.8518H181.481V55.5555Z" fill="#FEFC41"/>
<rect x="177.778" y="48.1482" width="3.7037" height="3.7037" fill="#FC9F1A"/>
<rect x="140.741" y="48.1482" width="3.7037" height="3.7037" fill="#FC9F1A"/>
<rect x="144.444" y="44.4443" width="3.7037" height="3.7037" fill="#FC9F1A"/>
<path d="M144.444 37.037V33.3333H133.333V29.6296H137.037V33.3333V37.037H148.148V40.7407H144.444V37.037Z" fill="#FC9F1A"/>
<path d="M177.778 37.037V33.3333H188.889V29.6296H185.185V33.3333V37.037H174.074V40.7407H177.778V37.037Z" fill="#FC9F1A"/>
<rect x="174.074" y="44.4443" width="3.7037" height="3.7037" fill="#FC9F1A"/>
<path d="M170.37 44.4444V40.7407H166.667V33.3333H155.556L166.667 29.6296V25.9259H162.963V11.1111H159.259V25.9259H157.407H155.556V29.6296H177.778H181.481V25.9259H177.778V33.3333H166.667H155.556H144.444V29.6296H155.556H166.667L155.556 33.3333V40.7407H151.852V44.4444H148.148V48.1481H151.852V44.4444H159.259V40.7407H162.963V44.4444H174.074V48.1481H170.37V44.4444Z" fill="white"/>
<path d="M170.37 40.7407H166.667V37.037H177.778V33.3333H174.074V37.037V40.7407V44.4444H170.37V40.7407Z" fill="#FFD444"/>
<path d="M148.148 40.7407V37.037V33.3333H144.444V37.037H155.556V40.7407H151.852V44.4444H148.148V40.7407Z" fill="#FFD444"/>
<path d="M174.074 40.7408H181.482V37.0371H177.778V40.7408V44.4445H174.074V40.7408Z" fill="#F66905"/>
<rect x="129.63" y="29.6296" width="3.7037" height="3.7037" fill="#F66905"/>
<rect x="188.889" y="29.6296" width="3.7037" height="3.7037" fill="#F66905"/>
<rect x="125.926" y="25.926" width="3.7037" height="3.7037" fill="#FC9F1A"/>
<rect x="192.593" y="25.926" width="3.7037" height="3.7037" fill="#FC9F1A"/>
<path d="M144.444 40.7408V37.0371H140.741V40.7408H148.148V44.4445H144.444V40.7408Z" fill="#F66905"/>
<rect x="137.037" y="29.6296" width="3.7037" height="3.7037" fill="#FFD444"/>
<path d="M144.444 25.9259H151.852H155.556V22.2222H151.852V29.6296H144.444V25.9259Z" fill="#FFD444"/>
<path d="M177.778 25.9259H170.37H166.667V22.2222H170.37V29.6296H177.778V25.9259Z" fill="#FFD444"/>
<rect x="181.481" y="29.6296" width="3.7037" height="3.7037" fill="#FFD444"/>
<rect x="129.63" y="25.926" width="3.7037" height="3.7037" fill="#FFD444"/>
<rect x="188.889" y="25.926" width="3.7037" height="3.7037" fill="#FFD444"/>
<path d="M140.741 25.926V29.6297H144.444V33.3334H140.741V29.6297H133.333V25.926H140.741Z" fill="#FEFC41"/>
<path d="M181.482 25.926V29.6297H177.778V33.3334H181.482V29.6297H188.889V25.926H181.482Z" fill="#FEFC41"/>
<rect x="140.741" y="25.926" width="3.7037" height="3.7037" fill="white"/>
<rect x="148.148" y="33.3333" width="7.40741" height="3.7037" fill="#FEFC41"/>
<rect x="166.667" y="33.3333" width="7.40741" height="3.7037" fill="#FEFC41"/>
<path d="M148.148 22.2223H151.852H155.556V18.5186H151.852V25.926H148.148V22.2223Z" fill="#FC9F1A"/>
<path d="M174.074 22.2223H170.37H166.667V18.5186H170.37V25.926H174.074V22.2223Z" fill="#FC9F1A"/>
<rect x="151.852" y="14.8147" width="3.7037" height="3.7037" fill="#F66905"/>
<rect x="166.667" y="14.8147" width="3.7037" height="3.7037" fill="#F66905"/>
<path d="M159.259 3.70361H162.963V7.40732V11.111H166.667V7.40732H159.259H155.556V11.111H159.259V7.40732V3.70361Z" fill="#FC9F1A"/>
<rect x="162.963" y="11.1111" width="3.7037" height="3.7037" fill="#FFD444"/>
<rect x="155.556" y="11.1111" width="3.7037" height="3.7037" fill="#FFD444"/>
<rect x="159.259" y="7.40747" width="3.7037" height="3.7037" fill="#FEFC41"/>
<path d="M162.963 14.8147H166.667V22.2221V25.9258V29.6295H170.37V25.9258H162.963V22.2221V14.8147Z" fill="#FEFC41"/>
<path d="M155.556 14.8147H159.259V22.2221V25.9258H151.852V29.6295H155.556V25.9258V22.2221V14.8147Z" fill="#FEFC41"/>
<path d="M93.6508 74.6031H106.349V83.0687H114.815V87.3016V91.5344H135.979V87.3016V78.8359H127.513V66.1375H119.048V57.6719H127.513V49.2063H135.979H140.212H144.444V44.9735V40.7407H114.815V28.0423H106.349V19.5767V15.3439H102.116H97.8836H93.6508V28.0423H85.1852V36.5079V40.7407H59.7883H55.5555V49.2063H59.7883H64.0212H68.254H72.4868V57.6719H80.9524V66.1375H72.4868V74.6031V78.8359H64.0212V87.3016H68.254V83.0687V78.8359V74.6031H76.7196V70.3703V66.1375V61.9047V57.6719V53.4391H72.4868H64.0212V44.9735H59.7883V36.5079H89.418V32.2751V28.0423V19.5767H93.6508H97.8836V11.1111H102.116V19.5767H110.582V28.0423V36.5079H114.815H140.212V40.7407V44.9735H135.979V53.4391H131.746H127.513H123.28V57.6719V61.9047V66.1375V74.6031H127.513H131.746V78.8359V87.3016H119.048H110.582V83.0687V78.8359H106.349H93.6508H89.418V83.0687V87.3016H64.0212V91.5344H85.1852V87.3016V83.0687H93.6508V74.6031Z" fill="black"/>
<rect x="97.8837" y="70.3704" width="4.2328" height="4.2328" fill="#DE3E24"/>
<path d="M102.117 70.3705V66.1377H97.8837V74.6033H93.6509H89.4181V83.0689H85.1853H80.9525V87.3017H85.1853V78.8361H89.4181H93.6509V70.3705H97.8837H106.349V78.8361H110.582H114.815V87.3017H119.048V83.0689H114.815H110.582V74.6033H106.349H102.117V70.3705Z" fill="#F66905"/>
<path d="M102.116 66.1378V61.905H97.8834V70.3706H93.6506H89.4178V78.8362H85.185H80.9522V87.3019H76.7194V83.069H80.9522H85.185V74.6034H89.4178H93.6506V66.1378H97.8834H106.349V74.6034H110.582H114.815V83.069H119.047H123.28V87.3019H119.047V78.8362H114.815H110.582V70.3706H106.349H102.116V66.1378Z" fill="#F6A11C"/>
<path d="M127.513 78.836H131.746V87.3016H127.513H123.281V83.0688V78.836H114.815V74.6032V70.3704H110.582V74.6032H119.048V78.836V83.0688H127.513V78.836Z" fill="#FFD444"/>
<path d="M72.4866 78.836H68.2538V87.3016H72.4866H76.7194V83.0688V78.836H85.185V74.6032V70.3704H89.4178V74.6032H80.9522V78.836V83.0688H72.4866V78.836Z" fill="#FFD444"/>
<path d="M123.28 74.6036H127.513V83.0692H123.28V78.8364H119.048V74.6036H114.815V70.3708H106.349V66.138H102.116V61.9052V57.6724H97.8835V66.138H93.6507V70.3708H85.1851V74.6036H80.9523V78.8364H76.7195V83.0692H72.4867V74.6036H76.7195V70.3708H80.9523V66.138H89.4179V61.9052H93.6507H97.8835H110.582V66.138H114.815H119.048V70.3708H123.28V74.6036Z" fill="#FEFC41"/>
<rect x="119.047" y="66.1377" width="4.2328" height="4.2328" fill="#FC9F1A"/>
<rect x="76.7194" y="66.1377" width="4.2328" height="4.2328" fill="#FC9F1A"/>
<rect x="80.9525" y="61.905" width="4.2328" height="4.2328" fill="#FC9F1A"/>
<path d="M80.9524 53.439V49.2062H68.254V44.9734H72.4868V49.2062V53.439H85.1852V57.6718H80.9524V53.439Z" fill="#FC9F1A"/>
<path d="M119.048 53.439V49.2062H131.746V44.9734H127.513V49.2062V53.439H114.815V57.6718H119.048V53.439Z" fill="#FC9F1A"/>
<rect x="114.815" y="61.905" width="4.2328" height="4.2328" fill="#FC9F1A"/>
<path d="M110.582 61.9043V57.6715H106.349V49.2059H93.6509L106.349 44.9731V40.7403H102.117V23.8091H97.8837V40.7403H95.7673H93.6509V44.9731H119.048H123.281V40.7403H119.048V49.2059H106.349H93.6509H80.9525V44.9731H93.6509H106.349L93.6509 49.2059V57.6715H89.4181V61.9043H85.1853V66.1371H89.4181V61.9043H97.8837V57.6715H102.117V61.9043H114.815V66.1371H110.582V61.9043Z" fill="white"/>
<path d="M110.582 57.6717H106.349V53.4389H119.047V49.2061H114.815V53.4389V57.6717V61.9045H110.582V57.6717Z" fill="#FFD444"/>
<path d="M85.1853 57.6717V53.4389V49.2061H80.9525V53.4389H93.6509V57.6717H89.4181V61.9045H85.1853V57.6717Z" fill="#FFD444"/>
<path d="M114.815 57.6715H123.28V53.4387H119.048V57.6715V61.9043H114.815V57.6715Z" fill="#F66905"/>
<rect x="64.0214" y="44.9734" width="4.2328" height="4.2328" fill="#F66905"/>
<rect x="131.746" y="44.9734" width="4.2328" height="4.2328" fill="#F66905"/>
<rect x="59.7882" y="40.7407" width="4.2328" height="4.2328" fill="#FC9F1A"/>
<rect x="135.979" y="40.7407" width="4.2328" height="4.2328" fill="#FC9F1A"/>
<path d="M80.9522 57.6715V53.4387H76.7194V57.6715H85.185V61.9043H80.9522V57.6715Z" fill="#F66905"/>
<rect x="72.4867" y="44.9734" width="4.2328" height="4.2328" fill="#FFD444"/>
<path d="M80.9525 40.7409H89.4181H93.6509V36.5081H89.4181V44.9737H80.9525V40.7409Z" fill="#FFD444"/>
<path d="M119.047 40.7409H110.582H106.349V36.5081H110.582V44.9737H119.047V40.7409Z" fill="#FFD444"/>
<rect x="123.281" y="44.9734" width="4.2328" height="4.2328" fill="#FFD444"/>
<rect x="64.0214" y="40.7407" width="4.2328" height="4.2328" fill="#FFD444"/>
<rect x="131.746" y="40.7407" width="4.2328" height="4.2328" fill="#FFD444"/>
<path d="M76.7196 40.7407V44.9735H80.9524V49.2063H76.7196V44.9735H68.254V40.7407H76.7196Z" fill="#FEFC41"/>
<path d="M123.28 40.7407V44.9735H119.048V49.2063H123.28V44.9735H131.746V40.7407H123.28Z" fill="#FEFC41"/>
<rect x="76.7194" y="40.7407" width="4.2328" height="4.2328" fill="white"/>
<rect x="85.1852" y="49.2061" width="8.46561" height="4.2328" fill="#FEFC41"/>
<rect x="106.349" y="49.2061" width="8.46561" height="4.2328" fill="#FEFC41"/>
<path d="M85.1852 36.5082H89.418H93.6508V32.2754H89.418V40.741H85.1852V36.5082Z" fill="#FC9F1A"/>
<path d="M114.815 36.5082H110.582H106.349V32.2754H110.582V40.741H114.815V36.5082Z" fill="#FC9F1A"/>
<rect x="89.4178" y="28.0427" width="4.2328" height="4.2328" fill="#F66905"/>
<rect x="106.349" y="28.0427" width="4.2328" height="4.2328" fill="#F66905"/>
<path d="M97.8838 15.3438H102.117V19.5766V23.8094H106.349V19.5766H97.8838H93.651V23.8094H97.8838V19.5766V15.3438Z" fill="#FC9F1A"/>
<rect x="102.116" y="23.8091" width="4.2328" height="4.2328" fill="#FFD444"/>
<rect x="93.651" y="23.8091" width="4.2328" height="4.2328" fill="#FFD444"/>
<rect x="97.8837" y="19.5764" width="4.2328" height="4.2328" fill="#FEFC41"/>
<path d="M102.116 28.0427H106.349V36.5083V40.7411V44.9739H110.582V40.7411H102.116V36.5083V28.0427Z" fill="#FEFC41"/>
<path d="M93.6507 28.0427H97.8835V36.5083V40.7411H89.4178V44.9739H93.6507V40.7411V36.5083V28.0427Z" fill="#FEFC41"/>
</svg>
