<svg width="53" height="53" viewBox="0 0 53 53" fill="none" xmlns="http://www.w3.org/2000/svg">
<rect x="5" y="5" width="3" height="3" fill="#8E3D1D" fill-opacity="0.2"/>
<rect x="5" y="10" width="3" height="3" fill="#8E3D1D" fill-opacity="0.2"/>
<rect x="10" y="5" width="3" height="3" fill="#8E3D1D" fill-opacity="0.2"/>
<rect x="15" y="5" width="3" height="3" fill="#8E3D1D" fill-opacity="0.2"/>
<rect x="10" y="10" width="3" height="3" fill="#8E3D1D" fill-opacity="0.5"/>
<rect x="15" y="10" width="3" height="3" fill="#8E3D1D" fill-opacity="0.5"/>
<rect x="5" y="15" width="3" height="3" fill="#8E3D1D" fill-opacity="0.2"/>
<rect x="10" y="15" width="3" height="3" fill="#8E3D1D" fill-opacity="0.5"/>
<rect x="15" y="15" width="3" height="3" fill="#8E3D1D"/>
<rect x="20" y="5" width="3" height="3" fill="#8E3D1D" fill-opacity="0.2"/>
<rect x="20" y="10" width="3" height="3" fill="#8E3D1D" fill-opacity="0.5"/>
<rect x="25" y="5" width="3" height="3" fill="#8E3D1D" fill-opacity="0.2"/>
<rect x="30" y="5" width="3" height="3" fill="#8E3D1D" fill-opacity="0.2"/>
<rect x="25" y="10" width="3" height="3" fill="#8E3D1D" fill-opacity="0.5"/>
<rect x="30" y="10" width="3" height="3" fill="#8E3D1D" fill-opacity="0.5"/>
<rect x="20" y="15" width="3" height="3" fill="#8E3D1D"/>
<rect x="25" y="15" width="3" height="3" fill="#8E3D1D"/>
<rect x="30" y="15" width="3" height="3" fill="#8E3D1D"/>
<rect x="20" y="20" width="3" height="3" fill="#8E3D1D"/>
<rect x="20" y="25" width="3" height="3" fill="#8E3D1D"/>
<rect x="25" y="20" width="3" height="3" fill="#8E3D1D"/>
<rect x="30" y="20" width="3" height="3" fill="#8E3D1D"/>
<rect x="25" y="25" width="3" height="3" fill="#8E3D1D"/>
<rect x="30" y="25" width="3" height="3" fill="#8E3D1D"/>
<rect x="20" y="30" width="3" height="3" fill="#8E3D1D"/>
<rect x="25" y="30" width="3" height="3" fill="#8E3D1D"/>
<rect x="30" y="30" width="3" height="3" fill="#8E3D1D"/>
<rect x="5" y="20" width="3" height="3" fill="#8E3D1D" fill-opacity="0.2"/>
<rect x="5" y="25" width="3" height="3" fill="#8E3D1D" fill-opacity="0.2"/>
<rect x="10" y="20" width="3" height="3" fill="#8E3D1D" fill-opacity="0.5"/>
<rect x="15" y="20" width="3" height="3" fill="#8E3D1D"/>
<rect x="10" y="25" width="3" height="3" fill="#8E3D1D" fill-opacity="0.5"/>
<rect x="15" y="25" width="3" height="3" fill="#8E3D1D"/>
<rect x="5" y="30" width="3" height="3" fill="#8E3D1D" fill-opacity="0.2"/>
<rect x="10" y="30" width="3" height="3" fill="#8E3D1D" fill-opacity="0.5"/>
<rect x="15" y="30" width="3" height="3" fill="#8E3D1D"/>
<rect x="5" y="35" width="3" height="3" fill="#8E3D1D" fill-opacity="0.2"/>
<rect x="5" y="40" width="3" height="3" fill="#8E3D1D" fill-opacity="0.2"/>
<rect y="10" width="3" height="3" fill="#8E3D1D" fill-opacity="0.2"/>
<rect y="15" width="3" height="3" fill="#8E3D1D" fill-opacity="0.2"/>
<rect y="20" width="3" height="3" fill="#8E3D1D" fill-opacity="0.2"/>
<rect y="25" width="3" height="3" fill="#8E3D1D" fill-opacity="0.2"/>
<rect y="30" width="3" height="3" fill="#8E3D1D" fill-opacity="0.2"/>
<rect y="35" width="3" height="3" fill="#8E3D1D" fill-opacity="0.2"/>
<rect y="40" width="3" height="3" fill="#8E3D1D" fill-opacity="0.2"/>
<rect x="10" y="35" width="3" height="3" fill="#8E3D1D" fill-opacity="0.5"/>
<rect x="15" y="35" width="3" height="3" fill="#8E3D1D"/>
<rect x="10" y="40" width="3" height="3" fill="#8E3D1D" fill-opacity="0.5"/>
<rect x="15" y="40" width="3" height="3" fill="#8E3D1D" fill-opacity="0.5"/>
<rect x="5" y="45" width="3" height="3" fill="#8E3D1D" fill-opacity="0.2"/>
<rect x="10" y="45" width="3" height="3" fill="#8E3D1D" fill-opacity="0.2"/>
<rect x="15" y="45" width="3" height="3" fill="#8E3D1D" fill-opacity="0.2"/>
<rect x="20" y="35" width="3" height="3" fill="#8E3D1D"/>
<rect x="20" y="40" width="3" height="3" fill="#8E3D1D" fill-opacity="0.5"/>
<rect x="25" y="35" width="3" height="3" fill="#8E3D1D"/>
<rect x="30" y="35" width="3" height="3" fill="#8E3D1D"/>
<rect x="25" y="40" width="3" height="3" fill="#8E3D1D" fill-opacity="0.5"/>
<rect x="30" y="40" width="3" height="3" fill="#8E3D1D" fill-opacity="0.5"/>
<rect x="20" y="45" width="3" height="3" fill="#8E3D1D" fill-opacity="0.2"/>
<rect x="25" y="45" width="3" height="3" fill="#8E3D1D" fill-opacity="0.2"/>
<rect x="30" y="45" width="3" height="3" fill="#8E3D1D" fill-opacity="0.2"/>
<rect x="35" y="35" width="3" height="3" fill="#8E3D1D"/>
<rect x="35" y="40" width="3" height="3" fill="#8E3D1D" fill-opacity="0.5"/>
<rect x="40" y="35" width="3" height="3" fill="#8E3D1D" fill-opacity="0.5"/>
<rect x="45" y="35" width="3" height="3" fill="#8E3D1D" fill-opacity="0.2"/>
<rect x="40" y="40" width="3" height="3" fill="#8E3D1D" fill-opacity="0.5"/>
<rect x="45" y="40" width="3" height="3" fill="#8E3D1D" fill-opacity="0.2"/>
<rect x="35" y="45" width="3" height="3" fill="#8E3D1D" fill-opacity="0.2"/>
<rect x="40" y="45" width="3" height="3" fill="#8E3D1D" fill-opacity="0.2"/>
<rect x="10" y="50" width="3" height="3" fill="#8E3D1D" fill-opacity="0.2"/>
<rect x="15" y="50" width="3" height="3" fill="#8E3D1D" fill-opacity="0.2"/>
<rect x="20" y="50" width="3" height="3" fill="#8E3D1D" fill-opacity="0.2"/>
<rect x="25" y="50" width="3" height="3" fill="#8E3D1D" fill-opacity="0.2"/>
<rect x="30" y="50" width="3" height="3" fill="#8E3D1D" fill-opacity="0.2"/>
<rect x="35" y="50" width="3" height="3" fill="#8E3D1D" fill-opacity="0.2"/>
<rect x="40" y="50" width="3" height="3" fill="#8E3D1D" fill-opacity="0.2"/>
<rect x="45" y="45" width="3" height="3" fill="#8E3D1D" fill-opacity="0.2"/>
<rect x="35" y="20" width="3" height="3" fill="#8E3D1D"/>
<rect x="35" y="25" width="3" height="3" fill="#8E3D1D"/>
<rect x="40" y="20" width="3" height="3" fill="#8E3D1D" fill-opacity="0.5"/>
<rect x="45" y="20" width="3" height="3" fill="#8E3D1D" fill-opacity="0.2"/>
<rect x="40" y="25" width="3" height="3" fill="#8E3D1D" fill-opacity="0.5"/>
<rect x="45" y="25" width="3" height="3" fill="#8E3D1D" fill-opacity="0.2"/>
<rect x="35" y="30" width="3" height="3" fill="#8E3D1D"/>
<rect x="40" y="30" width="3" height="3" fill="#8E3D1D" fill-opacity="0.5"/>
<rect x="45" y="30" width="3" height="3" fill="#8E3D1D" fill-opacity="0.2"/>
<rect x="35" y="5" width="3" height="3" fill="#8E3D1D" fill-opacity="0.2"/>
<rect x="35" y="10" width="3" height="3" fill="#8E3D1D" fill-opacity="0.5"/>
<rect x="40" y="5" width="3" height="3" fill="#8E3D1D" fill-opacity="0.2"/>
<rect x="10" width="3" height="3" fill="#8E3D1D" fill-opacity="0.2"/>
<rect x="15" width="3" height="3" fill="#8E3D1D" fill-opacity="0.2"/>
<rect x="20" width="3" height="3" fill="#8E3D1D" fill-opacity="0.2"/>
<rect x="25" width="3" height="3" fill="#8E3D1D" fill-opacity="0.2"/>
<rect x="30" width="3" height="3" fill="#8E3D1D" fill-opacity="0.2"/>
<rect x="35" width="3" height="3" fill="#8E3D1D" fill-opacity="0.2"/>
<rect x="40" width="3" height="3" fill="#8E3D1D" fill-opacity="0.2"/>
<rect x="45" y="5" width="3" height="3" fill="#8E3D1D" fill-opacity="0.2"/>
<rect x="40" y="10" width="3" height="3" fill="#8E3D1D" fill-opacity="0.5"/>
<rect x="45" y="10" width="3" height="3" fill="#8E3D1D" fill-opacity="0.2"/>
<rect x="35" y="15" width="3" height="3" fill="#8E3D1D"/>
<rect x="40" y="15" width="3" height="3" fill="#8E3D1D" fill-opacity="0.5"/>
<rect x="45" y="15" width="3" height="3" fill="#8E3D1D" fill-opacity="0.2"/>
<rect x="50" y="35" width="3" height="3" fill="#8E3D1D" fill-opacity="0.2"/>
<rect x="50" y="40" width="3" height="3" fill="#8E3D1D" fill-opacity="0.2"/>
<rect x="50" y="20" width="3" height="3" fill="#8E3D1D" fill-opacity="0.2"/>
<rect x="50" y="25" width="3" height="3" fill="#8E3D1D" fill-opacity="0.2"/>
<rect x="50" y="30" width="3" height="3" fill="#8E3D1D" fill-opacity="0.2"/>
<rect x="50" y="10" width="3" height="3" fill="#8E3D1D" fill-opacity="0.2"/>
<rect x="50" y="15" width="3" height="3" fill="#8E3D1D" fill-opacity="0.2"/>
<path d="M17.7692 18.3846H18.9231H20.0769V17.3076H23.5385V16.2307H20.0769H19.5H18.9231V18.3846H23.5385V17.3076V16.2307H24.6923V18.3846H25.8462V19.4615H28.1538V20.5384H29.3077V21.6153H28.1538V22.6923H29.3077V23.7692H31.6154V33.4615H29.3077V34.5384H28.1538V35.6153V36.6922V37.7692H17.7692V38.8461H25.8462V37.7692V36.6922H29.3077V35.6153H29.8846H30.4615V33.4615V23.7692V22.6923V21.6153H29.3077H27V20.5384H24.6923V19.4615H18.9231V20.5384H16.6154V21.6153H15.4615V22.6923H14.3077V23.7692H13.1538H12V32.3846H13.1538V33.4615H14.3077V34.5384H15.4615V36.6922V37.7692H17.7692V36.6922H14.3077V35.6153H13.1538V34.5384V33.4615H12V32.3846H13.1538V23.7692V22.6923V21.6153H14.3077V20.5384H15.4615V19.4615H17.7692V18.3846Z" fill="#121212"/>
<path d="M22.3846 14.0769H23.5385V13H24.6923H28.1538V15.1538H29.3077H30.4615V18.3846H31.6154H32.7692H35.0769V19.4615H31.6154V17.3077V16.2308H30.4615H29.3077V14.0769H28.1538H24.6923V15.1538H23.5385V16.2308H22.3846V14.0769Z" fill="#994726"/>
<path d="M35.0769 17.3077V15.1538H36.2308H38.5385H39.6923V17.3077H42V16.2308H39.6923H38.5385V14.0769V13H36.2308V16.2308H35.0769H32.7692V17.3077H36.2308V18.3846H37.3846H38.5385H39.6923V17.3077H42H38.5385V18.3846V19.4615V20.5385H36.2308V19.4615V18.3846H35.0769V17.3077Z" fill="#EF3331"/>
<path d="M36.2308 15.1538H38.5385V16.2307H39.6923V17.3077H38.5385V18.3846H36.2308V17.3077H35.077V16.2307H36.2308V15.1538Z" fill="#FBA732"/>
<path d="M18.923 19.4619H24.6923V20.5388H27V21.6158H28.1538V22.6927H29.3077V23.7696H30.4615V33.4619H29.3077V34.5388H28.1538V36.6927H25.8461V37.7696H17.7692V36.6927H15.4615V34.5388H14.3077V33.4619H13.1538V32.385V24.8465V23.7696H14.3077V22.6927H15.4615V21.6158H16.6153V20.5388H18.923V19.4619Z" fill="#48494B"/>
</svg>
