<svg width="240" height="53" viewBox="0 0 240 53" fill="none" xmlns="http://www.w3.org/2000/svg">
<rect x="5.09436" y="5" width="3.0566" height="3" fill="#4A3C0F" fill-opacity="0.2"/>
<rect x="5.09436" y="10" width="3.0566" height="3" fill="#4A3C0F" fill-opacity="0.2"/>
<rect x="10.1887" y="5" width="3.0566" height="3" fill="#4A3C0F" fill-opacity="0.2"/>
<rect x="15.283" y="5" width="3.0566" height="3" fill="#4A3C0F" fill-opacity="0.2"/>
<rect x="10.1887" y="10" width="3.0566" height="3" fill="#4A3C0F" fill-opacity="0.5"/>
<rect x="15.283" y="10" width="3.0566" height="3" fill="#4A3C0F" fill-opacity="0.5"/>
<rect x="5.09436" y="15" width="3.0566" height="3" fill="#4A3C0F" fill-opacity="0.2"/>
<rect x="10.1887" y="15" width="3.0566" height="3" fill="#4A3C0F" fill-opacity="0.5"/>
<rect x="15.283" y="15" width="3.0566" height="3" fill="#4A3C0F"/>
<rect x="20.3774" y="5" width="3.0566" height="3" fill="#4A3C0F" fill-opacity="0.2"/>
<rect x="20.3774" y="10" width="3.0566" height="3" fill="#4A3C0F" fill-opacity="0.5"/>
<rect x="25.4717" y="5" width="3.0566" height="3" fill="#4A3C0F" fill-opacity="0.2"/>
<rect x="30.566" y="5" width="3.0566" height="3" fill="#4A3C0F" fill-opacity="0.2"/>
<rect x="25.4717" y="10" width="3.0566" height="3" fill="#4A3C0F" fill-opacity="0.5"/>
<rect x="30.566" y="10" width="3.0566" height="3" fill="#4A3C0F" fill-opacity="0.5"/>
<rect x="20.3774" y="15" width="3.0566" height="3" fill="#4A3C0F"/>
<rect x="25.4717" y="15" width="3.0566" height="3" fill="#4A3C0F"/>
<rect x="30.566" y="15" width="3.0566" height="3" fill="#4A3C0F"/>
<rect x="20.3774" y="20" width="3.0566" height="3" fill="#4A3C0F"/>
<rect x="20.3774" y="25" width="3.0566" height="3" fill="#4A3C0F"/>
<rect x="25.4717" y="20" width="3.0566" height="3" fill="#4A3C0F"/>
<rect x="30.566" y="20" width="3.0566" height="3" fill="#4A3C0F"/>
<rect x="25.4717" y="25" width="3.0566" height="3" fill="#4A3C0F"/>
<rect x="30.566" y="25" width="3.0566" height="3" fill="#4A3C0F"/>
<rect x="20.3774" y="30" width="3.0566" height="3" fill="#4A3C0F"/>
<rect x="25.4717" y="30" width="3.0566" height="3" fill="#4A3C0F"/>
<rect x="30.566" y="30" width="3.0566" height="3" fill="#4A3C0F"/>
<rect x="5.09436" y="20" width="3.0566" height="3" fill="#4A3C0F" fill-opacity="0.2"/>
<rect x="5.09436" y="25" width="3.0566" height="3" fill="#4A3C0F" fill-opacity="0.2"/>
<rect x="10.1887" y="20" width="3.0566" height="3" fill="#4A3C0F" fill-opacity="0.5"/>
<rect x="15.283" y="20" width="3.0566" height="3" fill="#4A3C0F"/>
<rect x="10.1887" y="25" width="3.0566" height="3" fill="#4A3C0F" fill-opacity="0.5"/>
<rect x="15.283" y="25" width="3.0566" height="3" fill="#4A3C0F"/>
<rect x="5.09436" y="30" width="3.0566" height="3" fill="#4A3C0F" fill-opacity="0.2"/>
<rect x="10.1887" y="30" width="3.0566" height="3" fill="#4A3C0F" fill-opacity="0.5"/>
<rect x="15.283" y="30" width="3.0566" height="3" fill="#4A3C0F"/>
<rect x="5.09436" y="35" width="3.0566" height="3" fill="#4A3C0F" fill-opacity="0.2"/>
<rect x="5.09436" y="40" width="3.0566" height="3" fill="#4A3C0F" fill-opacity="0.2"/>
<rect y="10" width="3.0566" height="3" fill="#4A3C0F" fill-opacity="0.2"/>
<rect y="15" width="3.0566" height="3" fill="#4A3C0F" fill-opacity="0.2"/>
<rect y="20" width="3.0566" height="3" fill="#4A3C0F" fill-opacity="0.2"/>
<rect y="25" width="3.0566" height="3" fill="#4A3C0F" fill-opacity="0.2"/>
<rect y="30" width="3.0566" height="3" fill="#4A3C0F" fill-opacity="0.2"/>
<rect y="35" width="3.0566" height="3" fill="#4A3C0F" fill-opacity="0.2"/>
<rect y="40" width="3.0566" height="3" fill="#4A3C0F" fill-opacity="0.2"/>
<rect x="10.1887" y="35" width="3.0566" height="3" fill="#4A3C0F" fill-opacity="0.5"/>
<rect x="15.283" y="35" width="3.0566" height="3" fill="#4A3C0F"/>
<rect x="10.1887" y="40" width="3.0566" height="3" fill="#4A3C0F" fill-opacity="0.5"/>
<rect x="15.283" y="40" width="3.0566" height="3" fill="#4A3C0F" fill-opacity="0.5"/>
<rect x="5.09436" y="45" width="3.0566" height="3" fill="#4A3C0F" fill-opacity="0.2"/>
<rect x="10.1887" y="45" width="3.0566" height="3" fill="#4A3C0F" fill-opacity="0.2"/>
<rect x="15.283" y="45" width="3.0566" height="3" fill="#4A3C0F" fill-opacity="0.2"/>
<rect x="20.3774" y="35" width="3.0566" height="3" fill="#4A3C0F"/>
<rect x="20.3774" y="40" width="3.0566" height="3" fill="#4A3C0F" fill-opacity="0.5"/>
<rect x="25.4717" y="35" width="3.0566" height="3" fill="#4A3C0F"/>
<rect x="30.566" y="35" width="3.0566" height="3" fill="#4A3C0F"/>
<rect x="25.4717" y="40" width="3.0566" height="3" fill="#4A3C0F" fill-opacity="0.5"/>
<rect x="30.566" y="40" width="3.0566" height="3" fill="#4A3C0F" fill-opacity="0.5"/>
<rect x="20.3774" y="45" width="3.0566" height="3" fill="#4A3C0F" fill-opacity="0.2"/>
<rect x="25.4717" y="45" width="3.0566" height="3" fill="#4A3C0F" fill-opacity="0.2"/>
<rect x="30.566" y="45" width="3.0566" height="3" fill="#4A3C0F" fill-opacity="0.2"/>
<rect x="35.6604" y="35" width="3.0566" height="3" fill="#4A3C0F"/>
<rect x="35.6604" y="40" width="3.0566" height="3" fill="#4A3C0F" fill-opacity="0.5"/>
<rect x="35.6604" y="45" width="3.0566" height="3" fill="#4A3C0F" fill-opacity="0.2"/>
<rect x="10.1887" y="50" width="3.0566" height="3" fill="#4A3C0F" fill-opacity="0.2"/>
<rect x="15.283" y="50" width="3.0566" height="3" fill="#4A3C0F" fill-opacity="0.2"/>
<rect x="20.3774" y="50" width="3.0566" height="3" fill="#4A3C0F" fill-opacity="0.2"/>
<rect x="25.4717" y="50" width="3.0566" height="3" fill="#4A3C0F" fill-opacity="0.2"/>
<rect x="30.566" y="50" width="3.0566" height="3" fill="#4A3C0F" fill-opacity="0.2"/>
<rect x="35.6604" y="50" width="3.0566" height="3" fill="#4A3C0F" fill-opacity="0.2"/>
<rect x="35.6604" y="20" width="3.0566" height="3" fill="#4A3C0F"/>
<rect x="35.6604" y="25" width="3.0566" height="3" fill="#4A3C0F"/>
<rect x="35.6604" y="30" width="3.0566" height="3" fill="#4A3C0F"/>
<rect x="35.6604" y="5" width="3.0566" height="3" fill="#4A3C0F" fill-opacity="0.2"/>
<rect x="35.6604" y="10" width="3.0566" height="3" fill="#4A3C0F" fill-opacity="0.5"/>
<rect x="10.1887" width="3.0566" height="3" fill="#4A3C0F" fill-opacity="0.2"/>
<rect x="15.283" width="3.0566" height="3" fill="#4A3C0F" fill-opacity="0.2"/>
<rect x="20.3774" width="3.0566" height="3" fill="#4A3C0F" fill-opacity="0.2"/>
<rect x="25.4717" width="3.0566" height="3" fill="#4A3C0F" fill-opacity="0.2"/>
<rect x="30.566" width="3.0566" height="3" fill="#4A3C0F" fill-opacity="0.2"/>
<rect x="35.6604" width="3.0566" height="3" fill="#4A3C0F" fill-opacity="0.2"/>
<rect x="35.6604" y="15" width="3.0566" height="3" fill="#4A3C0F"/>
<rect x="41" y="5" width="3.0566" height="3" fill="#4A3C0F" fill-opacity="0.2"/>
<rect x="41" y="10" width="3.0566" height="3" fill="#4A3C0F" fill-opacity="0.5"/>
<rect x="41" y="15" width="3.0566" height="3" fill="#4A3C0F"/>
<rect x="46.0944" y="5" width="3.0566" height="3" fill="#4A3C0F" fill-opacity="0.2"/>
<rect x="46.0944" y="10" width="3.0566" height="3" fill="#4A3C0F" fill-opacity="0.5"/>
<rect x="51.1887" y="5" width="3.0566" height="3" fill="#4A3C0F" fill-opacity="0.2"/>
<rect x="56.283" y="5" width="3.0566" height="3" fill="#4A3C0F" fill-opacity="0.2"/>
<rect x="51.1887" y="10" width="3.0566" height="3" fill="#4A3C0F" fill-opacity="0.5"/>
<rect x="56.283" y="10" width="3.0566" height="3" fill="#4A3C0F" fill-opacity="0.5"/>
<rect x="46.0944" y="15" width="3.0566" height="3" fill="#4A3C0F"/>
<rect x="51.1887" y="15" width="3.0566" height="3" fill="#4A3C0F"/>
<rect x="56.283" y="15" width="3.0566" height="3" fill="#4A3C0F"/>
<rect x="46.0944" y="20" width="3.0566" height="3" fill="#4A3C0F"/>
<rect x="46.0944" y="25" width="3.0566" height="3" fill="#4A3C0F"/>
<rect x="51.1887" y="20" width="3.0566" height="3" fill="#4A3C0F"/>
<rect x="56.283" y="20" width="3.0566" height="3" fill="#4A3C0F"/>
<rect x="51.1887" y="25" width="3.0566" height="3" fill="#4A3C0F"/>
<rect x="56.283" y="25" width="3.0566" height="3" fill="#4A3C0F"/>
<rect x="46.0944" y="30" width="3.0566" height="3" fill="#4A3C0F"/>
<rect x="51.1887" y="30" width="3.0566" height="3" fill="#4A3C0F"/>
<rect x="56.283" y="30" width="3.0566" height="3" fill="#4A3C0F"/>
<rect x="41" y="20" width="3.0566" height="3" fill="#4A3C0F"/>
<rect x="41" y="25" width="3.0566" height="3" fill="#4A3C0F"/>
<rect x="41" y="30" width="3.0566" height="3" fill="#4A3C0F"/>
<rect x="41" y="35" width="3.0566" height="3" fill="#4A3C0F"/>
<rect x="41" y="40" width="3.0566" height="3" fill="#4A3C0F" fill-opacity="0.5"/>
<rect x="41" y="45" width="3.0566" height="3" fill="#4A3C0F" fill-opacity="0.2"/>
<rect x="46.0944" y="35" width="3.0566" height="3" fill="#4A3C0F"/>
<rect x="46.0944" y="40" width="3.0566" height="3" fill="#4A3C0F" fill-opacity="0.5"/>
<rect x="51.1887" y="35" width="3.0566" height="3" fill="#4A3C0F"/>
<rect x="56.283" y="35" width="3.0566" height="3" fill="#4A3C0F"/>
<rect x="51.1887" y="40" width="3.0566" height="3" fill="#4A3C0F" fill-opacity="0.5"/>
<rect x="56.283" y="40" width="3.0566" height="3" fill="#4A3C0F" fill-opacity="0.5"/>
<rect x="46.0944" y="45" width="3.0566" height="3" fill="#4A3C0F" fill-opacity="0.2"/>
<rect x="51.1887" y="45" width="3.0566" height="3" fill="#4A3C0F" fill-opacity="0.2"/>
<rect x="56.283" y="45" width="3.0566" height="3" fill="#4A3C0F" fill-opacity="0.2"/>
<rect x="61.3774" y="35" width="3.0566" height="3" fill="#4A3C0F"/>
<rect x="61.3774" y="40" width="3.0566" height="3" fill="#4A3C0F" fill-opacity="0.5"/>
<rect x="61.3774" y="45" width="3.0566" height="3" fill="#4A3C0F" fill-opacity="0.2"/>
<rect x="41" y="50" width="3.0566" height="3" fill="#4A3C0F" fill-opacity="0.2"/>
<rect x="46.0944" y="50" width="3.0566" height="3" fill="#4A3C0F" fill-opacity="0.2"/>
<rect x="51.1887" y="50" width="3.0566" height="3" fill="#4A3C0F" fill-opacity="0.2"/>
<rect x="56.283" y="50" width="3.0566" height="3" fill="#4A3C0F" fill-opacity="0.2"/>
<rect x="61.3774" y="50" width="3.0566" height="3" fill="#4A3C0F" fill-opacity="0.2"/>
<rect x="61.3774" y="20" width="3.0566" height="3" fill="#4A3C0F"/>
<rect x="61.3774" y="25" width="3.0566" height="3" fill="#4A3C0F"/>
<rect x="61.3774" y="30" width="3.0566" height="3" fill="#4A3C0F"/>
<rect x="61.3774" y="5" width="3.0566" height="3" fill="#4A3C0F" fill-opacity="0.2"/>
<rect x="61.3774" y="10" width="3.0566" height="3" fill="#4A3C0F" fill-opacity="0.5"/>
<rect x="41" width="3.0566" height="3" fill="#4A3C0F" fill-opacity="0.2"/>
<rect x="46.0944" width="3.0566" height="3" fill="#4A3C0F" fill-opacity="0.2"/>
<rect x="51.1887" width="3.0566" height="3" fill="#4A3C0F" fill-opacity="0.2"/>
<rect x="56.283" width="3.0566" height="3" fill="#4A3C0F" fill-opacity="0.2"/>
<rect x="61.3774" width="3.0566" height="3" fill="#4A3C0F" fill-opacity="0.2"/>
<rect x="61.3774" y="15" width="3.0566" height="3" fill="#4A3C0F"/>
<rect x="66" y="5" width="3.0566" height="3" fill="#4A3C0F" fill-opacity="0.2"/>
<rect x="66" y="10" width="3.0566" height="3" fill="#4A3C0F" fill-opacity="0.5"/>
<rect x="66" y="15" width="3.0566" height="3" fill="#4A3C0F"/>
<rect x="71.0944" y="5" width="3.0566" height="3" fill="#4A3C0F" fill-opacity="0.2"/>
<rect x="71.0944" y="10" width="3.0566" height="3" fill="#4A3C0F" fill-opacity="0.5"/>
<rect x="76.1887" y="5" width="3.0566" height="3" fill="#4A3C0F" fill-opacity="0.2"/>
<rect x="81.283" y="5" width="3.0566" height="3" fill="#4A3C0F" fill-opacity="0.2"/>
<rect x="76.1887" y="10" width="3.0566" height="3" fill="#4A3C0F" fill-opacity="0.5"/>
<rect x="81.283" y="10" width="3.0566" height="3" fill="#4A3C0F" fill-opacity="0.5"/>
<rect x="71.0944" y="15" width="3.0566" height="3" fill="#4A3C0F"/>
<rect x="76.1887" y="15" width="3.0566" height="3" fill="#4A3C0F"/>
<rect x="81.283" y="15" width="3.0566" height="3" fill="#4A3C0F"/>
<rect x="71.0944" y="20" width="3.0566" height="3" fill="#4A3C0F"/>
<rect x="71.0944" y="25" width="3.0566" height="3" fill="#4A3C0F"/>
<rect x="76.1887" y="20" width="3.0566" height="3" fill="#4A3C0F"/>
<rect x="81.283" y="20" width="3.0566" height="3" fill="#4A3C0F"/>
<rect x="76.1887" y="25" width="3.0566" height="3" fill="#4A3C0F"/>
<rect x="81.283" y="25" width="3.0566" height="3" fill="#4A3C0F"/>
<rect x="71.0944" y="30" width="3.0566" height="3" fill="#4A3C0F"/>
<rect x="76.1887" y="30" width="3.0566" height="3" fill="#4A3C0F"/>
<rect x="81.283" y="30" width="3.0566" height="3" fill="#4A3C0F"/>
<rect x="66" y="20" width="3.0566" height="3" fill="#4A3C0F"/>
<rect x="66" y="25" width="3.0566" height="3" fill="#4A3C0F"/>
<rect x="66" y="30" width="3.0566" height="3" fill="#4A3C0F"/>
<rect x="66" y="35" width="3.0566" height="3" fill="#4A3C0F"/>
<rect x="66" y="40" width="3.0566" height="3" fill="#4A3C0F" fill-opacity="0.5"/>
<rect x="66" y="45" width="3.0566" height="3" fill="#4A3C0F" fill-opacity="0.2"/>
<rect x="71.0944" y="35" width="3.0566" height="3" fill="#4A3C0F"/>
<rect x="71.0944" y="40" width="3.0566" height="3" fill="#4A3C0F" fill-opacity="0.5"/>
<rect x="76.1887" y="35" width="3.0566" height="3" fill="#4A3C0F"/>
<rect x="81.283" y="35" width="3.0566" height="3" fill="#4A3C0F"/>
<rect x="76.1887" y="40" width="3.0566" height="3" fill="#4A3C0F" fill-opacity="0.5"/>
<rect x="81.283" y="40" width="3.0566" height="3" fill="#4A3C0F" fill-opacity="0.5"/>
<rect x="71.0944" y="45" width="3.0566" height="3" fill="#4A3C0F" fill-opacity="0.2"/>
<rect x="76.1887" y="45" width="3.0566" height="3" fill="#4A3C0F" fill-opacity="0.2"/>
<rect x="81.283" y="45" width="3.0566" height="3" fill="#4A3C0F" fill-opacity="0.2"/>
<rect x="86.3774" y="35" width="3.0566" height="3" fill="#4A3C0F"/>
<rect x="86.3774" y="40" width="3.0566" height="3" fill="#4A3C0F" fill-opacity="0.5"/>
<rect x="86.3774" y="45" width="3.0566" height="3" fill="#4A3C0F" fill-opacity="0.2"/>
<rect x="66" y="50" width="3.0566" height="3" fill="#4A3C0F" fill-opacity="0.2"/>
<rect x="71.0944" y="50" width="3.0566" height="3" fill="#4A3C0F" fill-opacity="0.2"/>
<rect x="76.1887" y="50" width="3.0566" height="3" fill="#4A3C0F" fill-opacity="0.2"/>
<rect x="81.283" y="50" width="3.0566" height="3" fill="#4A3C0F" fill-opacity="0.2"/>
<rect x="86.3774" y="50" width="3.0566" height="3" fill="#4A3C0F" fill-opacity="0.2"/>
<rect x="86.3774" y="20" width="3.0566" height="3" fill="#4A3C0F"/>
<rect x="86.3774" y="25" width="3.0566" height="3" fill="#4A3C0F"/>
<rect x="86.3774" y="30" width="3.0566" height="3" fill="#4A3C0F"/>
<rect x="86.3774" y="5" width="3.0566" height="3" fill="#4A3C0F" fill-opacity="0.2"/>
<rect x="86.3774" y="10" width="3.0566" height="3" fill="#4A3C0F" fill-opacity="0.5"/>
<rect x="66" width="3.0566" height="3" fill="#4A3C0F" fill-opacity="0.2"/>
<rect x="71.0944" width="3.0566" height="3" fill="#4A3C0F" fill-opacity="0.2"/>
<rect x="76.1887" width="3.0566" height="3" fill="#4A3C0F" fill-opacity="0.2"/>
<rect x="81.283" width="3.0566" height="3" fill="#4A3C0F" fill-opacity="0.2"/>
<rect x="86.3774" width="3.0566" height="3" fill="#4A3C0F" fill-opacity="0.2"/>
<rect x="86.3774" y="15" width="3.0566" height="3" fill="#4A3C0F"/>
<rect x="91" y="5" width="3.0566" height="3" fill="#4A3C0F" fill-opacity="0.2"/>
<rect x="91" y="10" width="3.0566" height="3" fill="#4A3C0F" fill-opacity="0.5"/>
<rect x="91" y="15" width="3.0566" height="3" fill="#4A3C0F"/>
<rect x="96.0944" y="5" width="3.0566" height="3" fill="#4A3C0F" fill-opacity="0.2"/>
<rect x="96.0944" y="10" width="3.0566" height="3" fill="#4A3C0F" fill-opacity="0.5"/>
<rect x="101.189" y="5" width="3.0566" height="3" fill="#4A3C0F" fill-opacity="0.2"/>
<rect x="106.283" y="5" width="3.0566" height="3" fill="#4A3C0F" fill-opacity="0.2"/>
<rect x="101.189" y="10" width="3.0566" height="3" fill="#4A3C0F" fill-opacity="0.5"/>
<rect x="106.283" y="10" width="3.0566" height="3" fill="#4A3C0F" fill-opacity="0.5"/>
<rect x="96.0944" y="15" width="3.0566" height="3" fill="#4A3C0F"/>
<rect x="101.189" y="15" width="3.0566" height="3" fill="#4A3C0F"/>
<rect x="106.283" y="15" width="3.0566" height="3" fill="#4A3C0F"/>
<rect x="96.0944" y="20" width="3.0566" height="3" fill="#4A3C0F"/>
<rect x="96.0944" y="25" width="3.0566" height="3" fill="#4A3C0F"/>
<rect x="101.189" y="20" width="3.0566" height="3" fill="#4A3C0F"/>
<rect x="106.283" y="20" width="3.0566" height="3" fill="#4A3C0F"/>
<rect x="101.189" y="25" width="3.0566" height="3" fill="#4A3C0F"/>
<rect x="106.283" y="25" width="3.0566" height="3" fill="#4A3C0F"/>
<rect x="96.0944" y="30" width="3.0566" height="3" fill="#4A3C0F"/>
<rect x="101.189" y="30" width="3.0566" height="3" fill="#4A3C0F"/>
<rect x="106.283" y="30" width="3.0566" height="3" fill="#4A3C0F"/>
<rect x="91" y="20" width="3.0566" height="3" fill="#4A3C0F"/>
<rect x="91" y="25" width="3.0566" height="3" fill="#4A3C0F"/>
<rect x="91" y="30" width="3.0566" height="3" fill="#4A3C0F"/>
<rect x="91" y="35" width="3.0566" height="3" fill="#4A3C0F"/>
<rect x="91" y="40" width="3.0566" height="3" fill="#4A3C0F" fill-opacity="0.5"/>
<rect x="91" y="45" width="3.0566" height="3" fill="#4A3C0F" fill-opacity="0.2"/>
<rect x="96.0944" y="35" width="3.0566" height="3" fill="#4A3C0F"/>
<rect x="96.0944" y="40" width="3.0566" height="3" fill="#4A3C0F" fill-opacity="0.5"/>
<rect x="101.189" y="35" width="3.0566" height="3" fill="#4A3C0F"/>
<rect x="106.283" y="35" width="3.0566" height="3" fill="#4A3C0F"/>
<rect x="101.189" y="40" width="3.0566" height="3" fill="#4A3C0F" fill-opacity="0.5"/>
<rect x="106.283" y="40" width="3.0566" height="3" fill="#4A3C0F" fill-opacity="0.5"/>
<rect x="96.0944" y="45" width="3.0566" height="3" fill="#4A3C0F" fill-opacity="0.2"/>
<rect x="101.189" y="45" width="3.0566" height="3" fill="#4A3C0F" fill-opacity="0.2"/>
<rect x="106.283" y="45" width="3.0566" height="3" fill="#4A3C0F" fill-opacity="0.2"/>
<rect x="111.377" y="35" width="3.0566" height="3" fill="#4A3C0F"/>
<rect x="111.377" y="40" width="3.0566" height="3" fill="#4A3C0F" fill-opacity="0.5"/>
<rect x="111.377" y="45" width="3.0566" height="3" fill="#4A3C0F" fill-opacity="0.2"/>
<rect x="91" y="50" width="3.0566" height="3" fill="#4A3C0F" fill-opacity="0.2"/>
<rect x="96.0944" y="50" width="3.0566" height="3" fill="#4A3C0F" fill-opacity="0.2"/>
<rect x="101.189" y="50" width="3.0566" height="3" fill="#4A3C0F" fill-opacity="0.2"/>
<rect x="106.283" y="50" width="3.0566" height="3" fill="#4A3C0F" fill-opacity="0.2"/>
<rect x="111.377" y="50" width="3.0566" height="3" fill="#4A3C0F" fill-opacity="0.2"/>
<rect x="111.377" y="20" width="3.0566" height="3" fill="#4A3C0F"/>
<rect x="111.377" y="25" width="3.0566" height="3" fill="#4A3C0F"/>
<rect x="111.377" y="30" width="3.0566" height="3" fill="#4A3C0F"/>
<rect x="111.377" y="5" width="3.0566" height="3" fill="#4A3C0F" fill-opacity="0.2"/>
<rect x="111.377" y="10" width="3.0566" height="3" fill="#4A3C0F" fill-opacity="0.5"/>
<rect x="91" width="3.0566" height="3" fill="#4A3C0F" fill-opacity="0.2"/>
<rect x="96.0944" width="3.0566" height="3" fill="#4A3C0F" fill-opacity="0.2"/>
<rect x="101.189" width="3.0566" height="3" fill="#4A3C0F" fill-opacity="0.2"/>
<rect x="106.283" width="3.0566" height="3" fill="#4A3C0F" fill-opacity="0.2"/>
<rect x="111.377" width="3.0566" height="3" fill="#4A3C0F" fill-opacity="0.2"/>
<rect x="111.377" y="15" width="3.0566" height="3" fill="#4A3C0F"/>
<rect x="116" y="5" width="3.0566" height="3" fill="#4A3C0F" fill-opacity="0.2"/>
<rect x="116" y="10" width="3.0566" height="3" fill="#4A3C0F" fill-opacity="0.5"/>
<rect x="116" y="15" width="3.0566" height="3" fill="#4A3C0F"/>
<rect x="121.094" y="5" width="3.0566" height="3" fill="#4A3C0F" fill-opacity="0.2"/>
<rect x="121.094" y="10" width="3.0566" height="3" fill="#4A3C0F" fill-opacity="0.5"/>
<rect x="126.189" y="5" width="3.0566" height="3" fill="#4A3C0F" fill-opacity="0.2"/>
<rect x="131.283" y="5" width="3.0566" height="3" fill="#4A3C0F" fill-opacity="0.2"/>
<rect x="126.189" y="10" width="3.0566" height="3" fill="#4A3C0F" fill-opacity="0.5"/>
<rect x="131.283" y="10" width="3.0566" height="3" fill="#4A3C0F" fill-opacity="0.5"/>
<rect x="121.094" y="15" width="3.0566" height="3" fill="#4A3C0F"/>
<rect x="126.189" y="15" width="3.0566" height="3" fill="#4A3C0F"/>
<rect x="131.283" y="15" width="3.0566" height="3" fill="#4A3C0F"/>
<rect x="121.094" y="20" width="3.0566" height="3" fill="#4A3C0F"/>
<rect x="121.094" y="25" width="3.0566" height="3" fill="#4A3C0F"/>
<rect x="126.189" y="20" width="3.0566" height="3" fill="#4A3C0F"/>
<rect x="131.283" y="20" width="3.0566" height="3" fill="#4A3C0F"/>
<rect x="126.189" y="25" width="3.0566" height="3" fill="#4A3C0F"/>
<rect x="131.283" y="25" width="3.0566" height="3" fill="#4A3C0F"/>
<rect x="121.094" y="30" width="3.0566" height="3" fill="#4A3C0F"/>
<rect x="126.189" y="30" width="3.0566" height="3" fill="#4A3C0F"/>
<rect x="131.283" y="30" width="3.0566" height="3" fill="#4A3C0F"/>
<rect x="116" y="20" width="3.0566" height="3" fill="#4A3C0F"/>
<rect x="116" y="25" width="3.0566" height="3" fill="#4A3C0F"/>
<rect x="116" y="30" width="3.0566" height="3" fill="#4A3C0F"/>
<rect x="116" y="35" width="3.0566" height="3" fill="#4A3C0F"/>
<rect x="116" y="40" width="3.0566" height="3" fill="#4A3C0F" fill-opacity="0.5"/>
<rect x="116" y="45" width="3.0566" height="3" fill="#4A3C0F" fill-opacity="0.2"/>
<rect x="121.094" y="35" width="3.0566" height="3" fill="#4A3C0F"/>
<rect x="121.094" y="40" width="3.0566" height="3" fill="#4A3C0F" fill-opacity="0.5"/>
<rect x="126.189" y="35" width="3.0566" height="3" fill="#4A3C0F"/>
<rect x="131.283" y="35" width="3.0566" height="3" fill="#4A3C0F"/>
<rect x="126.189" y="40" width="3.0566" height="3" fill="#4A3C0F" fill-opacity="0.5"/>
<rect x="131.283" y="40" width="3.0566" height="3" fill="#4A3C0F" fill-opacity="0.5"/>
<rect x="121.094" y="45" width="3.0566" height="3" fill="#4A3C0F" fill-opacity="0.2"/>
<rect x="126.189" y="45" width="3.0566" height="3" fill="#4A3C0F" fill-opacity="0.2"/>
<rect x="131.283" y="45" width="3.0566" height="3" fill="#4A3C0F" fill-opacity="0.2"/>
<rect x="136.377" y="35" width="3.0566" height="3" fill="#4A3C0F"/>
<rect x="136.377" y="40" width="3.0566" height="3" fill="#4A3C0F" fill-opacity="0.5"/>
<rect x="136.377" y="45" width="3.0566" height="3" fill="#4A3C0F" fill-opacity="0.2"/>
<rect x="116" y="50" width="3.0566" height="3" fill="#4A3C0F" fill-opacity="0.2"/>
<rect x="121.094" y="50" width="3.0566" height="3" fill="#4A3C0F" fill-opacity="0.2"/>
<rect x="126.189" y="50" width="3.0566" height="3" fill="#4A3C0F" fill-opacity="0.2"/>
<rect x="131.283" y="50" width="3.0566" height="3" fill="#4A3C0F" fill-opacity="0.2"/>
<rect x="136.377" y="50" width="3.0566" height="3" fill="#4A3C0F" fill-opacity="0.2"/>
<rect x="136.377" y="20" width="3.0566" height="3" fill="#4A3C0F"/>
<rect x="136.377" y="25" width="3.0566" height="3" fill="#4A3C0F"/>
<rect x="136.377" y="30" width="3.0566" height="3" fill="#4A3C0F"/>
<rect x="136.377" y="5" width="3.0566" height="3" fill="#4A3C0F" fill-opacity="0.2"/>
<rect x="136.377" y="10" width="3.0566" height="3" fill="#4A3C0F" fill-opacity="0.5"/>
<rect x="116" width="3.0566" height="3" fill="#4A3C0F" fill-opacity="0.2"/>
<rect x="121.094" width="3.0566" height="3" fill="#4A3C0F" fill-opacity="0.2"/>
<rect x="126.189" width="3.0566" height="3" fill="#4A3C0F" fill-opacity="0.2"/>
<rect x="131.283" width="3.0566" height="3" fill="#4A3C0F" fill-opacity="0.2"/>
<rect x="136.377" width="3.0566" height="3" fill="#4A3C0F" fill-opacity="0.2"/>
<rect x="136.377" y="15" width="3.0566" height="3" fill="#4A3C0F"/>
<rect x="141" y="5" width="3.0566" height="3" fill="#4A3C0F" fill-opacity="0.2"/>
<rect x="141" y="10" width="3.0566" height="3" fill="#4A3C0F" fill-opacity="0.5"/>
<rect x="141" y="15" width="3.0566" height="3" fill="#4A3C0F"/>
<rect x="146.094" y="5" width="3.0566" height="3" fill="#4A3C0F" fill-opacity="0.2"/>
<rect x="146.094" y="10" width="3.0566" height="3" fill="#4A3C0F" fill-opacity="0.5"/>
<rect x="151.189" y="5" width="3.0566" height="3" fill="#4A3C0F" fill-opacity="0.2"/>
<rect x="156.283" y="5" width="3.0566" height="3" fill="#4A3C0F" fill-opacity="0.2"/>
<rect x="151.189" y="10" width="3.0566" height="3" fill="#4A3C0F" fill-opacity="0.5"/>
<rect x="156.283" y="10" width="3.0566" height="3" fill="#4A3C0F" fill-opacity="0.5"/>
<rect x="146.094" y="15" width="3.0566" height="3" fill="#4A3C0F"/>
<rect x="151.189" y="15" width="3.0566" height="3" fill="#4A3C0F"/>
<rect x="156.283" y="15" width="3.0566" height="3" fill="#4A3C0F"/>
<rect x="146.094" y="20" width="3.0566" height="3" fill="#4A3C0F"/>
<rect x="146.094" y="25" width="3.0566" height="3" fill="#4A3C0F"/>
<rect x="151.189" y="20" width="3.0566" height="3" fill="#4A3C0F"/>
<rect x="156.283" y="20" width="3.0566" height="3" fill="#4A3C0F"/>
<rect x="151.189" y="25" width="3.0566" height="3" fill="#4A3C0F"/>
<rect x="156.283" y="25" width="3.0566" height="3" fill="#4A3C0F"/>
<rect x="146.094" y="30" width="3.0566" height="3" fill="#4A3C0F"/>
<rect x="151.189" y="30" width="3.0566" height="3" fill="#4A3C0F"/>
<rect x="156.283" y="30" width="3.0566" height="3" fill="#4A3C0F"/>
<rect x="141" y="20" width="3.0566" height="3" fill="#4A3C0F"/>
<rect x="141" y="25" width="3.0566" height="3" fill="#4A3C0F"/>
<rect x="141" y="30" width="3.0566" height="3" fill="#4A3C0F"/>
<rect x="141" y="35" width="3.0566" height="3" fill="#4A3C0F"/>
<rect x="141" y="40" width="3.0566" height="3" fill="#4A3C0F" fill-opacity="0.5"/>
<rect x="141" y="45" width="3.0566" height="3" fill="#4A3C0F" fill-opacity="0.2"/>
<rect x="146.094" y="35" width="3.0566" height="3" fill="#4A3C0F"/>
<rect x="146.094" y="40" width="3.0566" height="3" fill="#4A3C0F" fill-opacity="0.5"/>
<rect x="151.189" y="35" width="3.0566" height="3" fill="#4A3C0F"/>
<rect x="156.283" y="35" width="3.0566" height="3" fill="#4A3C0F"/>
<rect x="151.189" y="40" width="3.0566" height="3" fill="#4A3C0F" fill-opacity="0.5"/>
<rect x="156.283" y="40" width="3.0566" height="3" fill="#4A3C0F" fill-opacity="0.5"/>
<rect x="146.094" y="45" width="3.0566" height="3" fill="#4A3C0F" fill-opacity="0.2"/>
<rect x="151.189" y="45" width="3.0566" height="3" fill="#4A3C0F" fill-opacity="0.2"/>
<rect x="156.283" y="45" width="3.0566" height="3" fill="#4A3C0F" fill-opacity="0.2"/>
<rect x="161.377" y="35" width="3.0566" height="3" fill="#4A3C0F"/>
<rect x="161.377" y="40" width="3.0566" height="3" fill="#4A3C0F" fill-opacity="0.5"/>
<rect x="161.377" y="45" width="3.0566" height="3" fill="#4A3C0F" fill-opacity="0.2"/>
<rect x="141" y="50" width="3.0566" height="3" fill="#4A3C0F" fill-opacity="0.2"/>
<rect x="146.094" y="50" width="3.0566" height="3" fill="#4A3C0F" fill-opacity="0.2"/>
<rect x="151.189" y="50" width="3.0566" height="3" fill="#4A3C0F" fill-opacity="0.2"/>
<rect x="156.283" y="50" width="3.0566" height="3" fill="#4A3C0F" fill-opacity="0.2"/>
<rect x="161.377" y="50" width="3.0566" height="3" fill="#4A3C0F" fill-opacity="0.2"/>
<rect x="161.377" y="20" width="3.0566" height="3" fill="#4A3C0F"/>
<rect x="161.377" y="25" width="3.0566" height="3" fill="#4A3C0F"/>
<rect x="161.377" y="30" width="3.0566" height="3" fill="#4A3C0F"/>
<rect x="161.377" y="5" width="3.0566" height="3" fill="#4A3C0F" fill-opacity="0.2"/>
<rect x="161.377" y="10" width="3.0566" height="3" fill="#4A3C0F" fill-opacity="0.5"/>
<rect x="141" width="3.0566" height="3" fill="#4A3C0F" fill-opacity="0.2"/>
<rect x="146.094" width="3.0566" height="3" fill="#4A3C0F" fill-opacity="0.2"/>
<rect x="151.189" width="3.0566" height="3" fill="#4A3C0F" fill-opacity="0.2"/>
<rect x="156.283" width="3.0566" height="3" fill="#4A3C0F" fill-opacity="0.2"/>
<rect x="161.377" width="3.0566" height="3" fill="#4A3C0F" fill-opacity="0.2"/>
<rect x="161.377" y="15" width="3.0566" height="3" fill="#4A3C0F"/>
<rect x="166" y="5" width="3.0566" height="3" fill="#4A3C0F" fill-opacity="0.2"/>
<rect x="166" y="10" width="3.0566" height="3" fill="#4A3C0F" fill-opacity="0.5"/>
<rect x="166" y="15" width="3.0566" height="3" fill="#4A3C0F"/>
<rect x="171.094" y="5" width="3.0566" height="3" fill="#4A3C0F" fill-opacity="0.2"/>
<rect x="171.094" y="10" width="3.0566" height="3" fill="#4A3C0F" fill-opacity="0.5"/>
<rect x="176.189" y="5" width="3.0566" height="3" fill="#4A3C0F" fill-opacity="0.2"/>
<rect x="181.283" y="5" width="3.0566" height="3" fill="#4A3C0F" fill-opacity="0.2"/>
<rect x="176.189" y="10" width="3.0566" height="3" fill="#4A3C0F" fill-opacity="0.5"/>
<rect x="181.283" y="10" width="3.0566" height="3" fill="#4A3C0F" fill-opacity="0.5"/>
<rect x="171.094" y="15" width="3.0566" height="3" fill="#4A3C0F"/>
<rect x="176.189" y="15" width="3.0566" height="3" fill="#4A3C0F"/>
<rect x="181.283" y="15" width="3.0566" height="3" fill="#4A3C0F"/>
<rect x="171.094" y="20" width="3.0566" height="3" fill="#4A3C0F"/>
<rect x="171.094" y="25" width="3.0566" height="3" fill="#4A3C0F"/>
<rect x="176.189" y="20" width="3.0566" height="3" fill="#4A3C0F"/>
<rect x="181.283" y="20" width="3.0566" height="3" fill="#4A3C0F"/>
<rect x="176.189" y="25" width="3.0566" height="3" fill="#4A3C0F"/>
<rect x="181.283" y="25" width="3.0566" height="3" fill="#4A3C0F"/>
<rect x="171.094" y="30" width="3.0566" height="3" fill="#4A3C0F"/>
<rect x="176.189" y="30" width="3.0566" height="3" fill="#4A3C0F"/>
<rect x="181.283" y="30" width="3.0566" height="3" fill="#4A3C0F"/>
<rect x="166" y="20" width="3.0566" height="3" fill="#4A3C0F"/>
<rect x="166" y="25" width="3.0566" height="3" fill="#4A3C0F"/>
<rect x="166" y="30" width="3.0566" height="3" fill="#4A3C0F"/>
<rect x="166" y="35" width="3.0566" height="3" fill="#4A3C0F"/>
<rect x="166" y="40" width="3.0566" height="3" fill="#4A3C0F" fill-opacity="0.5"/>
<rect x="166" y="45" width="3.0566" height="3" fill="#4A3C0F" fill-opacity="0.2"/>
<rect x="171.094" y="35" width="3.0566" height="3" fill="#4A3C0F"/>
<rect x="171.094" y="40" width="3.0566" height="3" fill="#4A3C0F" fill-opacity="0.5"/>
<rect x="176.189" y="35" width="3.0566" height="3" fill="#4A3C0F"/>
<rect x="181.283" y="35" width="3.0566" height="3" fill="#4A3C0F"/>
<rect x="176.189" y="40" width="3.0566" height="3" fill="#4A3C0F" fill-opacity="0.5"/>
<rect x="181.283" y="40" width="3.0566" height="3" fill="#4A3C0F" fill-opacity="0.5"/>
<rect x="171.094" y="45" width="3.0566" height="3" fill="#4A3C0F" fill-opacity="0.2"/>
<rect x="176.189" y="45" width="3.0566" height="3" fill="#4A3C0F" fill-opacity="0.2"/>
<rect x="181.283" y="45" width="3.0566" height="3" fill="#4A3C0F" fill-opacity="0.2"/>
<rect x="186.377" y="35" width="3.0566" height="3" fill="#4A3C0F"/>
<rect x="186.377" y="40" width="3.0566" height="3" fill="#4A3C0F" fill-opacity="0.5"/>
<rect x="186.377" y="45" width="3.0566" height="3" fill="#4A3C0F" fill-opacity="0.2"/>
<rect x="166" y="50" width="3.0566" height="3" fill="#4A3C0F" fill-opacity="0.2"/>
<rect x="171.094" y="50" width="3.0566" height="3" fill="#4A3C0F" fill-opacity="0.2"/>
<rect x="176.189" y="50" width="3.0566" height="3" fill="#4A3C0F" fill-opacity="0.2"/>
<rect x="181.283" y="50" width="3.0566" height="3" fill="#4A3C0F" fill-opacity="0.2"/>
<rect x="186.377" y="50" width="3.0566" height="3" fill="#4A3C0F" fill-opacity="0.2"/>
<rect x="186.377" y="20" width="3.0566" height="3" fill="#4A3C0F"/>
<rect x="186.377" y="25" width="3.0566" height="3" fill="#4A3C0F"/>
<rect x="186.377" y="30" width="3.0566" height="3" fill="#4A3C0F"/>
<rect x="186.377" y="5" width="3.0566" height="3" fill="#4A3C0F" fill-opacity="0.2"/>
<rect x="186.377" y="10" width="3.0566" height="3" fill="#4A3C0F" fill-opacity="0.5"/>
<rect x="166" width="3.0566" height="3" fill="#4A3C0F" fill-opacity="0.2"/>
<rect x="171.094" width="3.0566" height="3" fill="#4A3C0F" fill-opacity="0.2"/>
<rect x="176.189" width="3.0566" height="3" fill="#4A3C0F" fill-opacity="0.2"/>
<rect x="181.283" width="3.0566" height="3" fill="#4A3C0F" fill-opacity="0.2"/>
<rect x="186.377" width="3.0566" height="3" fill="#4A3C0F" fill-opacity="0.2"/>
<rect x="186.377" y="15" width="3.0566" height="3" fill="#4A3C0F"/>
<rect x="191" y="5" width="3.0566" height="3" fill="#4A3C0F" fill-opacity="0.2"/>
<rect x="191" y="10" width="3.0566" height="3" fill="#4A3C0F" fill-opacity="0.5"/>
<rect x="191" y="15" width="3.0566" height="3" fill="#4A3C0F"/>
<rect x="196.094" y="5" width="3.0566" height="3" fill="#4A3C0F" fill-opacity="0.2"/>
<rect x="196.094" y="10" width="3.0566" height="3" fill="#4A3C0F" fill-opacity="0.5"/>
<rect x="201.189" y="5" width="3.0566" height="3" fill="#4A3C0F" fill-opacity="0.2"/>
<rect x="206.283" y="5" width="3.0566" height="3" fill="#4A3C0F" fill-opacity="0.2"/>
<rect x="201.189" y="10" width="3.0566" height="3" fill="#4A3C0F" fill-opacity="0.5"/>
<rect x="206.283" y="10" width="3.0566" height="3" fill="#4A3C0F" fill-opacity="0.5"/>
<rect x="196.094" y="15" width="3.0566" height="3" fill="#4A3C0F"/>
<rect x="201.189" y="15" width="3.0566" height="3" fill="#4A3C0F"/>
<rect x="206.283" y="15" width="3.0566" height="3" fill="#4A3C0F"/>
<rect x="196.094" y="20" width="3.0566" height="3" fill="#4A3C0F"/>
<rect x="196.094" y="25" width="3.0566" height="3" fill="#4A3C0F"/>
<rect x="201.189" y="20" width="3.0566" height="3" fill="#4A3C0F"/>
<rect x="206.283" y="20" width="3.0566" height="3" fill="#4A3C0F"/>
<rect x="201.189" y="25" width="3.0566" height="3" fill="#4A3C0F"/>
<rect x="206.283" y="25" width="3.0566" height="3" fill="#4A3C0F"/>
<rect x="196.094" y="30" width="3.0566" height="3" fill="#4A3C0F"/>
<rect x="201.189" y="30" width="3.0566" height="3" fill="#4A3C0F"/>
<rect x="206.283" y="30" width="3.0566" height="3" fill="#4A3C0F"/>
<rect x="191" y="20" width="3.0566" height="3" fill="#4A3C0F"/>
<rect x="191" y="25" width="3.0566" height="3" fill="#4A3C0F"/>
<rect x="191" y="30" width="3.0566" height="3" fill="#4A3C0F"/>
<rect x="191" y="35" width="3.0566" height="3" fill="#4A3C0F"/>
<rect x="191" y="40" width="3.0566" height="3" fill="#4A3C0F" fill-opacity="0.5"/>
<rect x="191" y="45" width="3.0566" height="3" fill="#4A3C0F" fill-opacity="0.2"/>
<rect x="196.094" y="35" width="3.0566" height="3" fill="#4A3C0F"/>
<rect x="196.094" y="40" width="3.0566" height="3" fill="#4A3C0F" fill-opacity="0.5"/>
<rect x="201.189" y="35" width="3.0566" height="3" fill="#4A3C0F"/>
<rect x="206.283" y="35" width="3.0566" height="3" fill="#4A3C0F"/>
<rect x="201.189" y="40" width="3.0566" height="3" fill="#4A3C0F" fill-opacity="0.5"/>
<rect x="206.283" y="40" width="3.0566" height="3" fill="#4A3C0F" fill-opacity="0.5"/>
<rect x="196.094" y="45" width="3.0566" height="3" fill="#4A3C0F" fill-opacity="0.2"/>
<rect x="201.189" y="45" width="3.0566" height="3" fill="#4A3C0F" fill-opacity="0.2"/>
<rect x="206.283" y="45" width="3.0566" height="3" fill="#4A3C0F" fill-opacity="0.2"/>
<rect x="211.377" y="35" width="3.0566" height="3" fill="#4A3C0F"/>
<rect x="211.377" y="40" width="3.0566" height="3" fill="#4A3C0F" fill-opacity="0.5"/>
<rect x="211.377" y="45" width="3.0566" height="3" fill="#4A3C0F" fill-opacity="0.2"/>
<rect x="191" y="50" width="3.0566" height="3" fill="#4A3C0F" fill-opacity="0.2"/>
<rect x="196.094" y="50" width="3.0566" height="3" fill="#4A3C0F" fill-opacity="0.2"/>
<rect x="201.189" y="50" width="3.0566" height="3" fill="#4A3C0F" fill-opacity="0.2"/>
<rect x="206.283" y="50" width="3.0566" height="3" fill="#4A3C0F" fill-opacity="0.2"/>
<rect x="211.377" y="50" width="3.0566" height="3" fill="#4A3C0F" fill-opacity="0.2"/>
<rect x="211.377" y="20" width="3.0566" height="3" fill="#4A3C0F"/>
<rect x="211.377" y="25" width="3.0566" height="3" fill="#4A3C0F"/>
<rect x="211.377" y="30" width="3.0566" height="3" fill="#4A3C0F"/>
<rect x="211.377" y="5" width="3.0566" height="3" fill="#4A3C0F" fill-opacity="0.2"/>
<rect x="211.377" y="10" width="3.0566" height="3" fill="#4A3C0F" fill-opacity="0.5"/>
<rect x="191" width="3.0566" height="3" fill="#4A3C0F" fill-opacity="0.2"/>
<rect x="196.094" width="3.0566" height="3" fill="#4A3C0F" fill-opacity="0.2"/>
<rect x="201.189" width="3.0566" height="3" fill="#4A3C0F" fill-opacity="0.2"/>
<rect x="206.283" width="3.0566" height="3" fill="#4A3C0F" fill-opacity="0.2"/>
<rect x="211.377" width="3.0566" height="3" fill="#4A3C0F" fill-opacity="0.2"/>
<rect x="211.377" y="15" width="3.0566" height="3" fill="#4A3C0F"/>
<rect x="216" y="5" width="3.0566" height="3" fill="#4A3C0F" fill-opacity="0.2"/>
<rect x="216" y="10" width="3.0566" height="3" fill="#4A3C0F" fill-opacity="0.5"/>
<rect x="216" y="15" width="3.0566" height="3" fill="#4A3C0F"/>
<rect x="216" y="20" width="3.0566" height="3" fill="#4A3C0F"/>
<rect x="216" y="25" width="3.0566" height="3" fill="#4A3C0F"/>
<rect x="216" y="30" width="3.0566" height="3" fill="#4A3C0F"/>
<rect x="216" y="35" width="3.0566" height="3" fill="#4A3C0F"/>
<rect x="216" y="40" width="3.0566" height="3" fill="#4A3C0F" fill-opacity="0.5"/>
<rect x="216" y="45" width="3.0566" height="3" fill="#4A3C0F" fill-opacity="0.2"/>
<rect x="221.094" y="35" width="3.0566" height="3" fill="#4A3C0F"/>
<rect x="221.094" y="40" width="3.0566" height="3" fill="#4A3C0F" fill-opacity="0.5"/>
<rect x="221.094" y="45" width="3.0566" height="3" fill="#4A3C0F" fill-opacity="0.2"/>
<rect x="216" y="50" width="3.0566" height="3" fill="#4A3C0F" fill-opacity="0.2"/>
<rect x="221.094" y="50" width="3.0566" height="3" fill="#4A3C0F" fill-opacity="0.2"/>
<rect x="221.094" y="20" width="3.0566" height="3" fill="#4A3C0F"/>
<rect x="221.094" y="25" width="3.0566" height="3" fill="#4A3C0F"/>
<rect x="221.094" y="30" width="3.0566" height="3" fill="#4A3C0F"/>
<rect x="221.094" y="5" width="3.0566" height="3" fill="#4A3C0F" fill-opacity="0.2"/>
<rect x="221.094" y="10" width="3.0566" height="3" fill="#4A3C0F" fill-opacity="0.5"/>
<rect x="216" width="3.0566" height="3" fill="#4A3C0F" fill-opacity="0.2"/>
<rect x="221.094" width="3.0566" height="3" fill="#4A3C0F" fill-opacity="0.2"/>
<rect x="221.094" y="15" width="3.0566" height="3" fill="#4A3C0F"/>
<rect x="226" y="35" width="3.0566" height="3" fill="#4A3C0F" fill-opacity="0.5"/>
<rect x="231.057" y="35" width="3.0566" height="3" fill="#4A3C0F" fill-opacity="0.2"/>
<rect x="226" y="40" width="3.0566" height="3" fill="#4A3C0F" fill-opacity="0.5"/>
<rect x="231.057" y="40" width="3.0566" height="3" fill="#4A3C0F" fill-opacity="0.2"/>
<rect x="226" y="45" width="3.0566" height="3" fill="#4A3C0F" fill-opacity="0.2"/>
<rect x="226" y="50" width="3.0566" height="3" fill="#4A3C0F" fill-opacity="0.2"/>
<rect x="231.057" y="45" width="3.0566" height="3" fill="#4A3C0F" fill-opacity="0.2"/>
<rect x="226" y="20" width="3.0566" height="3" fill="#4A3C0F" fill-opacity="0.5"/>
<rect x="231.057" y="20" width="3.0566" height="3" fill="#4A3C0F" fill-opacity="0.2"/>
<rect x="226" y="25" width="3.0566" height="3" fill="#4A3C0F" fill-opacity="0.5"/>
<rect x="231.057" y="25" width="3.0566" height="3" fill="#4A3C0F" fill-opacity="0.2"/>
<rect x="226" y="30" width="3.0566" height="3" fill="#4A3C0F" fill-opacity="0.5"/>
<rect x="231.057" y="30" width="3.0566" height="3" fill="#4A3C0F" fill-opacity="0.2"/>
<rect x="226" y="5" width="3.0566" height="3" fill="#4A3C0F" fill-opacity="0.2"/>
<rect x="226" width="3.0566" height="3" fill="#4A3C0F" fill-opacity="0.2"/>
<rect x="231.057" y="5" width="3.0566" height="3" fill="#4A3C0F" fill-opacity="0.2"/>
<rect x="226" y="10" width="3.0566" height="3" fill="#4A3C0F" fill-opacity="0.5"/>
<rect x="231.057" y="10" width="3.0566" height="3" fill="#4A3C0F" fill-opacity="0.2"/>
<rect x="226" y="15" width="3.0566" height="3" fill="#4A3C0F" fill-opacity="0.5"/>
<rect x="231" y="15" width="3.0566" height="3" fill="#4A3C0F" fill-opacity="0.2"/>
<rect x="236.113" y="35" width="3.0566" height="3" fill="#4A3C0F" fill-opacity="0.2"/>
<rect x="236.113" y="40" width="3.0566" height="3" fill="#4A3C0F" fill-opacity="0.2"/>
<rect x="236.113" y="20" width="3.0566" height="3" fill="#4A3C0F" fill-opacity="0.2"/>
<rect x="236.113" y="25" width="3.0566" height="3" fill="#4A3C0F" fill-opacity="0.2"/>
<rect x="236.113" y="30" width="3.0566" height="3" fill="#4A3C0F" fill-opacity="0.2"/>
<rect x="236.113" y="10" width="3.0566" height="3" fill="#4A3C0F" fill-opacity="0.2"/>
<rect x="236.113" y="15" width="3.0566" height="3" fill="#4A3C0F" fill-opacity="0.2"/>
<path d="M19.75 32.125V30.25H17.875V28.375H16V22.75H17.875V20.875H19.75V19H27.25V20.875H29.125V22.75H25.375V20.875H21.625V22.75H19.75V28.375H21.625V30.25H25.375V28.375H29.125V30.25H27.25V32.125H19.75ZM32.875 32.125V19H36.625V30.25H44.125V32.125H32.875ZM47.875 32.125V30.25H51.625V20.875H47.875V19H59.125V20.875H55.375V30.25H59.125V32.125H47.875ZM64.75 32.125V30.25H62.875V28.375H61V22.75H62.875V20.875H64.75V19H72.25V20.875H74.125V22.75H70.375V20.875H66.625V22.75H64.75V28.375H66.625V30.25H70.375V28.375H74.125V30.25H72.25V32.125H64.75ZM76 32.125V19H79.75V24.625H81.625V22.75H83.5V20.875H85.375V19H89.125V20.875H87.25V22.75H85.375V24.625H83.5V26.5H85.375V28.375H87.25V30.25H89.125V32.125H83.5V30.25H81.625V28.375H79.75V32.125H76ZM111.625 32.125V20.875H107.875V19H119.125V20.875H115.375V32.125H111.625ZM122.875 32.125V30.25H121V20.875H122.875V19H132.25V20.875H134.125V30.25H132.25V32.125H122.875ZM124.75 30.25H130.375V20.875H124.75V30.25ZM152.875 32.125V30.25H151V28.375H154.75V30.25H160.375V26.5H152.875V24.625H151V20.875H152.875V19H162.25V20.875H164.125V22.75H160.375V20.875H154.75V24.625H162.25V26.5H164.125V30.25H162.25V32.125H152.875ZM171.625 32.125V20.875H167.875V19H179.125V20.875H175.375V32.125H171.625ZM181 32.125V22.75H182.875V20.875H184.75V19H190.375V20.875H192.25V22.75H194.125V32.125H190.375V28.375H184.75V32.125H181ZM184.75 26.5H190.375V22.75H188.5V20.875H186.625V22.75H184.75V26.5ZM196 32.125V19H207.25V20.875H209.125V26.5H205.375V28.375H207.25V30.25H209.125V32.125H203.5V30.25H201.625V28.375H199.75V32.125H196ZM199.75 26.5H203.5V24.625H205.375V20.875H199.75V26.5ZM216.625 32.125V20.875H212.875V19H224.125V20.875H220.375V32.125H216.625Z" fill="white"/>
</svg>
