<svg width="18" height="18" viewBox="0 0 18 18" fill="none" xmlns="http://www.w3.org/2000/svg">
<path d="M18 10.2883H17.145V14.5746H18V10.2883Z" fill="white"/>
<path d="M17.145 14.5742H16.2844V15.4292H17.145V14.5742Z" fill="white"/>
<path d="M17.145 9.42749H16.2844V10.2881H17.145V9.42749Z" fill="white"/>
<path d="M16.2844 15.4294H15.4294V17.1451H16.2844V15.4294Z" fill="white"/>
<path d="M16.2844 6.85676H15.4294V6.00176H12.8588V6.85676H12.0038V4.28613H11.1432V8.57239H15.4294V9.42739H16.2844V6.85676Z" fill="white"/>
<path d="M14.5744 9.42749H13.7137V12.0037H14.5744V9.42749Z" fill="white"/>
<path d="M15.4294 4.28625V3.43125H16.2844V0.860626H15.4294V0H12.8588V0.860626H12.0038V3.43125H12.8588V4.28625H15.4294Z" fill="white"/>
<path d="M12.0038 9.42749H11.1432V12.0037H12.0038V9.42749Z" fill="white"/>
<path d="M11.1432 3.43115H9.42755V4.28615H11.1432V3.43115Z" fill="white"/>
<path d="M9.42745 14.5742H8.57245V17.1448H9.42745V14.5742Z" fill="white"/>
<path d="M8.57252 6.00176H6.85689V6.85676H6.00189V12.8586H6.85689V9.42739H8.57252V11.143H9.42752V4.28613H8.57252V6.00176Z" fill="white"/>
<path d="M8.57253 13.7139H7.71753V14.5745H8.57253V13.7139Z" fill="white"/>
<path d="M7.7175 12.8589H6.85687V13.7139H7.7175V12.8589Z" fill="white"/>
<path d="M7.71752 4.28625V3.43125H8.57252V2.57063H10.2881V0.860626H9.42752V0H6.85689V0.860626H6.00189V3.43125H6.85689V4.28625H7.71752Z" fill="white"/>
<path d="M0.860626 16.2902H3.43125V15.4295H4.28625V12.8589H3.43125V12.0039H0.860626V12.8589H0V15.4295H0.860626V16.2902Z" fill="white"/>
<path d="M0.860626 10.288H3.43125V9.42734H4.28625V6.85671H3.43125V6.00171H0.860626V6.85671H0V9.42734H0.860626V10.288Z" fill="white"/>
<path d="M0.860626 4.28625H3.43125V3.43125H4.28625V0.860626H3.43125V0H0.860626V0.860626H0V3.43125H0.860626V4.28625Z" fill="white"/>
</svg>
