<svg width="20" height="20" viewBox="0 0 20 20" fill="none" xmlns="http://www.w3.org/2000/svg">
<path d="M20 1.90625H19.0437V4.7625H20V1.90625Z" fill="#FFC107"/>
<path d="M19.0437 4.76245H18.0938V5.71245H19.0437V4.76245Z" fill="#FFC107"/>
<path d="M19.0437 0.949951H18.0938V1.9062H19.0437V0.949951Z" fill="#FFC107"/>
<path d="M18.0937 8.56885H17.1437V13.3313H18.0937V8.56885Z" fill="#FFC107"/>
<path d="M18.0937 3.8125H17.1437V4.7625H18.0937V3.8125Z" fill="#FFC107"/>
<path d="M17.1438 19.05H16.1875V20H17.1438V19.05Z" fill="#FFC107"/>
<path d="M17.1438 13.3313H16.1875V15.2375H17.1438V13.3313Z" fill="#FFC107"/>
<path d="M17.1438 6.6687H16.1875V8.5687H17.1438V6.6687Z" fill="#FFC107"/>
<path d="M17.1438 2.8562H16.1875V3.81245H17.1438V2.8562Z" fill="#FFC107"/>
<path d="M18.0938 0H15.2375V0.95H18.0938V0Z" fill="#FFC107"/>
<path d="M16.1875 18.0938H15.2375V19.05H16.1875V18.0938Z" fill="#FFC107"/>
<path d="M16.1875 15.2375H15.2375V16.1875H16.1875V15.2375Z" fill="#FFC107"/>
<path d="M16.1875 10.4751H15.2375V11.4313H16.1875V10.4751Z" fill="#FFC107"/>
<path d="M16.1875 5.7124H15.2375V6.66865H16.1875V5.7124Z" fill="#FFC107"/>
<path d="M16.1875 1.90625H15.2375V2.85625H16.1875V1.90625Z" fill="#FFC107"/>
<path d="M14.2813 17.1438H12.3813V18.0938H15.2375V16.1875H14.2813V17.1438Z" fill="#FFC107"/>
<path d="M15.2375 4.76245H14.2812V5.71245H15.2375V4.76245Z" fill="#FFC107"/>
<path d="M15.2375 0.949951H14.2812V1.9062H15.2375V0.949951Z" fill="#FFC107"/>
<path d="M14.2813 14.2876H13.3313V15.2376H14.2813V14.2876Z" fill="#FFC107"/>
<path d="M14.2813 6.6687H13.3313V7.6187H14.2813V6.6687Z" fill="#FFC107"/>
<path d="M13.3313 10.475H11.425V9.52495H10.475V6.6687H9.52501V9.52495H8.56876V12.3812H11.425V11.4312H13.3313V10.475Z" fill="#FFC107"/>
<path d="M14.2813 3.8125H12.3813V4.7625H14.2813V3.8125Z" fill="#FFC107"/>
<path d="M12.3812 18.0938H7.61874V19.05H12.3812V18.0938Z" fill="#FFC107"/>
<path d="M10.475 16.1875H9.52501V17.1438H10.475V16.1875Z" fill="#FFC107"/>
<path d="M10.475 4.76245H9.52501V5.71245H10.475V4.76245Z" fill="#FFC107"/>
<path d="M12.3812 2.8562H7.61874V3.81245H12.3812V2.8562Z" fill="#FFC107"/>
<path d="M5.7125 17.1438V16.1875H4.7625V18.0938H7.61875V17.1438H5.7125Z" fill="#FFC107"/>
<path d="M7.61874 3.8125H5.71249V4.7625H7.61874V3.8125Z" fill="#FFC107"/>
<path d="M6.66249 14.2876H5.71249V15.2376H6.66249V14.2876Z" fill="#FFC107"/>
<path d="M6.66249 6.6687H5.71249V7.6187H6.66249V6.6687Z" fill="#FFC107"/>
<path d="M5.7125 4.76245H4.7625V5.71245H5.7125V4.76245Z" fill="#FFC107"/>
<path d="M5.7125 0.949951H4.7625V1.9062H5.7125V0.949951Z" fill="#FFC107"/>
<path d="M4.76249 18.0938H3.80624V19.05H4.76249V18.0938Z" fill="#FFC107"/>
<path d="M4.76249 15.2375H3.80624V16.1875H4.76249V15.2375Z" fill="#FFC107"/>
<path d="M4.76249 10.4751H3.80624V11.4313H4.76249V10.4751Z" fill="#FFC107"/>
<path d="M4.76249 5.7124H3.80624V6.66865H4.76249V5.7124Z" fill="#FFC107"/>
<path d="M4.76249 1.90625H3.80624V2.85625H4.76249V1.90625Z" fill="#FFC107"/>
<path d="M3.80626 19.05H2.85626V20H3.80626V19.05Z" fill="#FFC107"/>
<path d="M3.80626 13.3313H2.85626V15.2375H3.80626V13.3313Z" fill="#FFC107"/>
<path d="M3.80626 6.6687H2.85626V8.5687H3.80626V6.6687Z" fill="#FFC107"/>
<path d="M3.80626 2.8562H2.85626V3.81245H3.80626V2.8562Z" fill="#FFC107"/>
<path d="M4.7625 0H1.90625V0.95H4.7625V0Z" fill="#FFC107"/>
<path d="M2.85625 8.56885H1.90625V13.3313H2.85625V8.56885Z" fill="#FFC107"/>
<path d="M2.85625 3.8125H1.90625V4.7625H2.85625V3.8125Z" fill="#FFC107"/>
<path d="M1.90625 4.76245H0.949997V5.71245H1.90625V4.76245Z" fill="#FFC107"/>
<path d="M1.90625 0.949951H0.949997V1.9062H1.90625V0.949951Z" fill="#FFC107"/>
<path d="M0.95 1.90625H0V4.7625H0.95V1.90625Z" fill="#FFC107"/>
</svg>
