<svg width="200" height="122" viewBox="0 0 200 122" fill="none" xmlns="http://www.w3.org/2000/svg">
<path d="M197.045 119.252V116.769H194.09H191.138H188.184V119.252V121.737H191.138H194.09H197.045H200V119.252H197.045Z" fill="#E54C34"/>
<path d="M188.184 77.0167H185.229V79.502V81.9848H188.184V84.4701H191.138V81.9848V79.502V77.0167H188.184Z" fill="#FFE057"/>
<path d="M188.184 47.2031V44.7203H185.229H182.277V47.2031H185.229V49.6884V52.1737V54.6565V57.1418V59.6271V62.1099V64.5952V67.078V69.5633V72.0486V74.5314V77.0167H188.184H191.138V74.5314V72.0486V69.5633V67.078V64.5952V62.1099V59.6271V57.1418V54.6565V52.1737V49.6884V47.2031H188.184Z" fill="#60C0AF"/>
<path d="M179.322 17.3896V19.875H176.37V22.3603H179.322V24.843V27.3283H182.277V24.843V22.3603V19.875V17.3896H179.322Z" fill="#393939"/>
<path d="M170.46 24.843V27.3283V29.8136H173.415V27.3283V24.843H170.46Z" fill="#1E1E1E"/>
<path d="M191.138 114.284V111.798V109.316V106.83V104.345H188.184V101.862H185.229V104.345V106.83V109.316V111.798H188.184V114.284V116.769H191.138H194.09V114.284H191.138Z" fill="#FFE057"/>
<path d="M167.509 101.862V104.345V106.83V109.316V111.798V114.284V116.769H170.46H173.415V114.284V111.798V109.316V106.83V104.345V101.862H170.46H167.509Z" fill="#FFE057"/>
<path d="M185.229 86.9554V84.4701H182.277V81.9848V79.502V77.0167H179.322H176.37V79.502V81.9848V84.4701H179.322V86.9554V89.4382V91.9235H182.277V94.4088V96.8916V99.3769V101.862H185.229H188.184V99.3769V96.8916V94.4088V91.9235V89.4382V86.9554H185.229Z" fill="#40586B"/>
<path d="M164.554 77.0167V79.502V81.9848V84.4701V86.9554V89.4382V91.9235V94.4088V96.8916V99.3769V101.862H167.509H170.46V99.3769V96.8916V94.4088V91.9235V89.4382V86.9554V84.4701V81.9848V79.502V77.0167H167.509H164.554Z" fill="#40586B"/>
<path d="M182.277 47.2031V44.7203H179.322H176.37V47.2031H173.415H170.46V44.7203H167.509H164.554V47.2031V49.6884V52.1737V54.6565V57.1418V59.6271V62.1099V64.5952V67.078V69.5633V72.0486V74.5314V77.0167H167.509H170.46H173.415H176.37H179.322H182.277H185.229V74.5314V72.0486V69.5633V67.078V64.5952V62.1099V59.6271V57.1418V54.6565V52.1737V49.6884V47.2031H182.277Z" fill="#E54C34"/>
<path d="M170.46 116.769H167.509H164.554V119.252H161.599V121.737H164.554H167.509H170.46H173.415V119.252V116.769H170.46Z" fill="#E54C34"/>
<path d="M164.554 27.3282V29.8135H161.599V32.2963H164.554H167.509V29.8135V27.3282H164.554Z" fill="#E6675D"/>
<path d="M161.599 24.843V27.3283V29.8136H164.554V27.3283V24.843H161.599Z" fill="#1E1E1E"/>
<path d="M161.599 77.0168V74.5315H158.647V77.0168V79.5021V81.9849V84.4702H161.599V81.9849H164.554V79.5021V77.0168H161.599Z" fill="#FFE057"/>
<path d="M161.599 47.2031V49.6884V52.1737V54.6565V57.1418V59.6271V62.1099V64.5952V67.078V69.5633H158.647V72.0486V74.5314H161.599V77.0167H164.554V74.5314V72.0486V69.5633V67.078V64.5952V62.1099V59.6271V57.1418V54.6565V52.1737V49.6884V47.2031H161.599Z" fill="#60C0AF"/>
<path d="M179.322 27.3283V24.843V22.3602H176.37H173.415H170.46H167.509H164.554H161.599H158.647V24.843V27.3283V29.8136V32.2964V34.7817V37.267V39.7498H161.599V42.2351H164.554H167.509H170.46V44.7204V47.2032H173.415H176.37V44.7204V42.2351H179.322V39.7498V37.267V34.7817H182.277V32.2964V29.8136V27.3283H179.322ZM173.415 24.843V27.3283V29.8136H170.46V27.3283V24.843H173.415ZM161.599 29.8136V27.3283V24.843H164.554V27.3283H167.509V29.8136V32.2964H164.554H161.599V29.8136Z" fill="#FFE057"/>
<path d="M182.277 4.96814H179.322V7.45344H182.277V4.96814Z" fill="#282828"/>
<path d="M176.37 7.45339V4.96809V2.48279H173.415V4.96809H170.46H167.509H164.554V7.45339H161.599V9.93618H158.647V12.4215H155.692V14.9068V17.3896V19.8749H152.737V22.3602H155.692V24.843H158.647V22.3602H161.599H164.554H167.509H170.46H173.415H176.37V19.8749H179.322V17.3896H182.277V14.9068V12.4215V9.93618H179.322V7.45339H176.37Z" fill="#282828"/>
<path d="M173.415 0H170.46V2.48278H173.415V0Z" fill="#282828"/>
<path d="M155.692 24.843H152.737V27.3283H155.692V24.843Z" fill="#282828"/>
<path d="M152.737 17.3896H149.785V19.875H152.737V17.3896Z" fill="#282828"/>
<path d="M139.938 114.284H136.983V116.769H139.938V114.284Z" fill="#102E46"/>
<path d="M145.844 72.0487V69.5634H142.893V72.0487H139.938H136.983V74.5314H139.938H142.893H145.844H148.799V72.0487H145.844Z" fill="#FFE057"/>
<path d="M139.938 69.5634H136.983V72.0487H139.938H142.893V69.5634H139.938Z" fill="#2DD7ED"/>
<path d="M134.031 64.5952V67.078V69.5633H136.983V67.078V64.5952H134.031Z" fill="#2DD7ED"/>
<path d="M139.938 59.6271H136.983V62.1099H139.938H142.893V59.6271H139.938Z" fill="#26778E"/>
<path d="M136.983 62.11H134.031V64.5953H136.983V62.11Z" fill="#26778E"/>
<path d="M148.799 57.1418V54.6565H145.844V52.1737H142.893V49.6884H139.938V47.2031H136.983H134.031V49.6884V52.1737V54.6565V57.1418V59.6271V62.1099H136.983V59.6271H139.938H142.893V62.1099H139.938H136.983V64.5952V67.078V69.5633H139.938H142.893H145.844V67.078H148.799H151.754V64.5952V62.1099V59.6271V57.1418H148.799Z" fill="#339FBD"/>
<path d="M134.031 69.5633V67.078V64.5953V62.11V59.6272V57.1419V54.6566V52.1738V49.6885H131.076V52.1738V54.6566V57.1419V59.6272V62.11V64.5953V67.078V69.5633V72.0487V74.5314H134.031H136.983V72.0487V69.5633H134.031Z" fill="#60C0AF"/>
<path d="M128.121 52.1737V54.6565V57.1418V59.6271V62.1099V64.5952V67.078V69.5633V72.0486V74.5314H131.076V72.0486V69.5633V67.078V64.5952V62.1099V59.6271V57.1418V54.6565V52.1737H128.121Z" fill="#2DD7ED"/>
<path d="M119.26 114.284H116.308V116.769H119.26V114.284Z" fill="#102E46"/>
<path d="M134.031 74.5314H131.076H128.121V72.0487V69.5634V67.078V64.5953V62.11V59.6272V57.1419V54.6566V52.1738H125.17V49.6885H122.215H119.26V52.1738V54.6566V57.1419V59.6272V62.11V64.5953V67.078V69.5634V72.0487V74.5314H116.308H113.353V77.0167V79.502V81.9848V84.4701V86.9554V89.4382H116.308H119.26H122.215H125.17H128.121H131.076H134.031H136.983V86.9554V84.4701V81.9848V79.502V77.0167V74.5314H134.031Z" fill="white"/>
<path d="M113.353 47.2031V49.6884V52.1737V54.6565V57.1418V59.6271V62.1099V64.5952V67.078V69.5633V72.0486V74.5314H116.308V72.0486V69.5633V67.078V64.5952V62.1099V59.6271V57.1418V54.6565V52.1737V49.6884V47.2031H113.353Z" fill="#60C0AF"/>
<path d="M119.26 44.7203H116.308H113.353V47.2031H116.308V49.6884V52.1737V54.6565V57.1418V59.6271V62.1099V64.5952V67.078V69.5633V72.0486V74.5314H119.26V72.0486V69.5633V67.078V64.5952V62.1099V59.6271V57.1418V54.6565V52.1737V49.6884V47.2031H122.215V44.7203H119.26Z" fill="#2DD7ED"/>
<path d="M116.308 29.8136V32.2964H113.353V34.7817H116.308H119.26V32.2964V29.8136H116.308Z" fill="#E6675D"/>
<path d="M139.938 119.252H136.983V116.769H134.031H131.076V119.252V121.737H134.031H136.983H139.938H142.893V119.252H139.938Z" fill="#102E46"/>
<path d="M116.308 116.769H113.353H110.398V119.252V121.737H113.353H116.308H119.26V119.252H116.308V116.769Z" fill="#102E46"/>
<path d="M134.031 106.83V104.345V101.862V99.3769V96.8916V94.4088V91.9235V89.4382H131.076H128.121V91.9235V94.4088V96.8916V99.3769V101.862V104.345H131.076V106.83V109.316V111.798V114.284V116.769H134.031H136.983V114.284V111.798V109.316V106.83H134.031Z" fill="#5B6A8B"/>
<path d="M116.308 89.4382V91.9235V94.4088V96.8916V99.3769V101.862V104.345V106.83H113.353V109.316V111.798V114.284H110.398V116.769H113.353H116.308V114.284V111.798H119.26V109.316V106.83V104.345H122.215V101.862V99.3769V96.8916V94.4088V91.9235V89.4382H119.26H116.308Z" fill="#5B6A8B"/>
<path d="M131.076 29.8136V32.2964V34.7817H134.031V32.2964V29.8136H131.076Z" fill="#FFE057"/>
<path d="M125.169 34.7817H122.215V32.2964V29.8136H119.26V32.2964V34.7817H116.308H113.353H110.398V37.267V39.7498H113.353V42.2351H116.308H119.26H122.215V44.7204V47.2032H119.26V49.6885H122.215H125.169H128.121V47.2032V44.7204V42.2351H131.076V39.7498V37.267V34.7817H128.121H125.169Z" fill="#FFE057"/>
<path d="M110.398 64.5952V67.078V69.5633H107.446V72.0486H110.398H113.353V69.5633V67.078V64.5952H110.398Z" fill="#2DD7ED"/>
<path d="M134.031 27.3282H131.076H128.121H125.17H122.215H119.26H116.308H113.353H110.398H107.446V29.8135V32.2963V34.7816H110.398H113.353V32.2963H116.308V29.8135H119.26H122.215V32.2963V34.7816H125.17H128.121H131.076V32.2963V29.8135H134.031H136.983V27.3282H134.031Z" fill="#1E1E1E"/>
<path d="M113.353 62.11H110.398V64.5953H113.353V62.11Z" fill="#26778E"/>
<path d="M107.446 59.6271H104.491V62.1099H107.446H110.398V59.6271H107.446Z" fill="#26778E"/>
<path d="M116.308 42.235H113.353V39.7497H110.398V37.2669V34.7816H107.446V37.2669V39.7497V42.235V44.7203V47.2031V49.6884H110.398V47.2031H113.353V44.7203H116.308H119.26H122.215V42.235H119.26H116.308Z" fill="#393939"/>
<path d="M107.446 49.6885H104.491V52.1738H107.446V49.6885Z" fill="#5B6A8B"/>
<path d="M136.983 19.8749V17.3895V14.9068H134.031V12.4215H131.076V9.93616H128.121H125.169H122.215H119.26H116.308V12.4215H113.353H110.398V14.9068H107.446V17.3895V19.8749H104.491V22.3602V24.8429V27.3282H107.446H110.398H113.353H116.308H119.26H122.215H125.169H128.121H131.076H134.031H136.983V29.8135H134.031V32.2963V34.7816H131.076V37.2669V39.7497V42.235H128.121V44.7203V47.2031V49.6884H125.169V52.1737H128.121H131.076V49.6884H134.031V47.2031H136.983V44.7203V42.235H139.938V39.7497V37.2669V34.7816V32.2963V29.8135V27.3282V24.8429V22.3602V19.8749H136.983Z" fill="#393939"/>
<path d="M110.398 72.0487H107.446V69.5634H104.492V72.0487H101.54V74.5314H104.492H107.446H110.398H113.353V72.0487H110.398Z" fill="#FFE057"/>
<path d="M110.398 47.2031V49.6884H107.446V52.1737H104.491V54.6565H101.54V57.1418V59.6271H98.5847V62.1099V64.5952V67.078H101.54V69.5633H104.491H107.446H110.398V67.078V64.5952V62.1099H107.446H104.491V59.6271H107.446H110.398V62.1099H113.353V59.6271V57.1418V54.6565V52.1737V49.6884V47.2031H110.398Z" fill="#339FBD"/>
<path d="M89.2997 114.284H86.3448V116.769H89.2997V114.284Z" fill="#60C0AF"/>
<path d="M89.2997 77.0167H86.3448V79.502V81.9848H89.2997V84.4701V86.9554H92.2546V84.4701V81.9848V79.502V77.0167H89.2997Z" fill="#FFE057"/>
<path d="M86.3448 52.1737V54.6565V57.1418V59.6271V62.1099V64.5952V67.078V69.5633V72.0486H89.2997V69.5633V67.078V64.5952V62.1099V59.6271V57.1418V54.6565V52.1737H86.3448Z" fill="#6A8E13"/>
<path d="M86.3448 116.769H83.3929V119.252H86.3448V116.769Z" fill="#60C0AF"/>
<path d="M89.2997 111.798H86.3448H83.3929V114.284V116.769H86.3448V114.284H89.2997V116.769H92.2545V114.284V111.798H89.2997Z" fill="#7C88A2"/>
<path d="M83.3931 114.284H80.4382V116.769H83.3931V114.284Z" fill="#60C0AF"/>
<path d="M74.5315 27.3282V29.8135V32.2963H77.4834V29.8135V27.3282H74.5315Z" fill="#1E1E1E"/>
<path d="M74.5314 114.284H71.5765V116.769H74.5314V114.284Z" fill="#60C0AF"/>
<path d="M71.5766 116.769H68.6217V119.252H71.5766V116.769Z" fill="#60C0AF"/>
<path d="M74.5314 111.798H71.5766H68.6217V114.284V116.769H71.5766V114.284H74.5314V116.769H77.4833V114.284V111.798H74.5314Z" fill="#7C88A2"/>
<path d="M86.3449 104.345V101.862V99.3768V96.8915V94.4088V91.9235V89.4381V86.9554V84.4701V81.9848V79.502V77.0167V74.5314V72.0486H83.393H80.4381V74.5314H77.4833H74.5314H71.5766H68.6217V77.0167V79.502V81.9848V84.4701V86.9554V89.4381V91.9235V94.4088V96.8915V99.3768V101.862V104.345H71.5766V106.83V109.316V111.798H74.5314H77.4833V109.316V106.83V104.345H74.5314V101.862V99.3768V96.8915V94.4088V91.9235V89.4381V86.9554V84.4701V81.9848V79.502V77.0167H77.4833H80.4381V79.502V81.9848V84.4701V86.9554V89.4381V91.9235V94.4088V96.8915V99.3768V101.862V104.345H83.393V106.83V109.316V111.798H86.3449H89.2997V109.316V106.83V104.345H86.3449Z" fill="#5B6A8B"/>
<path d="M80.4381 62.11H77.4833H74.5314H71.5766H68.6217V64.5953H71.5766H74.5314H77.4833H80.4381V67.0781H83.393V64.5953V62.11H80.4381Z" fill="#6A8E13"/>
<path d="M86.3449 44.7204V42.2351H83.393H80.4381V44.7204V47.2032H77.4833H74.5314V44.7204V42.2351H71.5766V44.7204H68.6217V47.2032H71.5766V49.6885H74.5314V52.1738H77.4833V49.6885H80.4381H83.393V47.2032H86.3449H89.2997V44.7204H86.3449Z" fill="#6A8E13"/>
<path d="M89.2998 116.769H86.345V119.252H83.3931H80.4382V121.737H83.3931H86.345H89.2998H92.2547V119.252V116.769H89.2998Z" fill="#339FBD"/>
<path d="M71.5765 116.769V119.252H68.6217H65.6698V121.737H68.6217H71.5765H74.5314H77.4832V119.252V116.769H74.5314H71.5765Z" fill="#339FBD"/>
<path d="M68.6217 114.284H65.6698V116.769H68.6217V114.284Z" fill="#60C0AF"/>
<path d="M68.6217 74.5315H65.6698V77.0168H68.6217V74.5315Z" fill="#6A8E13"/>
<path d="M68.6217 29.8136V32.2964H65.6698V34.7817H68.6217H71.5765V32.2964V29.8136H68.6217Z" fill="#E6675D"/>
<path d="M65.6698 27.3282V29.8135V32.2963H68.6217V29.8135V27.3282H65.6698Z" fill="#1E1E1E"/>
<path d="M65.6699 77.0167H62.7151V79.502V81.9848V84.4701V86.9554H65.6699V84.4701V81.9848H68.6218V79.502V77.0167H65.6699Z" fill="#FFE057"/>
<path d="M65.6699 72.0486H62.7151V74.5314H65.6699V72.0486Z" fill="#6A8E13"/>
<path d="M65.6699 64.5953V62.11V59.6272V57.1419V54.6566V52.1738V49.6885H62.7151V52.1738V54.6566V57.1419V59.6272V62.11V64.5953V67.078H65.6699H68.6218V64.5953H65.6699Z" fill="#6A8E13"/>
<path d="M89.2998 44.7203V47.2031H86.345H83.3931V49.6884H80.4382H77.4834V52.1737H74.5315V49.6884H71.5767V47.2031H68.6218V44.7203H65.6699V47.2031H62.7151V49.6884H65.6699V52.1737V54.6565V57.1418V59.6271V62.1099V64.5952H68.6218V62.1099H71.5767H74.5315H77.4834H80.4382H83.3931V64.5952V67.078H80.4382V64.5952H77.4834H74.5315H71.5767H68.6218V67.078H65.6699H62.7151V69.5633V72.0486H65.6699V74.5314H68.6218H71.5767H74.5315H77.4834H80.4382V72.0486H83.3931H86.345V69.5633V67.078V64.5952V62.1099V59.6271V57.1418V54.6565V52.1737H89.2998V54.6565V57.1418V59.6271V62.1099V64.5952V67.078V69.5633V72.0486H86.345V74.5314V77.0167H89.2998H92.2547V74.5314V72.0486V69.5633V67.078V64.5952V62.1099V59.6271V57.1418V54.6565V52.1737V49.6884V47.2031V44.7203H89.2998Z" fill="#8DBD19"/>
<path d="M65.6699 74.5315H62.7151V77.0168H65.6699V74.5315Z" fill="#8DBD19"/>
<path d="M83.3929 27.3282V29.8135V32.2963V34.7816H86.3448V32.2963V29.8135V27.3282H83.3929Z" fill="#FFE057"/>
<path d="M80.5287 32.3869V29.9041V27.4188H77.5738V29.9041V32.3869H74.622V29.9041V27.4188H71.6671H68.7123V29.9041H71.6671V32.3869V34.8722H68.7123H65.7604V32.3869V29.9041V27.4188H62.8055V29.9041V32.3869V34.8722V37.3575V39.8403H65.7604V42.3256H68.7123H71.6671H74.622V44.8109V47.2937H77.5738H80.5287V44.8109V42.3256H83.4835V39.8403V37.3575V34.8722H80.5287V32.3869Z" fill="#FFE057"/>
<path d="M83.3929 39.7497H86.3448V37.2669V34.7816H83.3929V37.2669V39.7497Z" fill="#282828"/>
<path d="M89.2997 19.8749V17.3896V14.9068V12.4215H86.3448V9.93623V7.45344H83.393V9.93623H80.4381V7.45344H77.4833V4.96814H74.5314V7.45344H71.5765H68.6217V4.96814H65.6698V7.45344H62.715H59.7601V9.93623V12.4215H56.8082V14.9068H53.8534V17.3896V19.8749V22.3602V24.843H56.8082V27.3283V29.8136H59.7601V32.2964V34.7817H62.715V32.2964V29.8136V27.3283H65.6698H68.6217H71.5765H74.5314H77.4833H80.4381V29.8136V32.2964V34.7817H83.393V32.2964V29.8136V27.3283H86.3448V29.8136V32.2964H89.2997V29.8136V27.3283V24.843V22.3602H92.2545V19.8749H89.2997Z" fill="#282828"/>
<path d="M83.3931 4.96814H80.4382V7.45344H83.3931V4.96814Z" fill="#282828"/>
<path d="M74.5314 2.48279H71.5765V4.96809H74.5314V2.48279Z" fill="#282828"/>
<path d="M65.6699 2.48279H62.7151V4.96809H65.6699V2.48279Z" fill="#282828"/>
<path d="M59.7602 4.96814H56.8083V7.45344H59.7602V4.96814Z" fill="#282828"/>
<path d="M56.8082 9.93616H53.8534V12.4215H56.8082V9.93616Z" fill="#282828"/>
<path d="M44.3079 119.252V116.769H41.353H38.3982H35.4463V119.252V121.737H38.3982H41.353H44.3079H47.2597V119.252H44.3079Z" fill="#E54C34"/>
<path d="M35.4463 27.3282V29.8135V32.2963V34.7816H38.3982V32.2963V29.8135V27.3282H35.4463Z" fill="#FFE057"/>
<path d="M41.353 9.93623V7.45344H38.3982V4.96814H35.4463H32.4915V7.45344H35.4463V9.93623H38.3982V12.4215H41.353V14.9068H44.3079V12.4215V9.93623H41.353Z" fill="#1E1E1E"/>
<path d="M32.4915 86.9554H29.5366V89.4382H32.4915V86.9554Z" fill="#60C0AF"/>
<path d="M35.4463 49.6884V47.2031H32.4915V49.6884V52.1737V54.6565V57.1418V59.6271V62.1099V64.5952V67.078V69.5633V72.0486V74.5314V77.0167H29.5366V79.502H32.4915V81.9848V84.4701H35.4463V86.9554H38.3982V84.4701V81.9848V79.502V77.0167V74.5314V72.0486V69.5633V67.078V64.5952V62.1099V59.6271V57.1418V54.6565V52.1737V49.6884H35.4463Z" fill="#FFE057"/>
<path d="M41.353 32.2964V34.7817H38.3982H35.4463V37.267V39.7498V42.2351V44.7204H32.4915H29.5366V47.2032H32.4915H35.4463V49.6885H38.3982V52.1738H41.353V54.6566H44.3079V52.1738V49.6885V47.2032V44.7204V42.2351V39.7498V37.267V34.7817V32.2964H41.353Z" fill="#1E1E1E"/>
<path d="M38.3982 114.284V111.798V109.316V106.83V104.345H35.4463V101.862V99.3769V96.8916V94.4088V91.9235V89.4382H32.4914H29.5366H26.5847V91.9235V94.4088H29.5366V96.8916V99.3769V101.862H32.4914V104.345V106.83V109.316V111.798H35.4463V114.284V116.769H38.3982H41.353V114.284H38.3982Z" fill="#339FBD"/>
<path d="M29.5366 86.9554H26.5847V89.4382H29.5366V86.9554Z" fill="#60C0AF"/>
<path d="M26.5847 79.502H23.6299V81.9847V84.47V86.9553H26.5847H29.5366V84.47V81.9847V79.502H26.5847Z" fill="#FFE057"/>
<path d="M23.6299 27.3282V29.8135V32.2963H26.5847V29.8135V27.3282H23.6299Z" fill="#1E1E1E"/>
<path d="M20.678 42.2351H17.7231V44.7204V47.2032H20.678H23.6299V44.7204V42.2351H20.678Z" fill="#393939"/>
<path d="M17.7232 86.9554H14.7683V89.4382H17.7232V86.9554Z" fill="#60C0AF"/>
<path d="M29.5366 27.3282H26.5847V29.8135V32.2963H23.6299V29.8135V27.3282H20.678H17.7232V29.8135H20.678V32.2963V34.7816H17.7232H14.7683V37.2669V39.7497H17.7232V42.235H20.678H23.6299V44.7203V47.2031H20.678V49.6884H23.6299H26.5847H29.5366V47.2031V44.7203V42.235H32.4915V39.7497V37.2669V34.7816V32.2963V29.8135V27.3282H29.5366Z" fill="#FFE057"/>
<path d="M17.7232 29.8136V32.2964H14.7683V34.7817H17.7232H20.678V32.2964V29.8136H17.7232Z" fill="#E6675D"/>
<path d="M14.7683 27.3282V29.8135V32.2963H17.7232V29.8135V27.3282H14.7683Z" fill="#1E1E1E"/>
<path d="M17.7231 101.862V99.3769V96.8916V94.4088V91.9235V89.4382H14.7683H11.8164V91.9235V94.4088V96.8916V99.3769V101.862H14.7683V104.345V106.83V109.316V111.798V114.284V116.769H17.7231H20.678V114.284V111.798V109.316V106.83V104.345V101.862H17.7231Z" fill="#339FBD"/>
<path d="M14.7683 86.9554H11.8164V89.4382H14.7683V86.9554Z" fill="#60C0AF"/>
<path d="M14.7683 79.502H11.8164V81.9847V84.47V86.9553H14.7683H17.7231V84.47V81.9847V79.502H14.7683Z" fill="#FFE057"/>
<path d="M29.5366 47.2031V49.6884H26.5847H23.6298H20.678V47.2031H17.7231V49.6884H14.7683V52.1737V54.6565V57.1418V59.6271V62.1099V64.5952V67.078H11.8164V69.5633V72.0486V74.5314V77.0167V79.502H14.7683H17.7231H20.678H23.6298H26.5847H29.5366V77.0167H32.4914V74.5314V72.0486V69.5633V67.078H29.5366V64.5952V62.1099H32.4914V59.6271V57.1418V54.6565V52.1737V49.6884V47.2031H29.5366Z" fill="#9D3DBE"/>
<path d="M17.7231 116.769H14.7683H11.8164V119.252H8.86157V121.737H11.8164H14.7683H17.7231H20.678V119.252V116.769H17.7231Z" fill="#E54C34"/>
<path d="M11.8164 42.2351H8.86157V44.7204H11.8164V42.2351Z" fill="#393939"/>
<path d="M44.3079 17.3895V14.9068H41.353V12.4215H38.3982V9.93615H35.4463V7.45337H32.4914H29.5366H26.5847H23.6299V9.93615H20.678H17.7231H14.7683V12.4215H11.8164V14.9068H8.86157V17.3895V19.8749V22.3602V24.8429H11.8164V27.3282V29.8135V32.2963V34.7816V37.2669V39.7497V42.235H14.7683V39.7497V37.2669V34.7816V32.2963V29.8135V27.3282H17.7231H20.678H23.6299H26.5847H29.5366H32.4914V29.8135V32.2963V34.7816V37.2669V39.7497V42.235H29.5366V44.7203H32.4914H35.4463V42.235V39.7497V37.2669V34.7816V32.2963V29.8135V27.3282H38.3982V29.8135V32.2963V34.7816H41.353V32.2963H44.3079V29.8135H47.2597V27.3282V24.8429V22.3602V19.8749V17.3895H44.3079Z" fill="#393939"/>
<path d="M14.7683 47.2031H11.8164V49.6884H8.86157V52.1737H5.90672V54.6565H2.95485V57.1418H0V59.6271V62.1099H2.95485V64.5952H5.90672V67.078H2.95485V69.5633H5.90672H8.86157H11.8164V67.078H14.7683V64.5952H11.8164V62.1099H8.86157V59.6271H5.90672V57.1418H8.86157V54.6565H11.8164V52.1737H14.7683V49.6884H17.7231V47.2031H14.7683Z" fill="#FFE057"/>
</svg>
