<svg width="128" height="128" viewBox="0 0 128 128" fill="none" xmlns="http://www.w3.org/2000/svg">
<path d="M121.91 36.557H115.79V24.358H109.711V18.2785H103.591V12.199H91.4325V6.0795H79.2335V0H48.756V6.0795H36.557V12.199H24.358V18.2785H18.2785V24.358H12.199V36.557H6.0795V48.756H0V79.2335H6.0795V91.4325H12.199V103.591H18.2785V109.711H24.358V115.79H36.557V121.91H48.756V127.989H79.2335V121.91H91.4325V115.79H103.591V109.711H109.711V103.591H115.79V91.4325H121.91V79.2335H127.989V48.756H121.91V36.557Z" fill="#FFCC34"/>
<rect x="24.3799" y="18.2849" width="6.09497" height="12.1899" fill="#FED674"/>
<rect x="18.2849" y="24.3799" width="6.09497" height="18.2849" fill="#FED674"/>
<rect x="12.1899" y="36.5698" width="6.09497" height="18.2849" fill="#FED674"/>
<rect x="6.09497" y="48.7598" width="6.09497" height="18.2849" fill="#FED674"/>
<path d="M128.003 48.7598H121.923V79.2373H128.003V48.7598Z" fill="#41210A"/>
<path d="M121.912 79.2346H115.793V91.4336H121.912V79.2346Z" fill="#41210A"/>
<path d="M121.912 36.5579H115.793V48.7569H121.912V36.5579Z" fill="#41210A"/>
<path d="M115.789 91.4365H109.71V103.596H115.789V91.4365Z" fill="#41210A"/>
<path d="M115.789 24.3562H109.71V36.5552H115.789V24.3562Z" fill="#41210A"/>
<path d="M109.71 103.591H103.591V109.71H109.71V103.591Z" fill="#41210A"/>
<path d="M109.71 18.2729H103.591V24.3524H109.71V18.2729Z" fill="#41210A"/>
<path d="M103.596 109.709H91.4365V115.789H103.596V109.709Z" fill="#41210A"/>
<path d="M103.596 12.1899H91.4365V18.2694H103.596V12.1899Z" fill="#41210A"/>
<path d="M91.4336 115.792H79.2346V121.912H91.4336V115.792Z" fill="#41210A"/>
<path d="M91.4336 6.07104H79.2346V12.1905H91.4336V6.07104Z" fill="#41210A"/>
<path d="M79.2346 6.09497H60.9497V12.1899H79.2346V6.09497Z" fill="#FFB400"/>
<path d="M91.4246 18.2849H85.3296V24.3799H91.4246V18.2849Z" fill="#FFB400"/>
<path d="M79.2346 12.1899H73.1396V18.2849H79.2346V12.1899Z" fill="#FFB400"/>
<path d="M103.615 24.3799H97.5196V30.4749H103.615V24.3799Z" fill="#FFB400"/>
<path d="M109.71 36.5698H103.615V42.6648H109.71V36.5698Z" fill="#FFB400"/>
<path d="M115.805 48.7598H109.71V54.8547H115.805V48.7598Z" fill="#FFB400"/>
<path d="M91.4246 12.1899H79.2346V18.2849H91.4246V12.1899Z" fill="#FFB400"/>
<path d="M103.615 18.2849H91.4246V24.3799H103.615V18.2849Z" fill="#FFB400"/>
<path d="M109.71 24.3799H103.615V36.5698H109.71V24.3799Z" fill="#FFB400"/>
<path d="M115.805 36.5698H109.71V48.7598H115.805V36.5698Z" fill="#FFB400"/>
<path d="M115.805 79.2346H109.71V91.4246H115.805V79.2346Z" fill="#FFB400"/>
<path d="M109.71 97.5195H103.615V103.615H109.71V97.5195Z" fill="#FFB400"/>
<path d="M103.615 103.615H91.4246V109.709H103.615V103.615Z" fill="#FFB400"/>
<path d="M91.4246 109.709H85.3296V115.804H91.4246V109.709Z" fill="#FFB400"/>
<path d="M121.899 48.7598H115.805V79.2346H121.899V48.7598Z" fill="#FFB400"/>
<path d="M79.2373 121.923H48.7598V128.003H79.2373V121.923Z" fill="#41210A"/>
<path d="M79.2373 0H48.7598V6.0795H79.2373V0Z" fill="#41210A"/>
<path d="M48.7569 115.792H36.5579V121.912H48.7569V115.792Z" fill="#41210A"/>
<path d="M48.7569 6.07104H36.5579V12.1905H48.7569V6.07104Z" fill="#41210A"/>
<path d="M36.5551 109.709H24.3561V115.789H36.5551V109.709Z" fill="#41210A"/>
<path d="M36.5551 12.1899H24.3561V18.2694H36.5551V12.1899Z" fill="#41210A"/>
<path d="M24.3525 103.591H18.273V109.71H24.3525V103.591Z" fill="#41210A"/>
<path d="M24.3525 18.2729H18.273V24.3524H24.3525V18.2729Z" fill="#41210A"/>
<path d="M18.2694 91.4365H12.1899V103.596H18.2694V91.4365Z" fill="#41210A"/>
<path d="M18.2694 24.3562H12.1899V36.5552H18.2694V24.3562Z" fill="#41210A"/>
<path d="M12.1907 79.2346H6.07117V91.4336H12.1907V79.2346Z" fill="#41210A"/>
<path d="M12.1907 36.5579H6.07117V48.7569H12.1907V36.5579Z" fill="#41210A"/>
<path d="M6.0795 48.7598H0V79.2373H6.0795V48.7598Z" fill="#41210A"/>
<path d="M71.291 76.5933H56.6873V81.4399H51.8406V96.0117H56.6873V100.89H71.291V96.0117H76.1376V81.4399H71.291V76.5933Z" fill="#41210A"/>
<path d="M71.291 47.4809V37.7276H66.393V32.8576L76.1455 28.0202L51.8327 28V32.8699H47V57.1579H51.8407V66.8993H56.6873V71.7778H71.291V66.8993H76.1376V57.1579H81V32.8576H76.1455V28.0202L66.393 32.8576H71.291V37.7276H76.1376V52.3275H71.291V47.4809Z" fill="#41210A"/>
</svg>
