<svg width="22" height="22" viewBox="0 0 22 22" fill="none" xmlns="http://www.w3.org/2000/svg">
<path d="M15.7163 12.5674V9.42554H6.28375V12.5674H0V21.9999H22V12.5674H15.7163ZM6.28375 20.948H1.05187V13.6193H6.28375V20.948ZM14.6644 20.948H7.33563V10.4774H14.6644V20.948ZM20.955 20.948H15.7163V13.6193H20.955V20.948Z" fill="#000001"/>
<path d="M19.9031 14.6646H16.7612V15.7164H18.8581V16.7614H16.7612V17.8064H18.8581V18.8583H16.7612V19.9033H19.9031V14.6646Z" fill="#000001"/>
<path d="M19.9031 4.18701H17.8131V5.23889H19.9031V4.18701Z" fill="#000001"/>
<path d="M17.8131 0H16.7612V1.045H17.8131V0Z" fill="#000001"/>
<path d="M16.7612 1.04492H15.7162V2.0968H16.7612V1.04492Z" fill="#000001"/>
<path d="M12.5744 15.7162H11.5225V11.5225H9.4325V12.5675H10.4775V15.7162H9.4325V16.7612H12.5744V15.7162Z" fill="#000001"/>
<path d="M11.5225 0H10.4775V2.09687H11.5225V0Z" fill="#000001"/>
<path d="M6.28375 3.14185V7.32872H7.33563V8.3806H14.6644V7.32872H15.7163V3.14185H14.6644V4.18685H13.6194V5.23872H12.5744V4.18685H11.5225V3.14185H10.4775V4.18685H9.4325V5.23872H8.38063V4.18685H7.33563V3.14185H6.28375ZM12.5744 6.28372H13.6194V7.32872H12.5744V6.28372ZM10.4775 6.28372H11.5225V7.32872H10.4775V6.28372ZM8.38063 6.28372H9.4325V7.32872H8.38063V6.28372Z" fill="#000001"/>
<path d="M6.28377 1.04492H5.23877V2.0968H6.28377V1.04492Z" fill="#000001"/>
<path d="M5.23873 0H4.19373V1.045H5.23873V0Z" fill="#000001"/>
<path d="M5.23874 18.8583H3.14186V17.8064H5.23874V14.6646H2.09686V15.7164H4.19374V16.7614H2.09686V19.9033H5.23874V18.8583Z" fill="#000001"/>
<path d="M4.19374 4.18701H2.09686V5.23889H4.19374V4.18701Z" fill="#000001"/>
</svg>
