<svg width="22" height="25" viewBox="0 0 22 25" fill="none" xmlns="http://www.w3.org/2000/svg">
<path d="M12.2231 24.4463V23.2272H14.6613V22.0001H17.1075V20.781H19.5537V19.5539H20.7728V18.3348H22V6.11168H20.7728V4.89258H19.5537V6.11168H17.1075V7.3388H14.6613V8.55791H12.2231V9.77701H9.77686V11.0041H11V23.2272H9.78087V24.4463H12.2231ZM17.1075 9.77701H19.5537V11.0041H17.1075V9.77701ZM13.4422 17.1157H15.8924V19.5539H13.4462L13.4422 17.1157Z" fill="#000001"/>
<path d="M19.5538 3.67334H17.1075V4.89244H19.5538V3.67334Z" fill="#000001"/>
<path d="M17.1076 2.44629H14.6614V3.67341H17.1076V2.44629Z" fill="#000001"/>
<path d="M14.6614 1.22705H12.2231V2.44615H14.6614V1.22705Z" fill="#000001"/>
<path d="M12.2231 4.89258H9.77686V7.3388H12.2231V4.89258Z" fill="#000001"/>
<path d="M12.2231 0H9.77686V1.22712H12.2231V0Z" fill="#000001"/>
<path d="M9.77692 22H7.33069V23.2271H9.77692V22Z" fill="#000001"/>
<path d="M9.77692 8.55762H7.33069V9.77672H9.77692V8.55762Z" fill="#000001"/>
<path d="M9.77692 1.22705H7.33069V2.44615H9.77692V1.22705Z" fill="#000001"/>
<path d="M9.77692 17.1157H7.33069V19.5539H9.77692V17.1157Z" fill="#000001"/>
<path d="M9.77692 12.2231H7.33069V14.6694H9.77692V12.2231Z" fill="#000001"/>
<path d="M7.33069 20.7808H4.88446V21.9999H7.33069V20.7808Z" fill="#000001"/>
<path d="M7.33069 7.33862H4.88446V8.55773H7.33069V7.33862Z" fill="#000001"/>
<path d="M7.33069 2.44629H4.88446V3.67341H7.33069V2.44629Z" fill="#000001"/>
<path d="M4.88443 19.5537H2.44623V20.7808H4.88443V19.5537Z" fill="#000001"/>
<path d="M4.88443 6.11157H2.44623V7.3387H4.88443V6.11157Z" fill="#000001"/>
<path d="M4.88443 3.67334H2.44623V4.89244H4.88443V3.67334Z" fill="#000001"/>
<path d="M4.88443 14.6694H2.44623V17.1157H4.88443V14.6694Z" fill="#000001"/>
<path d="M4.88443 9.77686H2.44623V12.2231H4.88443V9.77686Z" fill="#000001"/>
<path d="M2.44624 18.3347H1.21912V19.5538H2.44624V18.3347Z" fill="#000001"/>
<path d="M2.44624 4.89258H1.21912V6.11168H2.44624V4.89258Z" fill="#000001"/>
<path d="M1.2191 6.11157H0V18.3347H1.2191V6.11157Z" fill="#000001"/>
</svg>
