<svg width="194" height="26" viewBox="0 0 194 26" fill="none" xmlns="http://www.w3.org/2000/svg">
<path d="M5 21V0H11V18H23V21H5ZM29 21V18H26V0H32V18H41V0H47V18H44V21H29ZM56 21V18H53V15H50V6H53V3H56V0H68V3H71V6H65V3H59V6H56V15H59V18H65V15H71V18H68V21H56ZM74 21V0H80V9H83V6H86V3H89V0H95V3H92V6H89V9H86V12H89V15H92V18H95V21H86V18H83V15H80V21H74ZM107 21V12H104V9H101V0H107V9H113V0H119V9H116V12H113V21H107ZM149 21V18H146V15H152V18H161V12H152V9H155V6H158V3H149V0H167V3H164V6H161V9H164V12H167V18H164V21H149ZM173 21V18H179V6H176V3H179V0H185V18H191V21H173Z" fill="black"/>
<path d="M3 23V2H9V20H21V23H3ZM27 23V20H24V2H30V20H39V2H45V20H42V23H27ZM54 23V20H51V17H48V8H51V5H54V2H66V5H69V8H63V5H57V8H54V17H57V20H63V17H69V20H66V23H54ZM72 23V2H78V11H81V8H84V5H87V2H93V5H90V8H87V11H84V14H87V17H90V20H93V23H84V20H81V17H78V23H72ZM105 23V14H102V11H99V2H105V11H111V2H117V11H114V14H111V23H105ZM147 23V20H144V17H150V20H159V14H150V11H153V8H156V5H147V2H165V5H162V8H159V11H162V14H165V20H162V23H147ZM171 23V20H177V8H174V5H177V2H183V20H189V23H171Z" fill="#FFC107"/>
<path d="M3 21V0H9V18H21V21H3ZM27 21V18H24V0H30V18H39V0H45V18H42V21H27ZM54 21V18H51V15H48V6H51V3H54V0H66V3H69V6H63V3H57V6H54V15H57V18H63V15H69V18H66V21H54ZM72 21V0H78V9H81V6H84V3H87V0H93V3H90V6H87V9H84V12H87V15H90V18H93V21H84V18H81V15H78V21H72ZM105 21V12H102V9H99V0H105V9H111V0H117V9H114V12H111V21H105ZM147 21V18H144V15H150V18H159V12H150V9H153V6H156V3H147V0H165V3H162V6H159V9H162V12H165V18H162V21H147ZM171 21V18H177V6H174V3H177V0H183V18H189V21H171Z" fill="white"/>
</svg>
