<svg width="53" height="53" viewBox="0 0 53 53" fill="none" xmlns="http://www.w3.org/2000/svg">
<rect x="5" y="5" width="3" height="3" fill="#4A3C0F" fill-opacity="0.2"/>
<rect x="5" y="10" width="3" height="3" fill="#4A3C0F" fill-opacity="0.2"/>
<rect x="10" y="5" width="3" height="3" fill="#4A3C0F" fill-opacity="0.2"/>
<rect x="15" y="5" width="3" height="3" fill="#4A3C0F" fill-opacity="0.2"/>
<rect x="10" y="10" width="3" height="3" fill="#4A3C0F" fill-opacity="0.5"/>
<rect x="15" y="10" width="3" height="3" fill="#4A3C0F" fill-opacity="0.5"/>
<rect x="5" y="15" width="3" height="3" fill="#4A3C0F" fill-opacity="0.2"/>
<rect x="10" y="15" width="3" height="3" fill="#4A3C0F" fill-opacity="0.5"/>
<rect x="15" y="15" width="3" height="3" fill="#4A3C0F"/>
<rect x="20" y="5" width="3" height="3" fill="#4A3C0F" fill-opacity="0.2"/>
<rect x="20" y="10" width="3" height="3" fill="#4A3C0F" fill-opacity="0.5"/>
<rect x="25" y="5" width="3" height="3" fill="#4A3C0F" fill-opacity="0.2"/>
<rect x="30" y="5" width="3" height="3" fill="#4A3C0F" fill-opacity="0.2"/>
<rect x="25" y="10" width="3" height="3" fill="#4A3C0F" fill-opacity="0.5"/>
<rect x="30" y="10" width="3" height="3" fill="#4A3C0F" fill-opacity="0.5"/>
<rect x="20" y="15" width="3" height="3" fill="#4A3C0F"/>
<rect x="25" y="15" width="3" height="3" fill="#4A3C0F"/>
<rect x="30" y="15" width="3" height="3" fill="#4A3C0F"/>
<rect x="20" y="20" width="3" height="3" fill="#4A3C0F"/>
<rect x="20" y="25" width="3" height="3" fill="#4A3C0F"/>
<rect x="25" y="20" width="3" height="3" fill="#4A3C0F"/>
<rect x="30" y="20" width="3" height="3" fill="#4A3C0F"/>
<rect x="25" y="25" width="3" height="3" fill="#4A3C0F"/>
<rect x="30" y="25" width="3" height="3" fill="#4A3C0F"/>
<rect x="20" y="30" width="3" height="3" fill="#4A3C0F"/>
<rect x="25" y="30" width="3" height="3" fill="#4A3C0F"/>
<rect x="30" y="30" width="3" height="3" fill="#4A3C0F"/>
<rect x="5" y="20" width="3" height="3" fill="#4A3C0F" fill-opacity="0.2"/>
<rect x="5" y="25" width="3" height="3" fill="#4A3C0F" fill-opacity="0.2"/>
<rect x="10" y="20" width="3" height="3" fill="#4A3C0F" fill-opacity="0.5"/>
<rect x="15" y="20" width="3" height="3" fill="#4A3C0F"/>
<rect x="10" y="25" width="3" height="3" fill="#4A3C0F" fill-opacity="0.5"/>
<rect x="15" y="25" width="3" height="3" fill="#4A3C0F"/>
<rect x="5" y="30" width="3" height="3" fill="#4A3C0F" fill-opacity="0.2"/>
<rect x="10" y="30" width="3" height="3" fill="#4A3C0F" fill-opacity="0.5"/>
<rect x="15" y="30" width="3" height="3" fill="#4A3C0F"/>
<rect x="5" y="35" width="3" height="3" fill="#4A3C0F" fill-opacity="0.2"/>
<rect x="5" y="40" width="3" height="3" fill="#4A3C0F" fill-opacity="0.2"/>
<rect y="10" width="3" height="3" fill="#4A3C0F" fill-opacity="0.2"/>
<rect y="15" width="3" height="3" fill="#4A3C0F" fill-opacity="0.2"/>
<rect y="20" width="3" height="3" fill="#4A3C0F" fill-opacity="0.2"/>
<rect y="25" width="3" height="3" fill="#4A3C0F" fill-opacity="0.2"/>
<rect y="30" width="3" height="3" fill="#4A3C0F" fill-opacity="0.2"/>
<rect y="35" width="3" height="3" fill="#4A3C0F" fill-opacity="0.2"/>
<rect y="40" width="3" height="3" fill="#4A3C0F" fill-opacity="0.2"/>
<rect x="10" y="35" width="3" height="3" fill="#4A3C0F" fill-opacity="0.5"/>
<rect x="15" y="35" width="3" height="3" fill="#4A3C0F"/>
<rect x="10" y="40" width="3" height="3" fill="#4A3C0F" fill-opacity="0.5"/>
<rect x="15" y="40" width="3" height="3" fill="#4A3C0F" fill-opacity="0.5"/>
<rect x="5" y="45" width="3" height="3" fill="#4A3C0F" fill-opacity="0.2"/>
<rect x="10" y="45" width="3" height="3" fill="#4A3C0F" fill-opacity="0.2"/>
<rect x="15" y="45" width="3" height="3" fill="#4A3C0F" fill-opacity="0.2"/>
<rect x="20" y="35" width="3" height="3" fill="#4A3C0F"/>
<rect x="20" y="40" width="3" height="3" fill="#4A3C0F" fill-opacity="0.5"/>
<rect x="25" y="35" width="3" height="3" fill="#4A3C0F"/>
<rect x="30" y="35" width="3" height="3" fill="#4A3C0F"/>
<rect x="25" y="40" width="3" height="3" fill="#4A3C0F" fill-opacity="0.5"/>
<rect x="30" y="40" width="3" height="3" fill="#4A3C0F" fill-opacity="0.5"/>
<rect x="20" y="45" width="3" height="3" fill="#4A3C0F" fill-opacity="0.2"/>
<rect x="25" y="45" width="3" height="3" fill="#4A3C0F" fill-opacity="0.2"/>
<rect x="30" y="45" width="3" height="3" fill="#4A3C0F" fill-opacity="0.2"/>
<rect x="35" y="35" width="3" height="3" fill="#4A3C0F"/>
<rect x="35" y="40" width="3" height="3" fill="#4A3C0F" fill-opacity="0.5"/>
<rect x="40" y="35" width="3" height="3" fill="#4A3C0F" fill-opacity="0.5"/>
<rect x="45" y="35" width="3" height="3" fill="#4A3C0F" fill-opacity="0.2"/>
<rect x="40" y="40" width="3" height="3" fill="#4A3C0F" fill-opacity="0.5"/>
<rect x="45" y="40" width="3" height="3" fill="#4A3C0F" fill-opacity="0.2"/>
<rect x="35" y="45" width="3" height="3" fill="#4A3C0F" fill-opacity="0.2"/>
<rect x="40" y="45" width="3" height="3" fill="#4A3C0F" fill-opacity="0.2"/>
<rect x="10" y="50" width="3" height="3" fill="#4A3C0F" fill-opacity="0.2"/>
<rect x="15" y="50" width="3" height="3" fill="#4A3C0F" fill-opacity="0.2"/>
<rect x="20" y="50" width="3" height="3" fill="#4A3C0F" fill-opacity="0.2"/>
<rect x="25" y="50" width="3" height="3" fill="#4A3C0F" fill-opacity="0.2"/>
<rect x="30" y="50" width="3" height="3" fill="#4A3C0F" fill-opacity="0.2"/>
<rect x="35" y="50" width="3" height="3" fill="#4A3C0F" fill-opacity="0.2"/>
<rect x="40" y="50" width="3" height="3" fill="#4A3C0F" fill-opacity="0.2"/>
<rect x="45" y="45" width="3" height="3" fill="#4A3C0F" fill-opacity="0.2"/>
<rect x="35" y="20" width="3" height="3" fill="#4A3C0F"/>
<rect x="35" y="25" width="3" height="3" fill="#4A3C0F"/>
<rect x="40" y="20" width="3" height="3" fill="#4A3C0F" fill-opacity="0.5"/>
<rect x="45" y="20" width="3" height="3" fill="#4A3C0F" fill-opacity="0.2"/>
<rect x="40" y="25" width="3" height="3" fill="#4A3C0F" fill-opacity="0.5"/>
<rect x="45" y="25" width="3" height="3" fill="#4A3C0F" fill-opacity="0.2"/>
<rect x="35" y="30" width="3" height="3" fill="#4A3C0F"/>
<rect x="40" y="30" width="3" height="3" fill="#4A3C0F" fill-opacity="0.5"/>
<rect x="45" y="30" width="3" height="3" fill="#4A3C0F" fill-opacity="0.2"/>
<rect x="35" y="5" width="3" height="3" fill="#4A3C0F" fill-opacity="0.2"/>
<rect x="35" y="10" width="3" height="3" fill="#4A3C0F" fill-opacity="0.5"/>
<rect x="40" y="5" width="3" height="3" fill="#4A3C0F" fill-opacity="0.2"/>
<rect x="10" width="3" height="3" fill="#4A3C0F" fill-opacity="0.2"/>
<rect x="15" width="3" height="3" fill="#4A3C0F" fill-opacity="0.2"/>
<rect x="20" width="3" height="3" fill="#4A3C0F" fill-opacity="0.2"/>
<rect x="25" width="3" height="3" fill="#4A3C0F" fill-opacity="0.2"/>
<rect x="30" width="3" height="3" fill="#4A3C0F" fill-opacity="0.2"/>
<rect x="35" width="3" height="3" fill="#4A3C0F" fill-opacity="0.2"/>
<rect x="40" width="3" height="3" fill="#4A3C0F" fill-opacity="0.2"/>
<rect x="45" y="5" width="3" height="3" fill="#4A3C0F" fill-opacity="0.2"/>
<rect x="40" y="10" width="3" height="3" fill="#4A3C0F" fill-opacity="0.5"/>
<rect x="45" y="10" width="3" height="3" fill="#4A3C0F" fill-opacity="0.2"/>
<rect x="35" y="15" width="3" height="3" fill="#4A3C0F"/>
<rect x="40" y="15" width="3" height="3" fill="#4A3C0F" fill-opacity="0.5"/>
<rect x="45" y="15" width="3" height="3" fill="#4A3C0F" fill-opacity="0.2"/>
<rect x="50" y="35" width="3" height="3" fill="#4A3C0F" fill-opacity="0.2"/>
<rect x="50" y="40" width="3" height="3" fill="#4A3C0F" fill-opacity="0.2"/>
<rect x="50" y="20" width="3" height="3" fill="#4A3C0F" fill-opacity="0.2"/>
<rect x="50" y="25" width="3" height="3" fill="#4A3C0F" fill-opacity="0.2"/>
<rect x="50" y="30" width="3" height="3" fill="#4A3C0F" fill-opacity="0.2"/>
<rect x="50" y="10" width="3" height="3" fill="#4A3C0F" fill-opacity="0.2"/>
<rect x="50" y="15" width="3" height="3" fill="#4A3C0F" fill-opacity="0.2"/>
<path d="M23.5683 17.0151H21.1484V21.1635H17V23.5835V26.0034H25.9882L26.0183 17.0151H23.5683Z" fill="#FFD700"/>
<path d="M17 30.0389V32.4588H21.1484V36.6072H23.5683H25.9882V27.6189L17 27.5889V30.0389Z" fill="#FFD700"/>
<path d="M30.0082 36.592H32.4281V32.4437H36.5765V30.0237V27.6038H27.5883L27.5582 36.592H30.0082Z" fill="#FFD700"/>
<path d="M37 23.5683V21.1484H32.8516V17H30.4317H28.0118V25.9882L37 26.0183V23.5683Z" fill="#FFD700"/>
</svg>
