<svg width="40" height="40" viewBox="0 0 40 40" fill="none" xmlns="http://www.w3.org/2000/svg">
<rect x="4" width="32" height="2" fill="#FFC107"/>
<rect x="4" y="38" width="32" height="2" fill="#FFC107"/>
<rect x="2" y="2" width="36" height="36" fill="#FFD700"/>
<g clip-path="url(#clip0_425_284)">
<path d="M4.76497 18.955H6.28497V25.045H4.76497V18.955Z" fill="#000001"/>
<path d="M26.095 18.9551H24.575V17.4251H23.045V15.9051H16.955V17.4251H15.425V15.9051H10.855V17.4251H9.335V29.6151H7.805V26.5751H6.285V25.0451H7.805V18.9551H6.285V17.4251H7.805V11.3351H9.335V12.8551H10.855V11.3351H13.905V9.80505H24.575V11.3351H26.095V12.8551H27.615V15.9051H29.145V11.3351H30.665V15.9051H32.185V17.4251H26.095V18.9551Z" fill="#000001"/>
<path d="M9.33498 29.615H10.855V31.145H9.33498V29.615Z" fill="#000001"/>
<path d="M9.33498 9.80505H10.855V11.3351H9.33498V9.80505Z" fill="#000001"/>
<path d="M10.855 26.5751H12.385V28.0951H10.855V26.5751Z" fill="#000001"/>
<path d="M10.855 21.995H12.385V25.045H10.855V21.995Z" fill="#000001"/>
<path d="M10.855 8.28503H12.385V9.80503H10.855V8.28503Z" fill="#000001"/>
<path d="M24.575 31.145V34.2H27.615V35.72H30.665V37.24H6.28497V35.72H9.33497V34.2H12.385V32.67H10.855V31.15L24.575 31.145ZM13.905 35.715H19.995V34.2H23.045V32.67H13.9L13.905 35.715Z" fill="#000001"/>
<path d="M12.385 28.095H16.955V29.615H12.385V28.095Z" fill="#000001"/>
<path d="M16.955 26.5751H18.475V28.0951H16.955V26.5751Z" fill="#000001"/>
<path d="M18.475 21.995H19.995V25.045H18.475V21.995Z" fill="#000001"/>
<path d="M16.955 17.425H19.995V18.955H16.955V17.425Z" fill="#000001"/>
<path d="M23.045 18.955H24.575V25.045H23.045V18.955Z" fill="#000001"/>
<path d="M12.385 6.76501H26.095V8.28501H12.385V6.76501Z" fill="#000001"/>
<path d="M24.575 29.615H26.095V31.145H24.575V29.615Z" fill="#000001"/>
<path d="M24.575 25.045H26.095V26.575H24.575V25.045Z" fill="#000001"/>
<path d="M32.185 26.5751V28.0951H27.615V29.6151H26.095V26.5751H32.185Z" fill="#000001"/>
<path d="M26.095 8.28503H27.615V9.80503H26.095V8.28503Z" fill="#000001"/>
<path d="M27.615 9.80505H29.145V11.3351H27.615V9.80505Z" fill="#000001"/>
<path d="M29.145 18.955H30.665V20.475H29.145V18.955Z" fill="#000001"/>
<path d="M30.665 20.475H32.185V23.525H30.665V20.475Z" fill="#000001"/>
<path d="M32.185 25.045H33.715V26.575H32.185V25.045Z" fill="#000001"/>
<path d="M32.185 17.425H33.715V18.955H32.185V17.425Z" fill="#000001"/>
<path d="M33.715 18.955H35.235V25.045H33.715V18.955Z" fill="#000001"/>
</g>
<rect y="36" width="32" height="2" transform="rotate(-90 0 36)" fill="#FFC107"/>
<rect x="38" y="36" width="32" height="2" transform="rotate(-90 38 36)" fill="#FFC107"/>
<rect x="36" y="2" width="2" height="2" fill="#FFC107"/>
<rect x="2" y="2" width="2" height="2" fill="#FFC107"/>
<rect x="2" y="36" width="2" height="2" fill="#FFC107"/>
<rect x="36" y="36" width="2" height="2" fill="#FFC107"/>
<defs>
<clipPath id="clip0_425_284">
<rect width="32" height="32" fill="white" transform="matrix(-1 0 0 1 36 6)"/>
</clipPath>
</defs>
</svg>
