<svg width="85" height="84" viewBox="0 0 85 84" fill="none" xmlns="http://www.w3.org/2000/svg">
<path d="M9.21684 28.6748H72.7108V34.8194H75.7831H78.8554V48.1326H81.9277V60.4218H78.8554V74.7591H75.7831V77.8314H72.7108V74.7591V34.8194H75.7831V31.7471H72.7108V80.9037H9.21684V77.8314H6.14455V74.7591H3.07227V34.8194H6.14455V31.7471H9.21684V28.6748Z" fill="#B04B1D"/>
<path d="M9.21687 25.6024H19.4578V22.5301H34.8193V16.3855H38.9157V6.14458V3.07229H35.8434H25.6024H22.5301V16.3855H19.4578V6.14458H22.5301H25.6024V0H35.8434V6.14458H41.9879V16.3855H47.1084H60.4217H63.494V25.6024H60.4217V13.3133H47.1084V19.4578H34.8193H25.6024V16.3855H22.5301V19.4578V22.5301V25.6024H72.7108V31.747H75.7831H78.8554V45.0602H59.3976V51.2048H56.3253H53.253V57.3494H59.3976V60.4217H81.9277V63.494V74.759H75.7831V77.8313V80.9036H9.21687H6.14458V77.8313H9.21687V80.9036V83.9759H72.7108V80.9036V77.8313H78.8554V74.759V63.494H59.3976V60.4217H56.3253V57.3494V48.1325H59.3976H78.8554H85V60.4217H81.9277V48.1325V34.8193H78.8554H75.7831V28.6747H72.7108H9.21687H6.14458V31.747V34.8193H3.07229H0V74.759H3.07229V77.8313H6.14458V74.759H3.07229V31.747H9.21687V25.6024Z" fill="#211F20"/>
<rect x="62.47" y="51.2048" width="3.07229" height="6.14458" fill="#211F20"/>
<rect x="22.53" y="6.14465" width="3.07229" height="3.07229" fill="#F1EBC2"/>
<rect x="31.7471" y="16.3856" width="3.07229" height="3.07229" fill="#F1EBC2"/>
<rect x="25.6024" y="9.2168" width="3.07229" height="4.09639" fill="#F1EBC2"/>
<rect x="31.7471" y="6.14465" width="4.09639" height="3.07229" fill="#F1EBC2"/>
<path d="M25.6023 3.07227H35.8433V13.3132H31.7469V16.3855H35.8433H38.9156V6.14455H35.8433V9.21684H34.8192V6.14455H28.6746V9.21684V10.2409H25.6023V9.21684H22.53V16.3855H25.6023V19.4578H28.6746H31.7469V16.3855H28.6746V13.3132H25.6023V11.265V9.21684V6.14455V3.07227Z" fill="#FAC400"/>
<path d="M28.6747 6.14465H31.747V9.21694H35.8434V13.3133H31.747V16.3856H28.6747V6.14465Z" fill="#FF9A02"/>
<rect width="12.2892" height="3.07229" transform="matrix(-1 0 0 1 59.3976 16.3856)" fill="#85DB55"/>
<rect width="14.3373" height="3.07229" transform="matrix(-1 0 0 1 49.1567 19.4579)" fill="#85DB55"/>
<rect width="3.07229" height="3.07229" transform="matrix(-1 0 0 1 25.6024 22.53)" fill="#85DB55"/>
<rect width="3.07229" height="3.07229" transform="matrix(-1 0 0 1 31.7471 22.53)" fill="#85DB55"/>
<path d="M49.1567 19.4579H59.3977V16.3856H60.4218V19.4579V22.5302H55.3013V25.6025H52.229V22.5302H49.1567H31.7471L31.7471 25.6025H49.1567V19.4579Z" fill="#6BB544"/>
<rect x="25.6024" y="22.53" width="3.07229" height="3.07229" fill="#6BB544"/>
<rect x="49.1567" y="22.53" width="3.07229" height="3.07229" fill="#569133"/>
<rect x="55.3011" y="22.53" width="5.12048" height="3.07229" fill="#569133"/>
<path d="M9.21684 28.6748H72.7108V31.7471H27.6506V34.8194H24.5783V31.7471H21.506V34.8194H18.4337V31.7471H15.3614V37.8917H18.4337V34.8194H15.3614H12.2891V31.7471H6.14456V34.8194V46.0844H3.07227V34.8194H9.21684H12.2891V37.8917H9.21684V31.7471V28.6748Z" fill="#CC622E"/>
<rect x="3.07227" y="49.1567" width="3.07229" height="3.07229" fill="#CC622E"/>
<rect x="3.07227" y="55.3013" width="3.07229" height="3.07229" fill="#CC622E"/>
<path d="M53.2529 57.3494H56.3252V63.4939H59.3975V60.4217H56.3252H53.2529V57.3494Z" fill="#793C10"/>
<path d="M65.5421 63.4941H78.8553V66.5664V74.7592H75.783V77.8315H72.7108V80.9038H9.21678L9.21684 77.8315H6.14455V71.6869H3.07227V74.7592H9.21684V77.8315H15.3614H18.4337V74.7592H21.506V77.8315H18.4337H15.3614V74.7592H12.2891V77.8315H9.21684H66.5662V71.6869H69.6385V74.7592H66.5662H63.4939H60.4216H57.3493V77.8315H54.277V74.7592H51.2047V77.8315H54.277H57.3493H60.4216V71.6869H63.4939V77.8315H69.6385V74.7592H72.7108V71.6869H75.783V66.5664H65.5421V63.4941Z" fill="#793C10"/>
</svg>
