<svg width="10" height="10" viewBox="0 0 10 10" fill="none" xmlns="http://www.w3.org/2000/svg">
<path d="M10.0001 0.952881H9.52197V9.52476H10.0001V0.952881Z" fill="#AAAAAA"/>
<path d="M9.52212 0.475098H9.04712V0.953223H9.52212V0.475098Z" fill="#AAAAAA"/>
<path d="M8.57197 5.2373H8.09385V9.52481H1.90322V5.2373H1.42822V9.52481H0.475098V9.9998H9.52197V9.52481H8.57197V5.2373Z" fill="#AAAAAA"/>
<path d="M5.7124 2.85601H7.61865V0.952881H5.7124V2.85601ZM6.19053 1.42788H6.66553V2.38101H6.19053V1.42788Z" fill="#AAAAAA"/>
<path d="M7.14033 8.09375H2.85596V8.57188H7.14033V8.09375Z" fill="#AAAAAA"/>
<path d="M7.14033 6.66553H2.85596V7.14365H7.14033V6.66553Z" fill="#AAAAAA"/>
<path d="M8.0937 4.7627H1.90308V5.2377H8.0937V4.7627Z" fill="#AAAAAA"/>
<path d="M1.42788 2.85625H1.90288V0.475H2.85601V2.85625H1.90288V3.33437H2.85601V3.80937H8.57163V0.475H9.04663V0H0.952881V0.475H1.42788V2.85625ZM3.33101 0.475H8.09351V3.33437H3.33101V0.475Z" fill="#AAAAAA"/>
<path d="M0.953223 0.475098H0.475098V0.953223H0.953223V0.475098Z" fill="#AAAAAA"/>
<path d="M0.475 0.952881H0V9.52476H0.475V0.952881Z" fill="#AAAAAA"/>
</svg>
