<svg width="122" height="21" viewBox="0 0 122 21" fill="none" xmlns="http://www.w3.org/2000/svg">
<path d="M9.5 17.5V15H2V12.5H9.5V10H4.5V7.5H2V5H4.5V2.5H9.5V0H12V2.5H17V5H12V7.5H17V10H19.5V12.5H17V15H12V17.5H9.5ZM7 7.5H9.5V5H7V7.5ZM12 12.5H14.5V10H12V12.5ZM24.5 17.5V0H29.5V15H39.5V17.5H24.5ZM44.5 17.5V15H42V0H47V15H54.5V0H59.5V15H57V17.5H44.5ZM67 17.5V15H64.5V12.5H62V5H64.5V2.5H67V0H77V2.5H79.5V5H74.5V2.5H69.5V5H67V12.5H69.5V15H74.5V12.5H79.5V15H77V17.5H67ZM82 17.5V0H87V7.5H89.5V5H92V2.5H94.5V0H99.5V2.5H97V5H94.5V7.5H92V10H94.5V12.5H97V15H99.5V17.5H92V15H89.5V12.5H87V17.5H82ZM109.5 17.5V10H107V7.5H104.5V0H109.5V7.5H114.5V0H119.5V7.5H117V10H114.5V17.5H109.5Z" fill="black"/>
<path d="M7.5 18.5V16H0V13.5H7.5V11H2.5V8.5H0V6H2.5V3.5H7.5V1H10V3.5H15V6H10V8.5H15V11H17.5V13.5H15V16H10V18.5H7.5ZM5 8.5H7.5V6H5V8.5ZM10 13.5H12.5V11H10V13.5ZM22.5 18.5V1H27.5V16H37.5V18.5H22.5ZM42.5 18.5V16H40V1H45V16H52.5V1H57.5V16H55V18.5H42.5ZM65 18.5V16H62.5V13.5H60V6H62.5V3.5H65V1H75V3.5H77.5V6H72.5V3.5H67.5V6H65V13.5H67.5V16H72.5V13.5H77.5V16H75V18.5H65ZM80 18.5V1H85V8.5H87.5V6H90V3.5H92.5V1H97.5V3.5H95V6H92.5V8.5H90V11H92.5V13.5H95V16H97.5V18.5H90V16H87.5V13.5H85V18.5H80ZM107.5 18.5V11H105V8.5H102.5V1H107.5V8.5H112.5V1H117.5V8.5H115V11H112.5V18.5H107.5Z" fill="#FFC107"/>
<path d="M7.5 17.5V15H0V12.5H7.5V10H2.5V7.5H0V5H2.5V2.5H7.5V0H10V2.5H15V5H10V7.5H15V10H17.5V12.5H15V15H10V17.5H7.5ZM5 7.5H7.5V5H5V7.5ZM10 12.5H12.5V10H10V12.5ZM22.5 17.5V0H27.5V15H37.5V17.5H22.5ZM42.5 17.5V15H40V0H45V15H52.5V0H57.5V15H55V17.5H42.5ZM65 17.5V15H62.5V12.5H60V5H62.5V2.5H65V0H75V2.5H77.5V5H72.5V2.5H67.5V5H65V12.5H67.5V15H72.5V12.5H77.5V15H75V17.5H65ZM80 17.5V0H85V7.5H87.5V5H90V2.5H92.5V0H97.5V2.5H95V5H92.5V7.5H90V10H92.5V12.5H95V15H97.5V17.5H90V15H87.5V12.5H85V17.5H80ZM107.5 17.5V10H105V7.5H102.5V0H107.5V7.5H112.5V0H117.5V7.5H115V10H112.5V17.5H107.5Z" fill="white"/>
</svg>
